%TF.GenerationSoftware,KiCad,Pcbnew,7.0.11+dfsg-1build4*%
%TF.CreationDate,2026-10-01T13:32:13+00:00*%
%TF.ProjectId,amiga_scandoubler_v030wip,616d6967-615f-4736-9361-6e646f75626c,rev?*%
%TF.SameCoordinates,Original*%
%TF.FileFunction,Soldermask,Top*%
%TF.FilePolarity,Negative*%
%FSLAX46Y46*%
G04 Gerber Fmt 4.6, Leading zero omitted, Abs format (unit mm)*
G04 Created by KiCad (PCBNEW 7.0.11+dfsg-1build4) date 2026-10-01 13:32:13*
%MOMM*%
%LPD*%
G01*
G04 APERTURE LIST*
G04 Aperture macros list*
%AMRoundRect*
0 Rectangle with rounded corners*
0 $1 Rounding radius*
0 $2 $3 $4 $5 $6 $7 $8 $9 X,Y pos of 4 corners*
0 Add a 4 corners polygon primitive as box body*
4,1,4,$2,$3,$4,$5,$6,$7,$8,$9,$2,$3,0*
0 Add four circle primitives for the rounded corners*
1,1,$1+$1,$2,$3*
1,1,$1+$1,$4,$5*
1,1,$1+$1,$6,$7*
1,1,$1+$1,$8,$9*
0 Add four rect primitives between the rounded corners*
20,1,$1+$1,$2,$3,$4,$5,0*
20,1,$1+$1,$4,$5,$6,$7,0*
20,1,$1+$1,$6,$7,$8,$9,0*
20,1,$1+$1,$8,$9,$2,$3,0*%
G04 Aperture macros list end*
%ADD10R,1.300000X1.100000*%
%ADD11RoundRect,0.225000X-0.225000X-0.250000X0.225000X-0.250000X0.225000X0.250000X-0.225000X0.250000X0*%
%ADD12RoundRect,0.200000X0.275000X-0.200000X0.275000X0.200000X-0.275000X0.200000X-0.275000X-0.200000X0*%
%ADD13RoundRect,0.225000X0.250000X-0.225000X0.250000X0.225000X-0.250000X0.225000X-0.250000X-0.225000X0*%
%ADD14RoundRect,0.250000X-0.250000X-0.475000X0.250000X-0.475000X0.250000X0.475000X-0.250000X0.475000X0*%
%ADD15RoundRect,0.200000X0.200000X0.275000X-0.200000X0.275000X-0.200000X-0.275000X0.200000X-0.275000X0*%
%ADD16RoundRect,0.200000X-0.200000X-0.275000X0.200000X-0.275000X0.200000X0.275000X-0.200000X0.275000X0*%
%ADD17RoundRect,0.150000X-0.512500X-0.150000X0.512500X-0.150000X0.512500X0.150000X-0.512500X0.150000X0*%
%ADD18RoundRect,0.218750X0.256250X-0.218750X0.256250X0.218750X-0.256250X0.218750X-0.256250X-0.218750X0*%
%ADD19RoundRect,0.135000X0.185000X-0.135000X0.185000X0.135000X-0.185000X0.135000X-0.185000X-0.135000X0*%
%ADD20RoundRect,0.062500X0.387500X0.062500X-0.387500X0.062500X-0.387500X-0.062500X0.387500X-0.062500X0*%
%ADD21RoundRect,0.062500X0.062500X0.387500X-0.062500X0.387500X-0.062500X-0.387500X0.062500X-0.387500X0*%
%ADD22R,6.800000X6.800000*%
%ADD23RoundRect,0.225000X0.225000X0.250000X-0.225000X0.250000X-0.225000X-0.250000X0.225000X-0.250000X0*%
%ADD24R,1.700000X1.700000*%
%ADD25C,1.700000*%
%ADD26C,4.000000*%
%ADD27RoundRect,0.225000X-0.250000X0.225000X-0.250000X-0.225000X0.250000X-0.225000X0.250000X0.225000X0*%
%ADD28C,0.650000*%
%ADD29R,0.600000X1.450000*%
%ADD30R,0.300000X1.450000*%
%ADD31O,1.200000X2.100000*%
%ADD32O,1.200000X1.600000*%
%ADD33R,0.500000X0.250000*%
%ADD34R,0.900000X1.600000*%
%ADD35RoundRect,0.218750X-0.218750X-0.256250X0.218750X-0.256250X0.218750X0.256250X-0.218750X0.256250X0*%
%ADD36R,1.300000X4.000000*%
%ADD37RoundRect,0.140000X0.170000X-0.140000X0.170000X0.140000X-0.170000X0.140000X-0.170000X-0.140000X0*%
%ADD38RoundRect,0.140000X-0.140000X-0.170000X0.140000X-0.170000X0.140000X0.170000X-0.140000X0.170000X0*%
%ADD39RoundRect,0.087500X-0.687500X-0.087500X0.687500X-0.087500X0.687500X0.087500X-0.687500X0.087500X0*%
%ADD40RoundRect,0.087500X-0.087500X-0.687500X0.087500X-0.687500X0.087500X0.687500X-0.087500X0.687500X0*%
%ADD41R,6.200000X6.200000*%
%ADD42RoundRect,0.200000X-0.275000X0.200000X-0.275000X-0.200000X0.275000X-0.200000X0.275000X0.200000X0*%
%ADD43R,1.000000X3.150000*%
%ADD44RoundRect,0.250000X-0.375000X-0.625000X0.375000X-0.625000X0.375000X0.625000X-0.375000X0.625000X0*%
%ADD45RoundRect,0.140000X-0.170000X0.140000X-0.170000X-0.140000X0.170000X-0.140000X0.170000X0.140000X0*%
%ADD46RoundRect,0.250000X0.250000X0.475000X-0.250000X0.475000X-0.250000X-0.475000X0.250000X-0.475000X0*%
%ADD47RoundRect,0.075000X-0.662500X-0.075000X0.662500X-0.075000X0.662500X0.075000X-0.662500X0.075000X0*%
%ADD48RoundRect,0.075000X-0.075000X-0.662500X0.075000X-0.662500X0.075000X0.662500X-0.075000X0.662500X0*%
G04 APERTURE END LIST*
D10*
%TO.C,Y1*%
X38850000Y-27950000D03*
X41150000Y-27950000D03*
X41150000Y-26050000D03*
X38850000Y-26050000D03*
%TD*%
D11*
%TO.C,C12*%
X16725000Y-27500000D03*
X18275000Y-27500000D03*
%TD*%
D12*
%TO.C,R7*%
X51290000Y-19125000D03*
X51290000Y-17475000D03*
%TD*%
D13*
%TO.C,C3*%
X16000000Y-34775000D03*
X16000000Y-33225000D03*
%TD*%
D14*
%TO.C,C66*%
X30550000Y-28500000D03*
X32450000Y-28500000D03*
%TD*%
D15*
%TO.C,R32*%
X70825000Y-76000000D03*
X69175000Y-76000000D03*
%TD*%
D14*
%TO.C,C41*%
X58250000Y-52600000D03*
X60150000Y-52600000D03*
%TD*%
D16*
%TO.C,R36*%
X37675000Y-34000000D03*
X39325000Y-34000000D03*
%TD*%
D17*
%TO.C,U6*%
X65862500Y-53050000D03*
X65862500Y-54000000D03*
X65862500Y-54950000D03*
X68137500Y-54950000D03*
X68137500Y-53050000D03*
%TD*%
D16*
%TO.C,R35*%
X37175000Y-84000000D03*
X38825000Y-84000000D03*
%TD*%
D18*
%TO.C,FB3*%
X33000000Y-32287500D03*
X33000000Y-30712500D03*
%TD*%
D19*
%TO.C,R37*%
X39100000Y-38060000D03*
X39100000Y-37040000D03*
%TD*%
D20*
%TO.C,U2*%
X54950000Y-46200000D03*
X54950000Y-45800000D03*
X54950000Y-45400000D03*
X54950000Y-45000000D03*
X54950000Y-44600000D03*
X54950000Y-44200000D03*
X54950000Y-43800000D03*
X54950000Y-43400000D03*
X54950000Y-43000000D03*
X54950000Y-42600000D03*
X54950000Y-42200000D03*
X54950000Y-41800000D03*
X54950000Y-41400000D03*
X54950000Y-41000000D03*
X54950000Y-40600000D03*
X54950000Y-40200000D03*
X54950000Y-39800000D03*
X54950000Y-39400000D03*
X54950000Y-39000000D03*
X54950000Y-38600000D03*
X54950000Y-38200000D03*
X54950000Y-37800000D03*
D21*
X54200000Y-37050000D03*
X53800000Y-37050000D03*
X53400000Y-37050000D03*
X53000000Y-37050000D03*
X52600000Y-37050000D03*
X52200000Y-37050000D03*
X51800000Y-37050000D03*
X51400000Y-37050000D03*
X51000000Y-37050000D03*
X50600000Y-37050000D03*
X50200000Y-37050000D03*
X49800000Y-37050000D03*
X49400000Y-37050000D03*
X49000000Y-37050000D03*
X48600000Y-37050000D03*
X48200000Y-37050000D03*
X47800000Y-37050000D03*
X47400000Y-37050000D03*
X47000000Y-37050000D03*
X46600000Y-37050000D03*
X46200000Y-37050000D03*
X45800000Y-37050000D03*
D20*
X45050000Y-37800000D03*
X45050000Y-38200000D03*
X45050000Y-38600000D03*
X45050000Y-39000000D03*
X45050000Y-39400000D03*
X45050000Y-39800000D03*
X45050000Y-40200000D03*
X45050000Y-40600000D03*
X45050000Y-41000000D03*
X45050000Y-41400000D03*
X45050000Y-41800000D03*
X45050000Y-42200000D03*
X45050000Y-42600000D03*
X45050000Y-43000000D03*
X45050000Y-43400000D03*
X45050000Y-43800000D03*
X45050000Y-44200000D03*
X45050000Y-44600000D03*
X45050000Y-45000000D03*
X45050000Y-45400000D03*
X45050000Y-45800000D03*
X45050000Y-46200000D03*
D21*
X45800000Y-46950000D03*
X46200000Y-46950000D03*
X46600000Y-46950000D03*
X47000000Y-46950000D03*
X47400000Y-46950000D03*
X47800000Y-46950000D03*
X48200000Y-46950000D03*
X48600000Y-46950000D03*
X49000000Y-46950000D03*
X49400000Y-46950000D03*
X49800000Y-46950000D03*
X50200000Y-46950000D03*
X50600000Y-46950000D03*
X51000000Y-46950000D03*
X51400000Y-46950000D03*
X51800000Y-46950000D03*
X52200000Y-46950000D03*
X52600000Y-46950000D03*
X53000000Y-46950000D03*
X53400000Y-46950000D03*
X53800000Y-46950000D03*
X54200000Y-46950000D03*
D22*
X50000000Y-42000000D03*
%TD*%
D23*
%TO.C,C29*%
X58375000Y-36300000D03*
X56825000Y-36300000D03*
%TD*%
D18*
%TO.C,FB1*%
X13000000Y-30787500D03*
X13000000Y-29212500D03*
%TD*%
D24*
%TO.C,J2*%
X87960000Y-37685000D03*
D25*
X87960000Y-39975000D03*
X87960000Y-42265000D03*
X87960000Y-44555000D03*
X87960000Y-46845000D03*
X89940000Y-36540000D03*
X89940000Y-38830000D03*
X89940000Y-41120000D03*
X89940000Y-43410000D03*
X89940000Y-45700000D03*
X91920000Y-37685000D03*
X91920000Y-39975000D03*
X91920000Y-42265000D03*
X91920000Y-44555000D03*
X91920000Y-46845000D03*
D26*
X89940000Y-54500000D03*
X89940000Y-29500000D03*
%TD*%
D11*
%TO.C,C61*%
X38225000Y-24000000D03*
X39775000Y-24000000D03*
%TD*%
D13*
%TO.C,C22*%
X35800000Y-50375000D03*
X35800000Y-48825000D03*
%TD*%
%TO.C,C48*%
X12000000Y-34275000D03*
X12000000Y-32725000D03*
%TD*%
D27*
%TO.C,C32*%
X43000000Y-36575000D03*
X43000000Y-38125000D03*
%TD*%
D28*
%TO.C,J3*%
X44610000Y-88750000D03*
X50390000Y-88750000D03*
D29*
X44250000Y-87305000D03*
X45050000Y-87305000D03*
D30*
X46250000Y-87305000D03*
X47250000Y-87305000D03*
X47750000Y-87305000D03*
X48750000Y-87305000D03*
D29*
X49950000Y-87305000D03*
X50750000Y-87305000D03*
X50750000Y-87305000D03*
X49950000Y-87305000D03*
D30*
X49250000Y-87305000D03*
X48250000Y-87305000D03*
X46750000Y-87305000D03*
X45750000Y-87305000D03*
D29*
X45050000Y-87305000D03*
X44250000Y-87305000D03*
D31*
X43180000Y-88220000D03*
D32*
X43180000Y-92400000D03*
D31*
X51820000Y-88220000D03*
D32*
X51820000Y-92400000D03*
%TD*%
D14*
%TO.C,C54*%
X52050000Y-82000000D03*
X53950000Y-82000000D03*
%TD*%
D23*
%TO.C,C35*%
X45175000Y-33200000D03*
X43625000Y-33200000D03*
%TD*%
D15*
%TO.C,R31*%
X73825000Y-76000000D03*
X72175000Y-76000000D03*
%TD*%
D11*
%TO.C,C50*%
X14725000Y-51500000D03*
X16275000Y-51500000D03*
%TD*%
D16*
%TO.C,R19*%
X13675000Y-56000000D03*
X15325000Y-56000000D03*
%TD*%
D11*
%TO.C,C18*%
X14725000Y-47500000D03*
X16275000Y-47500000D03*
%TD*%
D33*
%TO.C,U9*%
X69050000Y-72250000D03*
X69050000Y-72750000D03*
X69050000Y-73250000D03*
X69050000Y-73750000D03*
X70950000Y-73750000D03*
X70950000Y-73250000D03*
X70950000Y-72750000D03*
X70950000Y-72250000D03*
D34*
X70000000Y-73000000D03*
%TD*%
D19*
%TO.C,R38*%
X40050000Y-37560000D03*
X40050000Y-36540000D03*
%TD*%
D35*
%TO.C,FB2*%
X14712500Y-53500000D03*
X16287500Y-53500000D03*
%TD*%
D13*
%TO.C,C53*%
X18500000Y-56275000D03*
X18500000Y-54725000D03*
%TD*%
D27*
%TO.C,C21*%
X27600000Y-51375000D03*
X27600000Y-52925000D03*
%TD*%
D15*
%TO.C,R25*%
X41825000Y-84800000D03*
X40175000Y-84800000D03*
%TD*%
D23*
%TO.C,C19*%
X19375000Y-51450000D03*
X17825000Y-51450000D03*
%TD*%
D11*
%TO.C,C63*%
X20225000Y-26000000D03*
X21775000Y-26000000D03*
%TD*%
D13*
%TO.C,C11*%
X15000000Y-31275000D03*
X15000000Y-29725000D03*
%TD*%
D14*
%TO.C,C68*%
X79050000Y-51500000D03*
X80950000Y-51500000D03*
%TD*%
D13*
%TO.C,C5*%
X12000000Y-41275000D03*
X12000000Y-39725000D03*
%TD*%
D14*
%TO.C,C60*%
X78050000Y-72750000D03*
X79950000Y-72750000D03*
%TD*%
D36*
%TO.C,L3*%
X73150000Y-72750000D03*
X75850000Y-72750000D03*
%TD*%
D16*
%TO.C,R24*%
X71775000Y-51600000D03*
X73425000Y-51600000D03*
%TD*%
D11*
%TO.C,C27*%
X21225000Y-32000000D03*
X22775000Y-32000000D03*
%TD*%
D27*
%TO.C,C38*%
X41000000Y-44725000D03*
X41000000Y-46275000D03*
%TD*%
D13*
%TO.C,C16*%
X16000000Y-45275000D03*
X16000000Y-43725000D03*
%TD*%
D17*
%TO.C,U4*%
X15862500Y-58050000D03*
X15862500Y-59000000D03*
X15862500Y-59950000D03*
X18137500Y-59950000D03*
X18137500Y-59000000D03*
X18137500Y-58050000D03*
%TD*%
D23*
%TO.C,C36*%
X45175000Y-35000000D03*
X43625000Y-35000000D03*
%TD*%
D37*
%TO.C,C72*%
X36550000Y-34980000D03*
X36550000Y-34020000D03*
%TD*%
D13*
%TO.C,C2*%
X25300000Y-30475000D03*
X25300000Y-28925000D03*
%TD*%
D33*
%TO.C,U7*%
X24050000Y-72250000D03*
X24050000Y-72750000D03*
X24050000Y-73250000D03*
X24050000Y-73750000D03*
X25950000Y-73750000D03*
X25950000Y-73250000D03*
X25950000Y-72750000D03*
X25950000Y-72250000D03*
D34*
X25000000Y-73000000D03*
%TD*%
D11*
%TO.C,C46*%
X80225000Y-39500000D03*
X81775000Y-39500000D03*
%TD*%
D13*
%TO.C,C25*%
X29500000Y-32275000D03*
X29500000Y-30725000D03*
%TD*%
D11*
%TO.C,C39*%
X59625000Y-54800000D03*
X61175000Y-54800000D03*
%TD*%
D12*
%TO.C,R23*%
X83500000Y-52325000D03*
X83500000Y-50675000D03*
%TD*%
D16*
%TO.C,R14*%
X66075000Y-45050000D03*
X67725000Y-45050000D03*
%TD*%
D11*
%TO.C,C10*%
X20225000Y-28000000D03*
X21775000Y-28000000D03*
%TD*%
%TO.C,C65*%
X14425000Y-64000000D03*
X15975000Y-64000000D03*
%TD*%
D23*
%TO.C,C26*%
X28675000Y-28500000D03*
X27125000Y-28500000D03*
%TD*%
D38*
%TO.C,C71*%
X54670000Y-35905000D03*
X55630000Y-35905000D03*
%TD*%
D16*
%TO.C,R11*%
X80175000Y-37500000D03*
X81825000Y-37500000D03*
%TD*%
D11*
%TO.C,C67*%
X27725000Y-26000000D03*
X29275000Y-26000000D03*
%TD*%
D27*
%TO.C,C20*%
X26100000Y-51375000D03*
X26100000Y-52925000D03*
%TD*%
%TO.C,C30*%
X43000000Y-45225000D03*
X43000000Y-46775000D03*
%TD*%
%TO.C,C34*%
X45400000Y-48375000D03*
X45400000Y-49925000D03*
%TD*%
D14*
%TO.C,C58*%
X55550000Y-72750000D03*
X57450000Y-72750000D03*
%TD*%
%TO.C,C62*%
X13050000Y-27000000D03*
X14950000Y-27000000D03*
%TD*%
D12*
%TO.C,R22*%
X83500000Y-48825000D03*
X83500000Y-47175000D03*
%TD*%
D13*
%TO.C,C24*%
X36000000Y-37775000D03*
X36000000Y-36225000D03*
%TD*%
D12*
%TO.C,R20*%
X11500000Y-57325000D03*
X11500000Y-55675000D03*
%TD*%
%TO.C,R5*%
X48750000Y-19125000D03*
X48750000Y-17475000D03*
%TD*%
D39*
%TO.C,U1*%
X18350000Y-36000000D03*
X18350000Y-36500000D03*
X18350000Y-37000000D03*
X18350000Y-37500000D03*
X18350000Y-38000000D03*
X18350000Y-38500000D03*
X18350000Y-39000000D03*
X18350000Y-39500000D03*
X18350000Y-40000000D03*
X18350000Y-40500000D03*
X18350000Y-41000000D03*
X18350000Y-41500000D03*
X18350000Y-42000000D03*
X18350000Y-42500000D03*
X18350000Y-43000000D03*
X18350000Y-43500000D03*
X18350000Y-44000000D03*
X18350000Y-44500000D03*
X18350000Y-45000000D03*
X18350000Y-45500000D03*
X18350000Y-46000000D03*
X18350000Y-46500000D03*
X18350000Y-47000000D03*
X18350000Y-47500000D03*
X18350000Y-48000000D03*
D40*
X20000000Y-49650000D03*
X20500000Y-49650000D03*
X21000000Y-49650000D03*
X21500000Y-49650000D03*
X22000000Y-49650000D03*
X22500000Y-49650000D03*
X23000000Y-49650000D03*
X23500000Y-49650000D03*
X24000000Y-49650000D03*
X24500000Y-49650000D03*
X25000000Y-49650000D03*
X25500000Y-49650000D03*
X26000000Y-49650000D03*
X26500000Y-49650000D03*
X27000000Y-49650000D03*
X27500000Y-49650000D03*
X28000000Y-49650000D03*
X28500000Y-49650000D03*
X29000000Y-49650000D03*
X29500000Y-49650000D03*
X30000000Y-49650000D03*
X30500000Y-49650000D03*
X31000000Y-49650000D03*
X31500000Y-49650000D03*
X32000000Y-49650000D03*
D39*
X33650000Y-48000000D03*
X33650000Y-47500000D03*
X33650000Y-47000000D03*
X33650000Y-46500000D03*
X33650000Y-46000000D03*
X33650000Y-45500000D03*
X33650000Y-45000000D03*
X33650000Y-44500000D03*
X33650000Y-44000000D03*
X33650000Y-43500000D03*
X33650000Y-43000000D03*
X33650000Y-42500000D03*
X33650000Y-42000000D03*
X33650000Y-41500000D03*
X33650000Y-41000000D03*
X33650000Y-40500000D03*
X33650000Y-40000000D03*
X33650000Y-39500000D03*
X33650000Y-39000000D03*
X33650000Y-38500000D03*
X33650000Y-38000000D03*
X33650000Y-37500000D03*
X33650000Y-37000000D03*
X33650000Y-36500000D03*
X33650000Y-36000000D03*
D40*
X32000000Y-34350000D03*
X31500000Y-34350000D03*
X31000000Y-34350000D03*
X30500000Y-34350000D03*
X30000000Y-34350000D03*
X29500000Y-34350000D03*
X29000000Y-34350000D03*
X28500000Y-34350000D03*
X28000000Y-34350000D03*
X27500000Y-34350000D03*
X27000000Y-34350000D03*
X26500000Y-34350000D03*
X26000000Y-34350000D03*
X25500000Y-34350000D03*
X25000000Y-34350000D03*
X24500000Y-34350000D03*
X24000000Y-34350000D03*
X23500000Y-34350000D03*
X23000000Y-34350000D03*
X22500000Y-34350000D03*
X22000000Y-34350000D03*
X21500000Y-34350000D03*
X21000000Y-34350000D03*
X20500000Y-34350000D03*
X20000000Y-34350000D03*
D41*
X26000000Y-42000000D03*
%TD*%
D42*
%TO.C,R3*%
X55300000Y-51475000D03*
X55300000Y-53125000D03*
%TD*%
D43*
%TO.C,J4*%
X42420000Y-12525000D03*
X42420000Y-7475000D03*
X44960000Y-12525000D03*
X44960000Y-7475000D03*
X47500000Y-12525000D03*
X47500000Y-7475000D03*
X50040000Y-12525000D03*
X50040000Y-7475000D03*
X52580000Y-12525000D03*
X52580000Y-7475000D03*
%TD*%
D12*
%TO.C,R4*%
X42400000Y-18425000D03*
X42400000Y-16775000D03*
%TD*%
D19*
%TO.C,R40*%
X37200000Y-38210000D03*
X37200000Y-37190000D03*
%TD*%
D44*
%TO.C,F1*%
X46100000Y-82000000D03*
X48900000Y-82000000D03*
%TD*%
D11*
%TO.C,C31*%
X56825000Y-47200000D03*
X58375000Y-47200000D03*
%TD*%
D45*
%TO.C,C42*%
X77350000Y-47640000D03*
X77350000Y-48600000D03*
%TD*%
D15*
%TO.C,R27*%
X28825000Y-76000000D03*
X27175000Y-76000000D03*
%TD*%
D19*
%TO.C,R39*%
X38150000Y-38360000D03*
X38150000Y-37340000D03*
%TD*%
D42*
%TO.C,R42*%
X78300000Y-55225000D03*
X78300000Y-56875000D03*
%TD*%
D15*
%TO.C,R44*%
X63225000Y-36950000D03*
X61575000Y-36950000D03*
%TD*%
D16*
%TO.C,R18*%
X11175000Y-53500000D03*
X12825000Y-53500000D03*
%TD*%
D13*
%TO.C,C17*%
X14000000Y-43275000D03*
X14000000Y-41725000D03*
%TD*%
%TO.C,C23*%
X36000000Y-41275000D03*
X36000000Y-39725000D03*
%TD*%
D16*
%TO.C,R16*%
X11175000Y-47500000D03*
X12825000Y-47500000D03*
%TD*%
D46*
%TO.C,C55*%
X22450000Y-72750000D03*
X20550000Y-72750000D03*
%TD*%
D13*
%TO.C,C9*%
X17000000Y-31275000D03*
X17000000Y-29725000D03*
%TD*%
D35*
%TO.C,FB4*%
X75712500Y-50500000D03*
X77287500Y-50500000D03*
%TD*%
D14*
%TO.C,C47*%
X79050000Y-49000000D03*
X80950000Y-49000000D03*
%TD*%
D11*
%TO.C,C28*%
X21225000Y-30000000D03*
X22775000Y-30000000D03*
%TD*%
%TO.C,C37*%
X69725000Y-57600000D03*
X71275000Y-57600000D03*
%TD*%
D15*
%TO.C,R1*%
X26125000Y-26000000D03*
X24475000Y-26000000D03*
%TD*%
D13*
%TO.C,C4*%
X14000000Y-36275000D03*
X14000000Y-34725000D03*
%TD*%
D12*
%TO.C,R12*%
X82500000Y-43325000D03*
X82500000Y-41675000D03*
%TD*%
D13*
%TO.C,C8*%
X19000000Y-32275000D03*
X19000000Y-30725000D03*
%TD*%
D23*
%TO.C,C52*%
X85175000Y-59000000D03*
X83625000Y-59000000D03*
%TD*%
D14*
%TO.C,C64*%
X11050000Y-64000000D03*
X12950000Y-64000000D03*
%TD*%
D23*
%TO.C,C44*%
X67675000Y-46550000D03*
X66125000Y-46550000D03*
%TD*%
D47*
%TO.C,U3*%
X69837500Y-39250000D03*
X69837500Y-39750000D03*
X69837500Y-40250000D03*
X69837500Y-40750000D03*
X69837500Y-41250000D03*
X69837500Y-41750000D03*
X69837500Y-42250000D03*
X69837500Y-42750000D03*
X69837500Y-43250000D03*
X69837500Y-43750000D03*
X69837500Y-44250000D03*
X69837500Y-44750000D03*
D48*
X71250000Y-46162500D03*
X71750000Y-46162500D03*
X72250000Y-46162500D03*
X72750000Y-46162500D03*
X73250000Y-46162500D03*
X73750000Y-46162500D03*
X74250000Y-46162500D03*
X74750000Y-46162500D03*
X75250000Y-46162500D03*
X75750000Y-46162500D03*
X76250000Y-46162500D03*
X76750000Y-46162500D03*
D47*
X78162500Y-44750000D03*
X78162500Y-44250000D03*
X78162500Y-43750000D03*
X78162500Y-43250000D03*
X78162500Y-42750000D03*
X78162500Y-42250000D03*
X78162500Y-41750000D03*
X78162500Y-41250000D03*
X78162500Y-40750000D03*
X78162500Y-40250000D03*
X78162500Y-39750000D03*
X78162500Y-39250000D03*
D48*
X76750000Y-37837500D03*
X76250000Y-37837500D03*
X75750000Y-37837500D03*
X75250000Y-37837500D03*
X74750000Y-37837500D03*
X74250000Y-37837500D03*
X73750000Y-37837500D03*
X73250000Y-37837500D03*
X72750000Y-37837500D03*
X72250000Y-37837500D03*
X71750000Y-37837500D03*
X71250000Y-37837500D03*
%TD*%
D13*
%TO.C,C1*%
X27300000Y-31775000D03*
X27300000Y-30225000D03*
%TD*%
D16*
%TO.C,R34*%
X60175000Y-64500000D03*
X61825000Y-64500000D03*
%TD*%
%TO.C,R26*%
X53675000Y-84800000D03*
X55325000Y-84800000D03*
%TD*%
D13*
%TO.C,C15*%
X14000000Y-39775000D03*
X14000000Y-38225000D03*
%TD*%
D16*
%TO.C,R33*%
X37175000Y-77800000D03*
X38825000Y-77800000D03*
%TD*%
D15*
%TO.C,R30*%
X48325000Y-76000000D03*
X46675000Y-76000000D03*
%TD*%
D36*
%TO.C,L1*%
X28150000Y-72750000D03*
X30850000Y-72750000D03*
%TD*%
D11*
%TO.C,C69*%
X75725000Y-52500000D03*
X77275000Y-52500000D03*
%TD*%
D12*
%TO.C,R6*%
X46210000Y-19125000D03*
X46210000Y-17475000D03*
%TD*%
D15*
%TO.C,R29*%
X51325000Y-76000000D03*
X49675000Y-76000000D03*
%TD*%
D12*
%TO.C,R13*%
X80500000Y-46825000D03*
X80500000Y-45175000D03*
%TD*%
%TO.C,R15*%
X11500000Y-37825000D03*
X11500000Y-36175000D03*
%TD*%
D36*
%TO.C,L2*%
X50650000Y-72750000D03*
X53350000Y-72750000D03*
%TD*%
D11*
%TO.C,C43*%
X77225000Y-35500000D03*
X78775000Y-35500000D03*
%TD*%
D15*
%TO.C,R41*%
X76875000Y-54000000D03*
X75225000Y-54000000D03*
%TD*%
D17*
%TO.C,U5*%
X80862500Y-54050000D03*
X80862500Y-55000000D03*
X80862500Y-55950000D03*
X83137500Y-55950000D03*
X83137500Y-55000000D03*
X83137500Y-54050000D03*
%TD*%
D12*
%TO.C,R9*%
X39900000Y-17425000D03*
X39900000Y-15775000D03*
%TD*%
D46*
%TO.C,C57*%
X44950000Y-72750000D03*
X43050000Y-72750000D03*
%TD*%
D16*
%TO.C,R17*%
X11175000Y-51500000D03*
X12825000Y-51500000D03*
%TD*%
D12*
%TO.C,R8*%
X56350000Y-19125000D03*
X56350000Y-17475000D03*
%TD*%
D13*
%TO.C,C13*%
X16000000Y-38275000D03*
X16000000Y-36725000D03*
%TD*%
D33*
%TO.C,U8*%
X46550000Y-72250000D03*
X46550000Y-72750000D03*
X46550000Y-73250000D03*
X46550000Y-73750000D03*
X48450000Y-73750000D03*
X48450000Y-73250000D03*
X48450000Y-72750000D03*
X48450000Y-72250000D03*
D34*
X47500000Y-73000000D03*
%TD*%
D11*
%TO.C,C6*%
X12225000Y-45500000D03*
X13775000Y-45500000D03*
%TD*%
D38*
%TO.C,C70*%
X56470000Y-42050000D03*
X57430000Y-42050000D03*
%TD*%
D12*
%TO.C,R21*%
X13500000Y-59825000D03*
X13500000Y-58175000D03*
%TD*%
D14*
%TO.C,C56*%
X33050000Y-72750000D03*
X34950000Y-72750000D03*
%TD*%
D15*
%TO.C,R28*%
X25825000Y-76000000D03*
X24175000Y-76000000D03*
%TD*%
D11*
%TO.C,C49*%
X11225000Y-49500000D03*
X12775000Y-49500000D03*
%TD*%
D42*
%TO.C,R2*%
X55300000Y-48475000D03*
X55300000Y-50125000D03*
%TD*%
D37*
%TO.C,C73*%
X41000000Y-34480000D03*
X41000000Y-33520000D03*
%TD*%
D13*
%TO.C,C51*%
X20500000Y-58775000D03*
X20500000Y-57225000D03*
%TD*%
D46*
%TO.C,C59*%
X66950000Y-72750000D03*
X65050000Y-72750000D03*
%TD*%
D13*
%TO.C,C14*%
X16000000Y-41775000D03*
X16000000Y-40225000D03*
%TD*%
D24*
%TO.C,J1*%
X7040000Y-46315000D03*
D25*
X7040000Y-44025000D03*
X7040000Y-41735000D03*
X7040000Y-39445000D03*
X7040000Y-37155000D03*
X5060000Y-47460000D03*
X5060000Y-45170000D03*
X5060000Y-42880000D03*
X5060000Y-40590000D03*
X5060000Y-38300000D03*
X3080000Y-46315000D03*
X3080000Y-44025000D03*
X3080000Y-41735000D03*
X3080000Y-39445000D03*
X3080000Y-37155000D03*
D26*
X5060000Y-29500000D03*
X5060000Y-54500000D03*
%TD*%
D46*
%TO.C,C40*%
X45350000Y-31300000D03*
X43450000Y-31300000D03*
%TD*%
D11*
%TO.C,C7*%
X14725000Y-49500000D03*
X16275000Y-49500000D03*
%TD*%
D12*
%TO.C,R10*%
X75700000Y-34625000D03*
X75700000Y-32975000D03*
%TD*%
%TO.C,R43*%
X57000000Y-50325000D03*
X57000000Y-48675000D03*
%TD*%
D11*
%TO.C,C33*%
X56425000Y-54800000D03*
X57975000Y-54800000D03*
%TD*%
D13*
%TO.C,C45*%
X80500000Y-43275000D03*
X80500000Y-41725000D03*
%TD*%
M02*
