%TF.GenerationSoftware,KiCad,Pcbnew,7.0.11+dfsg-1build4*%
%TF.CreationDate,2026-09-29T13:17:36+00:00*%
%TF.ProjectId,amiga_scandoubler_v030wip,616d6967-615f-4736-9361-6e646f75626c,rev?*%
%TF.SameCoordinates,Original*%
%TF.FileFunction,Copper,L2,Inr*%
%TF.FilePolarity,Positive*%
%FSLAX46Y46*%
G04 Gerber Fmt 4.6, Leading zero omitted, Abs format (unit mm)*
G04 Created by KiCad (PCBNEW 7.0.11+dfsg-1build4) date 2026-09-29 13:17:36*
%MOMM*%
%LPD*%
G01*
G04 APERTURE LIST*
%TA.AperFunction,ComponentPad*%
%ADD10O,1.000000X2.100000*%
%TD*%
%TA.AperFunction,ComponentPad*%
%ADD11O,1.000000X1.600000*%
%TD*%
%TA.AperFunction,ComponentPad*%
%ADD12C,4.050000*%
%TD*%
%TA.AperFunction,ViaPad*%
%ADD13C,0.600000*%
%TD*%
%TA.AperFunction,ViaPad*%
%ADD14C,0.550000*%
%TD*%
%TA.AperFunction,ViaPad*%
%ADD15C,0.500000*%
%TD*%
G04 APERTURE END LIST*
D10*
%TO.N,GND*%
%TO.C,J3*%
X43180000Y-88220000D03*
D11*
X43180000Y-92400000D03*
D10*
X51820000Y-88220000D03*
D11*
X51820000Y-92400000D03*
%TD*%
D12*
%TO.N,GND*%
%TO.C,J1*%
X5000000Y-29505000D03*
X5000000Y-54495000D03*
%TD*%
%TO.N,GND*%
%TO.C,J2*%
X90000000Y-54495000D03*
X90000000Y-29505000D03*
%TD*%
D13*
%TO.N,GIN_1*%
X12775000Y-50500000D03*
X19750000Y-36500000D03*
D14*
%TO.N,RIN_3*%
X16950000Y-39750000D03*
X13950000Y-37100000D03*
%TO.N,RIN_2*%
X12800000Y-41150000D03*
X16950000Y-40600000D03*
%TO.N,RIN_1*%
X16950000Y-41450000D03*
X12950000Y-33700000D03*
%TO.N,BIN_3*%
X17250000Y-43500000D03*
X11200000Y-46500000D03*
%TO.N,BIN_1*%
X17050000Y-44500000D03*
X14900000Y-50500000D03*
%TO.N,GIN_4*%
X22000000Y-35650000D03*
X19800000Y-29600000D03*
%TO.N,GIN_3*%
X20200000Y-28850000D03*
X21000000Y-33000000D03*
%TO.N,SOGIN_2*%
X20100000Y-33100000D03*
X15800000Y-31250000D03*
%TO.N,ADC_VS*%
X20900000Y-55050000D03*
X53200000Y-45960000D03*
X16750000Y-48500000D03*
X18700000Y-52850000D03*
%TO.N,ADC_HS*%
X18800000Y-53750000D03*
X17500000Y-48900000D03*
X20900000Y-55850000D03*
X53200000Y-48050000D03*
%TO.N,ADC_CLK*%
X43950000Y-45000000D03*
X20900000Y-50850000D03*
%TO.N,ADC_PWDN*%
X37164000Y-38964000D03*
X41800000Y-43600000D03*
X32450000Y-38550000D03*
%TO.N,ADC_RESET_N*%
X42550000Y-43500000D03*
X32450000Y-37800000D03*
X38158000Y-39108000D03*
D13*
%TO.N,GND*%
X24000000Y-43000000D03*
D15*
X17150000Y-46450000D03*
D13*
X32000000Y-32950000D03*
X23400000Y-74100000D03*
X46675000Y-77000000D03*
X15000000Y-36725000D03*
X36550000Y-33369999D03*
X24000000Y-30725000D03*
X80500000Y-40725000D03*
X48750000Y-16525000D03*
D14*
X75300000Y-40800000D03*
D13*
X52000000Y-44000000D03*
X5650000Y-36130000D03*
X81950000Y-49000000D03*
X51400000Y-86300000D03*
X52000000Y-40000000D03*
X11825000Y-50500000D03*
X19000000Y-29725000D03*
D14*
X19500000Y-57225000D03*
D13*
X38350000Y-36200000D03*
X68600000Y-71200000D03*
X44960000Y-9475000D03*
X80950000Y-50350000D03*
X75550000Y-36637499D03*
X19800000Y-72750000D03*
X28775000Y-31000000D03*
X15000000Y-43925000D03*
X11300000Y-35375000D03*
D14*
X14662500Y-59000000D03*
D13*
X24000000Y-41500000D03*
D14*
X87800000Y-42760000D03*
D13*
X79962499Y-44350000D03*
D14*
X89650000Y-45040000D03*
D13*
X56100000Y-49225000D03*
X42420000Y-9475000D03*
D14*
X79662500Y-54800000D03*
D13*
X7050000Y-47870000D03*
X40175000Y-85800000D03*
X27000000Y-43000000D03*
X42300000Y-72750000D03*
D14*
X72000000Y-44850000D03*
D13*
X47500000Y-9475000D03*
X43625000Y-34100000D03*
D14*
X55300000Y-54000000D03*
D13*
X68400000Y-74500000D03*
X14950000Y-25850000D03*
X25500000Y-40000000D03*
X42400000Y-15825000D03*
X15200000Y-28725000D03*
X82625000Y-37300000D03*
D14*
X82825000Y-58800000D03*
D13*
X42000000Y-46275000D03*
X15950000Y-48500000D03*
X45900000Y-74100000D03*
X23600000Y-71200000D03*
X24000000Y-40000000D03*
X35300000Y-72750000D03*
X91600000Y-38200000D03*
X80300000Y-72750000D03*
D14*
X12950000Y-62700000D03*
D13*
X71400000Y-39200000D03*
X39700000Y-84000000D03*
D14*
X61900000Y-54800000D03*
D13*
X43000000Y-47775000D03*
X52000000Y-42000000D03*
X21775000Y-27000000D03*
X55550000Y-36300000D03*
X46100000Y-71200000D03*
X89350000Y-36130000D03*
X14950000Y-46200000D03*
X25500000Y-41500000D03*
X75700000Y-32075000D03*
X7900000Y-38960000D03*
X35000000Y-39725000D03*
X66962000Y-54950000D03*
D14*
X15975000Y-62900000D03*
D13*
X43600000Y-86300000D03*
X39775000Y-24900000D03*
X11000000Y-39725000D03*
X59225000Y-47200000D03*
X58000000Y-42050000D03*
X71275000Y-58500000D03*
X50040000Y-9475000D03*
D14*
X76900000Y-44000000D03*
X76900000Y-42250000D03*
D13*
X81362500Y-41150000D03*
X17600000Y-54725000D03*
D14*
X26100000Y-53900000D03*
D13*
X27000000Y-40000000D03*
X61575000Y-36000000D03*
X87100000Y-47070000D03*
X55325000Y-85800000D03*
X42200000Y-27950000D03*
D14*
X57975000Y-55900000D03*
D13*
X15000000Y-33225000D03*
X50000000Y-40000000D03*
D14*
X42100000Y-38125000D03*
D13*
X57800000Y-72750000D03*
D14*
X27600000Y-53900000D03*
D13*
X25500000Y-43000000D03*
X3400000Y-41240000D03*
D14*
X36700000Y-48825000D03*
X61200000Y-53300000D03*
D13*
X64800000Y-72750000D03*
X78125000Y-52500000D03*
X27000000Y-41500000D03*
X24175000Y-77000000D03*
X35000000Y-36225000D03*
X32450000Y-27350000D03*
X24000000Y-32950000D03*
X16950000Y-36800000D03*
X28800000Y-33150000D03*
X45400000Y-50875000D03*
X68637500Y-44950000D03*
X29275000Y-26900000D03*
X41000000Y-32869999D03*
X15000000Y-40425000D03*
D14*
X36200000Y-46900000D03*
D13*
X48000000Y-40000000D03*
X79362500Y-44750000D03*
X79575000Y-35300000D03*
D14*
X17900000Y-52550000D03*
D13*
X54800000Y-82000000D03*
X48000000Y-42000000D03*
X50000000Y-42000000D03*
X69175000Y-77000000D03*
X48000000Y-44000000D03*
X50000000Y-44000000D03*
D14*
X35300000Y-43550000D03*
%TO.N,I2C_SCL*%
X39021000Y-38871000D03*
X43300000Y-43150000D03*
X32299999Y-36950000D03*
%TO.N,I2C_SDA*%
X39877000Y-38427000D03*
X44050000Y-42600000D03*
X31600000Y-36250000D03*
%TO.N,V_IN_3V3*%
X17500000Y-56450000D03*
X27650000Y-46300000D03*
%TO.N,REF_27M*%
X30400000Y-35600000D03*
X37750000Y-35600000D03*
X40200000Y-34000000D03*
X53960000Y-41900000D03*
%TO.N,H_IN_3V3*%
X18750000Y-57350000D03*
X29450000Y-45700000D03*
D13*
%TO.N,ADC_1V9A*%
X13924999Y-47500000D03*
X15000000Y-41775000D03*
D14*
X14425000Y-65300000D03*
D13*
X17087500Y-53500000D03*
X15000000Y-38275000D03*
%TO.N,ADC_3V3A*%
X15000000Y-45275000D03*
X13000000Y-28412499D03*
X20225000Y-32000000D03*
D14*
%TO.N,3V3*%
X35100000Y-47400000D03*
X46050000Y-43000000D03*
D13*
X40050000Y-35750000D03*
D14*
X13300000Y-57375000D03*
D13*
X41700000Y-34480000D03*
X78300000Y-57825000D03*
X41000000Y-43725000D03*
D14*
X19400000Y-52550000D03*
D13*
X35000000Y-41275000D03*
X13000000Y-31587500D03*
X42420000Y-14525000D03*
X67038000Y-53050000D03*
X38225000Y-24900000D03*
X46210000Y-16525000D03*
X37200000Y-36200000D03*
X38825000Y-76600000D03*
X35850000Y-34980000D03*
X39900000Y-14825000D03*
D14*
X46040000Y-45200000D03*
D13*
X75225000Y-54950000D03*
D14*
X19500000Y-58775000D03*
D13*
X19700000Y-56275000D03*
D14*
X16125000Y-56000000D03*
X36700000Y-50375000D03*
D13*
X69725000Y-58500000D03*
D14*
X59625000Y-55900000D03*
D13*
X51290000Y-16525000D03*
D14*
X85975000Y-58800000D03*
D13*
X39900000Y-26050000D03*
X56350000Y-16525000D03*
D14*
X45600000Y-47600000D03*
X50200000Y-45950000D03*
D13*
X74912500Y-50300000D03*
X55950000Y-42000000D03*
D14*
X56425000Y-55900000D03*
X28350000Y-54200000D03*
D13*
X33049999Y-75200000D03*
X54200000Y-36100000D03*
X61825000Y-63300000D03*
X37800000Y-27950000D03*
X45175000Y-34100000D03*
%TO.N,1V9*%
X32799999Y-33087500D03*
X35000000Y-37775000D03*
X54550000Y-72750000D03*
D14*
X26100000Y-46000000D03*
D13*
X13912500Y-53500000D03*
%TO.N,ADC_1V9PLL*%
X31000000Y-30200000D03*
D14*
X30900000Y-32000000D03*
D13*
X33000000Y-29912499D03*
X27800000Y-36000000D03*
D14*
%TO.N,DAC_PSAVE_N*%
X75700000Y-39100000D03*
X46040000Y-42100000D03*
X63950000Y-37900000D03*
%TO.N,H_OUT_RAW*%
X61850000Y-44900000D03*
X79936000Y-52536000D03*
X80662500Y-53250000D03*
%TO.N,V_OUT_RAW*%
X80662500Y-56750000D03*
X61150000Y-45600000D03*
X78293000Y-54393000D03*
D13*
%TO.N,POWER_GOOD*%
X60175000Y-65700000D03*
D14*
X46040000Y-44450000D03*
D13*
X49000000Y-71000000D03*
X71500000Y-71000000D03*
D14*
%TO.N,DAC_R0*%
X46040000Y-38950000D03*
X46040000Y-29000000D03*
%TO.N,JTAGSEL_N*%
X56550000Y-45450000D03*
X42400000Y-19350000D03*
%TO.N,JTAG_TMS*%
X44960000Y-21060000D03*
X57100000Y-44900000D03*
%TO.N,JTAG_TCK*%
X47500000Y-22100000D03*
X58600000Y-44350000D03*
%TO.N,JTAG_TDI*%
X50040000Y-24090000D03*
X59150000Y-43800000D03*
%TO.N,JTAG_TDO*%
X59700000Y-43250000D03*
X52580000Y-24500000D03*
%TO.N,FPGA_RECONFIG_N*%
X60250000Y-42700000D03*
X55100000Y-24500000D03*
%TO.N,FPGA_DONE*%
X53960000Y-42900000D03*
X39900000Y-18600000D03*
%TO.N,1V2*%
X59900000Y-50750000D03*
D13*
X58000000Y-37225000D03*
X44000000Y-37225000D03*
X77050000Y-72750000D03*
X42000000Y-45425001D03*
X55900000Y-37550000D03*
X55950000Y-46750000D03*
%TO.N,DAC_3V3*%
X74800000Y-52500000D03*
X79425000Y-39300000D03*
D14*
X71200000Y-44500000D03*
D13*
X78075000Y-48300000D03*
X79500000Y-43275000D03*
D14*
%TO.N,B_OUT*%
X80300000Y-47625000D03*
X76762499Y-43250000D03*
%TO.N,G_OUT*%
X76362500Y-41650000D03*
X82300000Y-44125000D03*
D13*
%TO.N,R_OUT*%
X79375000Y-37300000D03*
X76162500Y-40450000D03*
%TO.N,DAC_COMP*%
X76762499Y-39750000D03*
D14*
X77550000Y-46750000D03*
%TO.N,V_IN*%
X8000000Y-44280000D03*
X11500000Y-58400000D03*
%TO.N,H_OUT*%
X87149999Y-42000000D03*
X83300000Y-46375000D03*
D13*
%TO.N,USB_VBUS*%
X44300000Y-82000000D03*
X49950000Y-86300000D03*
X45050000Y-86300000D03*
%TO.N,PG_3V3*%
X37175000Y-76600000D03*
X37175000Y-83000000D03*
X68300000Y-73400000D03*
X26500000Y-71000000D03*
%TD*%
%TA.AperFunction,Conductor*%
%TO.N,GND*%
G36*
X93959191Y-1018907D02*
G01*
X93995155Y-1068407D01*
X94000000Y-1099000D01*
X94000000Y-93901000D01*
X93981093Y-93959191D01*
X93931593Y-93995155D01*
X93901000Y-94000000D01*
X1099000Y-94000000D01*
X1040809Y-93981093D01*
X1004845Y-93931593D01*
X1000000Y-93901000D01*
X1000000Y-88750000D01*
X44029534Y-88750000D01*
X44049313Y-88900236D01*
X44107302Y-89040233D01*
X44199549Y-89160451D01*
X44319767Y-89252698D01*
X44459764Y-89310687D01*
X44572280Y-89325500D01*
X44572281Y-89325500D01*
X44647719Y-89325500D01*
X44647720Y-89325500D01*
X44760236Y-89310687D01*
X44900233Y-89252698D01*
X45020451Y-89160451D01*
X45112698Y-89040233D01*
X45170687Y-88900236D01*
X45190466Y-88750000D01*
X49809534Y-88750000D01*
X49829313Y-88900236D01*
X49887302Y-89040233D01*
X49979549Y-89160451D01*
X50099767Y-89252698D01*
X50239764Y-89310687D01*
X50352280Y-89325500D01*
X50352281Y-89325500D01*
X50427719Y-89325500D01*
X50427720Y-89325500D01*
X50540236Y-89310687D01*
X50680233Y-89252698D01*
X50800451Y-89160451D01*
X50892698Y-89040233D01*
X50950687Y-88900236D01*
X50970466Y-88750000D01*
X50950687Y-88599764D01*
X50892698Y-88459767D01*
X50800451Y-88339549D01*
X50680233Y-88247302D01*
X50540236Y-88189313D01*
X50540234Y-88189312D01*
X50540232Y-88189312D01*
X50427720Y-88174500D01*
X50352280Y-88174500D01*
X50352279Y-88174500D01*
X50239767Y-88189312D01*
X50239761Y-88189314D01*
X50099768Y-88247301D01*
X49979551Y-88339547D01*
X49979547Y-88339551D01*
X49887301Y-88459768D01*
X49829314Y-88599761D01*
X49829312Y-88599767D01*
X49809534Y-88749999D01*
X49809534Y-88750000D01*
X45190466Y-88750000D01*
X45170687Y-88599764D01*
X45112698Y-88459767D01*
X45020451Y-88339549D01*
X44900233Y-88247302D01*
X44760236Y-88189313D01*
X44760234Y-88189312D01*
X44760232Y-88189312D01*
X44647720Y-88174500D01*
X44572280Y-88174500D01*
X44572279Y-88174500D01*
X44459767Y-88189312D01*
X44459761Y-88189314D01*
X44319768Y-88247301D01*
X44199551Y-88339547D01*
X44199547Y-88339551D01*
X44107301Y-88459768D01*
X44049314Y-88599761D01*
X44049312Y-88599767D01*
X44029534Y-88749999D01*
X44029534Y-88750000D01*
X1000000Y-88750000D01*
X1000000Y-86300002D01*
X44544353Y-86300002D01*
X44564834Y-86442456D01*
X44624622Y-86573371D01*
X44624623Y-86573373D01*
X44718872Y-86682143D01*
X44718873Y-86682144D01*
X44839942Y-86759950D01*
X44839947Y-86759953D01*
X44946403Y-86791211D01*
X44978035Y-86800499D01*
X44978036Y-86800499D01*
X44978039Y-86800500D01*
X44978041Y-86800500D01*
X45121959Y-86800500D01*
X45121961Y-86800500D01*
X45260053Y-86759953D01*
X45381128Y-86682143D01*
X45475377Y-86573373D01*
X45535165Y-86442457D01*
X45555647Y-86300002D01*
X49444353Y-86300002D01*
X49464834Y-86442456D01*
X49524622Y-86573371D01*
X49524623Y-86573373D01*
X49618872Y-86682143D01*
X49618873Y-86682144D01*
X49739942Y-86759950D01*
X49739947Y-86759953D01*
X49846403Y-86791211D01*
X49878035Y-86800499D01*
X49878036Y-86800499D01*
X49878039Y-86800500D01*
X49878041Y-86800500D01*
X50021959Y-86800500D01*
X50021961Y-86800500D01*
X50160053Y-86759953D01*
X50281128Y-86682143D01*
X50375377Y-86573373D01*
X50435165Y-86442457D01*
X50455647Y-86300000D01*
X50435165Y-86157543D01*
X50375377Y-86026627D01*
X50281128Y-85917857D01*
X50281127Y-85917856D01*
X50281126Y-85917855D01*
X50160057Y-85840049D01*
X50160054Y-85840047D01*
X50160053Y-85840047D01*
X50160050Y-85840046D01*
X50021964Y-85799500D01*
X50021961Y-85799500D01*
X49878039Y-85799500D01*
X49878035Y-85799500D01*
X49739949Y-85840046D01*
X49739942Y-85840049D01*
X49618873Y-85917855D01*
X49524622Y-86026628D01*
X49464834Y-86157543D01*
X49444353Y-86299997D01*
X49444353Y-86300002D01*
X45555647Y-86300002D01*
X45555647Y-86300000D01*
X45535165Y-86157543D01*
X45475377Y-86026627D01*
X45381128Y-85917857D01*
X45381127Y-85917856D01*
X45381126Y-85917855D01*
X45260057Y-85840049D01*
X45260054Y-85840047D01*
X45260053Y-85840047D01*
X45260050Y-85840046D01*
X45121964Y-85799500D01*
X45121961Y-85799500D01*
X44978039Y-85799500D01*
X44978035Y-85799500D01*
X44839949Y-85840046D01*
X44839942Y-85840049D01*
X44718873Y-85917855D01*
X44624622Y-86026628D01*
X44564834Y-86157543D01*
X44544353Y-86299997D01*
X44544353Y-86300002D01*
X1000000Y-86300002D01*
X1000000Y-83000002D01*
X36669353Y-83000002D01*
X36689834Y-83142456D01*
X36749622Y-83273371D01*
X36749623Y-83273373D01*
X36843872Y-83382143D01*
X36843873Y-83382144D01*
X36964942Y-83459950D01*
X36964947Y-83459953D01*
X37071403Y-83491211D01*
X37103035Y-83500499D01*
X37103036Y-83500499D01*
X37103039Y-83500500D01*
X37103041Y-83500500D01*
X37246959Y-83500500D01*
X37246961Y-83500500D01*
X37385053Y-83459953D01*
X37506128Y-83382143D01*
X37600377Y-83273373D01*
X37660165Y-83142457D01*
X37680647Y-83000000D01*
X37660165Y-82857543D01*
X37600377Y-82726627D01*
X37506128Y-82617857D01*
X37506127Y-82617856D01*
X37506126Y-82617855D01*
X37385057Y-82540049D01*
X37385054Y-82540047D01*
X37385053Y-82540047D01*
X37385050Y-82540046D01*
X37246964Y-82499500D01*
X37246961Y-82499500D01*
X37103039Y-82499500D01*
X37103035Y-82499500D01*
X36964949Y-82540046D01*
X36964942Y-82540049D01*
X36843873Y-82617855D01*
X36749622Y-82726628D01*
X36689834Y-82857543D01*
X36669353Y-82999997D01*
X36669353Y-83000002D01*
X1000000Y-83000002D01*
X1000000Y-82000002D01*
X43794353Y-82000002D01*
X43814834Y-82142456D01*
X43874622Y-82273371D01*
X43874623Y-82273373D01*
X43968872Y-82382143D01*
X43968873Y-82382144D01*
X44089942Y-82459950D01*
X44089947Y-82459953D01*
X44196403Y-82491211D01*
X44228035Y-82500499D01*
X44228036Y-82500499D01*
X44228039Y-82500500D01*
X44228041Y-82500500D01*
X44371959Y-82500500D01*
X44371961Y-82500500D01*
X44510053Y-82459953D01*
X44631128Y-82382143D01*
X44725377Y-82273373D01*
X44785165Y-82142457D01*
X44805647Y-82000000D01*
X44785165Y-81857543D01*
X44725377Y-81726627D01*
X44631128Y-81617857D01*
X44631127Y-81617856D01*
X44631126Y-81617855D01*
X44510057Y-81540049D01*
X44510054Y-81540047D01*
X44510053Y-81540047D01*
X44510050Y-81540046D01*
X44371964Y-81499500D01*
X44371961Y-81499500D01*
X44228039Y-81499500D01*
X44228035Y-81499500D01*
X44089949Y-81540046D01*
X44089942Y-81540049D01*
X43968873Y-81617855D01*
X43874622Y-81726628D01*
X43814834Y-81857543D01*
X43794353Y-81999997D01*
X43794353Y-82000002D01*
X1000000Y-82000002D01*
X1000000Y-76600002D01*
X36669353Y-76600002D01*
X36689834Y-76742456D01*
X36749622Y-76873371D01*
X36749623Y-76873373D01*
X36843872Y-76982143D01*
X36843873Y-76982144D01*
X36964942Y-77059950D01*
X36964947Y-77059953D01*
X37071403Y-77091211D01*
X37103035Y-77100499D01*
X37103036Y-77100499D01*
X37103039Y-77100500D01*
X37103041Y-77100500D01*
X37246959Y-77100500D01*
X37246961Y-77100500D01*
X37385053Y-77059953D01*
X37506128Y-76982143D01*
X37600377Y-76873373D01*
X37660165Y-76742457D01*
X37680647Y-76600002D01*
X38319353Y-76600002D01*
X38339834Y-76742456D01*
X38399622Y-76873371D01*
X38399623Y-76873373D01*
X38493872Y-76982143D01*
X38493873Y-76982144D01*
X38614942Y-77059950D01*
X38614947Y-77059953D01*
X38721403Y-77091211D01*
X38753035Y-77100499D01*
X38753036Y-77100499D01*
X38753039Y-77100500D01*
X38753041Y-77100500D01*
X38896959Y-77100500D01*
X38896961Y-77100500D01*
X39035053Y-77059953D01*
X39156128Y-76982143D01*
X39250377Y-76873373D01*
X39310165Y-76742457D01*
X39330647Y-76600000D01*
X39310165Y-76457543D01*
X39250377Y-76326627D01*
X39156128Y-76217857D01*
X39156127Y-76217856D01*
X39156126Y-76217855D01*
X39035057Y-76140049D01*
X39035054Y-76140047D01*
X39035053Y-76140047D01*
X39035050Y-76140046D01*
X38896964Y-76099500D01*
X38896961Y-76099500D01*
X38753039Y-76099500D01*
X38753035Y-76099500D01*
X38614949Y-76140046D01*
X38614942Y-76140049D01*
X38493873Y-76217855D01*
X38399622Y-76326628D01*
X38339834Y-76457543D01*
X38319353Y-76599997D01*
X38319353Y-76600002D01*
X37680647Y-76600002D01*
X37680647Y-76600000D01*
X37660165Y-76457543D01*
X37600377Y-76326627D01*
X37506128Y-76217857D01*
X37506127Y-76217856D01*
X37506126Y-76217855D01*
X37385057Y-76140049D01*
X37385054Y-76140047D01*
X37385053Y-76140047D01*
X37385050Y-76140046D01*
X37246964Y-76099500D01*
X37246961Y-76099500D01*
X37103039Y-76099500D01*
X37103035Y-76099500D01*
X36964949Y-76140046D01*
X36964942Y-76140049D01*
X36843873Y-76217855D01*
X36749622Y-76326628D01*
X36689834Y-76457543D01*
X36669353Y-76599997D01*
X36669353Y-76600002D01*
X1000000Y-76600002D01*
X1000000Y-75200002D01*
X32544352Y-75200002D01*
X32564833Y-75342456D01*
X32624621Y-75473371D01*
X32624622Y-75473373D01*
X32718871Y-75582143D01*
X32718872Y-75582144D01*
X32839941Y-75659950D01*
X32839946Y-75659953D01*
X32946402Y-75691211D01*
X32978034Y-75700499D01*
X32978035Y-75700499D01*
X32978038Y-75700500D01*
X32978040Y-75700500D01*
X33121958Y-75700500D01*
X33121960Y-75700500D01*
X33260052Y-75659953D01*
X33381127Y-75582143D01*
X33475376Y-75473373D01*
X33535164Y-75342457D01*
X33555646Y-75200000D01*
X33535164Y-75057543D01*
X33475376Y-74926627D01*
X33381127Y-74817857D01*
X33381126Y-74817856D01*
X33381125Y-74817855D01*
X33260056Y-74740049D01*
X33260053Y-74740047D01*
X33260052Y-74740047D01*
X33260049Y-74740046D01*
X33121963Y-74699500D01*
X33121960Y-74699500D01*
X32978038Y-74699500D01*
X32978034Y-74699500D01*
X32839948Y-74740046D01*
X32839941Y-74740049D01*
X32718872Y-74817855D01*
X32624621Y-74926628D01*
X32564833Y-75057543D01*
X32544352Y-75199997D01*
X32544352Y-75200002D01*
X1000000Y-75200002D01*
X1000000Y-73400002D01*
X67794353Y-73400002D01*
X67814834Y-73542456D01*
X67874622Y-73673371D01*
X67874623Y-73673373D01*
X67968872Y-73782143D01*
X67968873Y-73782144D01*
X68089942Y-73859950D01*
X68089947Y-73859953D01*
X68196403Y-73891211D01*
X68228035Y-73900499D01*
X68228036Y-73900499D01*
X68228039Y-73900500D01*
X68228041Y-73900500D01*
X68371959Y-73900500D01*
X68371961Y-73900500D01*
X68510053Y-73859953D01*
X68631128Y-73782143D01*
X68725377Y-73673373D01*
X68785165Y-73542457D01*
X68805647Y-73400000D01*
X68785165Y-73257543D01*
X68725377Y-73126627D01*
X68631128Y-73017857D01*
X68631127Y-73017856D01*
X68631126Y-73017855D01*
X68510057Y-72940049D01*
X68510054Y-72940047D01*
X68510053Y-72940047D01*
X68510050Y-72940046D01*
X68371964Y-72899500D01*
X68371961Y-72899500D01*
X68228039Y-72899500D01*
X68228035Y-72899500D01*
X68089949Y-72940046D01*
X68089942Y-72940049D01*
X67968873Y-73017855D01*
X67874622Y-73126628D01*
X67814834Y-73257543D01*
X67794353Y-73399997D01*
X67794353Y-73400002D01*
X1000000Y-73400002D01*
X1000000Y-72750002D01*
X54044353Y-72750002D01*
X54064834Y-72892456D01*
X54122103Y-73017855D01*
X54124623Y-73023373D01*
X54214093Y-73126628D01*
X54218873Y-73132144D01*
X54339942Y-73209950D01*
X54339947Y-73209953D01*
X54446403Y-73241211D01*
X54478035Y-73250499D01*
X54478036Y-73250499D01*
X54478039Y-73250500D01*
X54478041Y-73250500D01*
X54621959Y-73250500D01*
X54621961Y-73250500D01*
X54760053Y-73209953D01*
X54881128Y-73132143D01*
X54975377Y-73023373D01*
X55035165Y-72892457D01*
X55055647Y-72750002D01*
X76544353Y-72750002D01*
X76564834Y-72892456D01*
X76622103Y-73017855D01*
X76624623Y-73023373D01*
X76714093Y-73126628D01*
X76718873Y-73132144D01*
X76839942Y-73209950D01*
X76839947Y-73209953D01*
X76946403Y-73241211D01*
X76978035Y-73250499D01*
X76978036Y-73250499D01*
X76978039Y-73250500D01*
X76978041Y-73250500D01*
X77121959Y-73250500D01*
X77121961Y-73250500D01*
X77260053Y-73209953D01*
X77381128Y-73132143D01*
X77475377Y-73023373D01*
X77535165Y-72892457D01*
X77555647Y-72750000D01*
X77535165Y-72607543D01*
X77475377Y-72476627D01*
X77381128Y-72367857D01*
X77381127Y-72367856D01*
X77381126Y-72367855D01*
X77260057Y-72290049D01*
X77260054Y-72290047D01*
X77260053Y-72290047D01*
X77260050Y-72290046D01*
X77121964Y-72249500D01*
X77121961Y-72249500D01*
X76978039Y-72249500D01*
X76978035Y-72249500D01*
X76839949Y-72290046D01*
X76839942Y-72290049D01*
X76718873Y-72367855D01*
X76624622Y-72476628D01*
X76564834Y-72607543D01*
X76544353Y-72749997D01*
X76544353Y-72750002D01*
X55055647Y-72750002D01*
X55055647Y-72750000D01*
X55035165Y-72607543D01*
X54975377Y-72476627D01*
X54881128Y-72367857D01*
X54881127Y-72367856D01*
X54881126Y-72367855D01*
X54760057Y-72290049D01*
X54760054Y-72290047D01*
X54760053Y-72290047D01*
X54760050Y-72290046D01*
X54621964Y-72249500D01*
X54621961Y-72249500D01*
X54478039Y-72249500D01*
X54478035Y-72249500D01*
X54339949Y-72290046D01*
X54339942Y-72290049D01*
X54218873Y-72367855D01*
X54124622Y-72476628D01*
X54064834Y-72607543D01*
X54044353Y-72749997D01*
X54044353Y-72750002D01*
X1000000Y-72750002D01*
X1000000Y-71000002D01*
X25994353Y-71000002D01*
X26014834Y-71142456D01*
X26074622Y-71273371D01*
X26074623Y-71273373D01*
X26168872Y-71382143D01*
X26168873Y-71382144D01*
X26289942Y-71459950D01*
X26289947Y-71459953D01*
X26396403Y-71491211D01*
X26428035Y-71500499D01*
X26428036Y-71500499D01*
X26428039Y-71500500D01*
X26428041Y-71500500D01*
X26571959Y-71500500D01*
X26571961Y-71500500D01*
X26710053Y-71459953D01*
X26831128Y-71382143D01*
X26925377Y-71273373D01*
X26985165Y-71142457D01*
X27005647Y-71000002D01*
X48494353Y-71000002D01*
X48514834Y-71142456D01*
X48574622Y-71273371D01*
X48574623Y-71273373D01*
X48668872Y-71382143D01*
X48668873Y-71382144D01*
X48789942Y-71459950D01*
X48789947Y-71459953D01*
X48896403Y-71491211D01*
X48928035Y-71500499D01*
X48928036Y-71500499D01*
X48928039Y-71500500D01*
X48928041Y-71500500D01*
X49071959Y-71500500D01*
X49071961Y-71500500D01*
X49210053Y-71459953D01*
X49331128Y-71382143D01*
X49425377Y-71273373D01*
X49485165Y-71142457D01*
X49505647Y-71000002D01*
X70994353Y-71000002D01*
X71014834Y-71142456D01*
X71074622Y-71273371D01*
X71074623Y-71273373D01*
X71168872Y-71382143D01*
X71168873Y-71382144D01*
X71289942Y-71459950D01*
X71289947Y-71459953D01*
X71396403Y-71491211D01*
X71428035Y-71500499D01*
X71428036Y-71500499D01*
X71428039Y-71500500D01*
X71428041Y-71500500D01*
X71571959Y-71500500D01*
X71571961Y-71500500D01*
X71710053Y-71459953D01*
X71831128Y-71382143D01*
X71925377Y-71273373D01*
X71985165Y-71142457D01*
X72005647Y-71000000D01*
X71985165Y-70857543D01*
X71925377Y-70726627D01*
X71831128Y-70617857D01*
X71831127Y-70617856D01*
X71831126Y-70617855D01*
X71710057Y-70540049D01*
X71710054Y-70540047D01*
X71710053Y-70540047D01*
X71710050Y-70540046D01*
X71571964Y-70499500D01*
X71571961Y-70499500D01*
X71428039Y-70499500D01*
X71428035Y-70499500D01*
X71289949Y-70540046D01*
X71289942Y-70540049D01*
X71168873Y-70617855D01*
X71074622Y-70726628D01*
X71014834Y-70857543D01*
X70994353Y-70999997D01*
X70994353Y-71000002D01*
X49505647Y-71000002D01*
X49505647Y-71000000D01*
X49485165Y-70857543D01*
X49425377Y-70726627D01*
X49331128Y-70617857D01*
X49331127Y-70617856D01*
X49331126Y-70617855D01*
X49210057Y-70540049D01*
X49210054Y-70540047D01*
X49210053Y-70540047D01*
X49210050Y-70540046D01*
X49071964Y-70499500D01*
X49071961Y-70499500D01*
X48928039Y-70499500D01*
X48928035Y-70499500D01*
X48789949Y-70540046D01*
X48789942Y-70540049D01*
X48668873Y-70617855D01*
X48574622Y-70726628D01*
X48514834Y-70857543D01*
X48494353Y-70999997D01*
X48494353Y-71000002D01*
X27005647Y-71000002D01*
X27005647Y-71000000D01*
X26985165Y-70857543D01*
X26925377Y-70726627D01*
X26831128Y-70617857D01*
X26831127Y-70617856D01*
X26831126Y-70617855D01*
X26710057Y-70540049D01*
X26710054Y-70540047D01*
X26710053Y-70540047D01*
X26710050Y-70540046D01*
X26571964Y-70499500D01*
X26571961Y-70499500D01*
X26428039Y-70499500D01*
X26428035Y-70499500D01*
X26289949Y-70540046D01*
X26289942Y-70540049D01*
X26168873Y-70617855D01*
X26074622Y-70726628D01*
X26014834Y-70857543D01*
X25994353Y-70999997D01*
X25994353Y-71000002D01*
X1000000Y-71000002D01*
X1000000Y-65300002D01*
X13944610Y-65300002D01*
X13964067Y-65435337D01*
X13964069Y-65435345D01*
X14020868Y-65559715D01*
X14020869Y-65559716D01*
X14020870Y-65559718D01*
X14110411Y-65663055D01*
X14225439Y-65736978D01*
X14356633Y-65775500D01*
X14356634Y-65775500D01*
X14493366Y-65775500D01*
X14493367Y-65775500D01*
X14624561Y-65736978D01*
X14682098Y-65700002D01*
X59669353Y-65700002D01*
X59689834Y-65842456D01*
X59749622Y-65973371D01*
X59749623Y-65973373D01*
X59843872Y-66082143D01*
X59843873Y-66082144D01*
X59964942Y-66159950D01*
X59964947Y-66159953D01*
X60071403Y-66191211D01*
X60103035Y-66200499D01*
X60103036Y-66200499D01*
X60103039Y-66200500D01*
X60103041Y-66200500D01*
X60246959Y-66200500D01*
X60246961Y-66200500D01*
X60385053Y-66159953D01*
X60506128Y-66082143D01*
X60600377Y-65973373D01*
X60660165Y-65842457D01*
X60669792Y-65775499D01*
X60680647Y-65700002D01*
X60680647Y-65699997D01*
X60660165Y-65557543D01*
X60604357Y-65435342D01*
X60600377Y-65426627D01*
X60506128Y-65317857D01*
X60506127Y-65317856D01*
X60506126Y-65317855D01*
X60385057Y-65240049D01*
X60385054Y-65240047D01*
X60385053Y-65240047D01*
X60385050Y-65240046D01*
X60246964Y-65199500D01*
X60246961Y-65199500D01*
X60103039Y-65199500D01*
X60103035Y-65199500D01*
X59964949Y-65240046D01*
X59964942Y-65240049D01*
X59843873Y-65317855D01*
X59749622Y-65426628D01*
X59689834Y-65557543D01*
X59669353Y-65699997D01*
X59669353Y-65700002D01*
X14682098Y-65700002D01*
X14739589Y-65663055D01*
X14829130Y-65559718D01*
X14885931Y-65435342D01*
X14905390Y-65300000D01*
X14896770Y-65240049D01*
X14885932Y-65164662D01*
X14885930Y-65164654D01*
X14829131Y-65040284D01*
X14829130Y-65040283D01*
X14829130Y-65040282D01*
X14739589Y-64936945D01*
X14624561Y-64863022D01*
X14624558Y-64863021D01*
X14493368Y-64824500D01*
X14493367Y-64824500D01*
X14356633Y-64824500D01*
X14356631Y-64824500D01*
X14225441Y-64863021D01*
X14225439Y-64863021D01*
X14225439Y-64863022D01*
X14110411Y-64936945D01*
X14110410Y-64936945D01*
X14110410Y-64936946D01*
X14020868Y-65040284D01*
X13964069Y-65164654D01*
X13964067Y-65164662D01*
X13944610Y-65299997D01*
X13944610Y-65300002D01*
X1000000Y-65300002D01*
X1000000Y-63300002D01*
X61319353Y-63300002D01*
X61339834Y-63442456D01*
X61399622Y-63573371D01*
X61399623Y-63573373D01*
X61493872Y-63682143D01*
X61493873Y-63682144D01*
X61614942Y-63759950D01*
X61614947Y-63759953D01*
X61721403Y-63791211D01*
X61753035Y-63800499D01*
X61753036Y-63800499D01*
X61753039Y-63800500D01*
X61753041Y-63800500D01*
X61896959Y-63800500D01*
X61896961Y-63800500D01*
X62035053Y-63759953D01*
X62156128Y-63682143D01*
X62250377Y-63573373D01*
X62310165Y-63442457D01*
X62330647Y-63300000D01*
X62310165Y-63157543D01*
X62250377Y-63026627D01*
X62156128Y-62917857D01*
X62156127Y-62917856D01*
X62156126Y-62917855D01*
X62035057Y-62840049D01*
X62035054Y-62840047D01*
X62035053Y-62840047D01*
X62035050Y-62840046D01*
X61896964Y-62799500D01*
X61896961Y-62799500D01*
X61753039Y-62799500D01*
X61753035Y-62799500D01*
X61614949Y-62840046D01*
X61614942Y-62840049D01*
X61493873Y-62917855D01*
X61399622Y-63026628D01*
X61339834Y-63157543D01*
X61319353Y-63299997D01*
X61319353Y-63300002D01*
X1000000Y-63300002D01*
X1000000Y-58400002D01*
X11019610Y-58400002D01*
X11039067Y-58535337D01*
X11039069Y-58535345D01*
X11095868Y-58659715D01*
X11095869Y-58659716D01*
X11095870Y-58659718D01*
X11185411Y-58763055D01*
X11300439Y-58836978D01*
X11431633Y-58875500D01*
X11431634Y-58875500D01*
X11568366Y-58875500D01*
X11568367Y-58875500D01*
X11699561Y-58836978D01*
X11795999Y-58775002D01*
X19019610Y-58775002D01*
X19039067Y-58910337D01*
X19039069Y-58910345D01*
X19095868Y-59034715D01*
X19095869Y-59034716D01*
X19095870Y-59034718D01*
X19185411Y-59138055D01*
X19300439Y-59211978D01*
X19431633Y-59250500D01*
X19431634Y-59250500D01*
X19568366Y-59250500D01*
X19568367Y-59250500D01*
X19699561Y-59211978D01*
X19814589Y-59138055D01*
X19904130Y-59034718D01*
X19938276Y-58959950D01*
X19960930Y-58910345D01*
X19960932Y-58910337D01*
X19980390Y-58775002D01*
X19980390Y-58774997D01*
X19960932Y-58639662D01*
X19960930Y-58639654D01*
X19904131Y-58515284D01*
X19904130Y-58515283D01*
X19904130Y-58515282D01*
X19890890Y-58500002D01*
X69219353Y-58500002D01*
X69239834Y-58642456D01*
X69294910Y-58763053D01*
X69299623Y-58773373D01*
X69354737Y-58836978D01*
X69393873Y-58882144D01*
X69476651Y-58935342D01*
X69514947Y-58959953D01*
X69621403Y-58991211D01*
X69653035Y-59000499D01*
X69653036Y-59000499D01*
X69653039Y-59000500D01*
X69653041Y-59000500D01*
X69796959Y-59000500D01*
X69796961Y-59000500D01*
X69935053Y-58959953D01*
X70056128Y-58882143D01*
X70127303Y-58800002D01*
X85494610Y-58800002D01*
X85514067Y-58935337D01*
X85514069Y-58935345D01*
X85570868Y-59059715D01*
X85570869Y-59059716D01*
X85570870Y-59059718D01*
X85660411Y-59163055D01*
X85775439Y-59236978D01*
X85906633Y-59275500D01*
X85906634Y-59275500D01*
X86043366Y-59275500D01*
X86043367Y-59275500D01*
X86174561Y-59236978D01*
X86289589Y-59163055D01*
X86379130Y-59059718D01*
X86407530Y-58997530D01*
X86435930Y-58935345D01*
X86435932Y-58935337D01*
X86455390Y-58800002D01*
X86455390Y-58799997D01*
X86435932Y-58664662D01*
X86435930Y-58664654D01*
X86379131Y-58540284D01*
X86379130Y-58540283D01*
X86379130Y-58540282D01*
X86289589Y-58436945D01*
X86174561Y-58363022D01*
X86174558Y-58363021D01*
X86043368Y-58324500D01*
X86043367Y-58324500D01*
X85906633Y-58324500D01*
X85906631Y-58324500D01*
X85775441Y-58363021D01*
X85775439Y-58363021D01*
X85775439Y-58363022D01*
X85660411Y-58436945D01*
X85660410Y-58436945D01*
X85660410Y-58436946D01*
X85570868Y-58540284D01*
X85514069Y-58664654D01*
X85514067Y-58664662D01*
X85494610Y-58799997D01*
X85494610Y-58800002D01*
X70127303Y-58800002D01*
X70150377Y-58773373D01*
X70210165Y-58642457D01*
X70224855Y-58540284D01*
X70230647Y-58500002D01*
X70230647Y-58499997D01*
X70210165Y-58357543D01*
X70201250Y-58338022D01*
X70150377Y-58226627D01*
X70056128Y-58117857D01*
X70056127Y-58117856D01*
X70056126Y-58117855D01*
X69935057Y-58040049D01*
X69935054Y-58040047D01*
X69935053Y-58040047D01*
X69924492Y-58036946D01*
X69796964Y-57999500D01*
X69796961Y-57999500D01*
X69653039Y-57999500D01*
X69653035Y-57999500D01*
X69514949Y-58040046D01*
X69514942Y-58040049D01*
X69393873Y-58117855D01*
X69299622Y-58226628D01*
X69239834Y-58357543D01*
X69219353Y-58499997D01*
X69219353Y-58500002D01*
X19890890Y-58500002D01*
X19814589Y-58411945D01*
X19699561Y-58338022D01*
X19699558Y-58338021D01*
X19568368Y-58299500D01*
X19568367Y-58299500D01*
X19431633Y-58299500D01*
X19431631Y-58299500D01*
X19300441Y-58338021D01*
X19300439Y-58338021D01*
X19300439Y-58338022D01*
X19185411Y-58411945D01*
X19185410Y-58411945D01*
X19185410Y-58411946D01*
X19095868Y-58515284D01*
X19039069Y-58639654D01*
X19039067Y-58639662D01*
X19019610Y-58774997D01*
X19019610Y-58775002D01*
X11795999Y-58775002D01*
X11814589Y-58763055D01*
X11904130Y-58659718D01*
X11960931Y-58535342D01*
X11966012Y-58500002D01*
X11980390Y-58400002D01*
X11980390Y-58399997D01*
X11960932Y-58264662D01*
X11960930Y-58264654D01*
X11904131Y-58140284D01*
X11904130Y-58140283D01*
X11904130Y-58140282D01*
X11814589Y-58036945D01*
X11699561Y-57963022D01*
X11699558Y-57963021D01*
X11568368Y-57924500D01*
X11568367Y-57924500D01*
X11431633Y-57924500D01*
X11431631Y-57924500D01*
X11300441Y-57963021D01*
X11300439Y-57963021D01*
X11300439Y-57963022D01*
X11185411Y-58036945D01*
X11185410Y-58036945D01*
X11185410Y-58036946D01*
X11095868Y-58140284D01*
X11039069Y-58264654D01*
X11039067Y-58264662D01*
X11019610Y-58399997D01*
X11019610Y-58400002D01*
X1000000Y-58400002D01*
X1000000Y-57375002D01*
X12819610Y-57375002D01*
X12839067Y-57510337D01*
X12839069Y-57510345D01*
X12895868Y-57634715D01*
X12895869Y-57634716D01*
X12895870Y-57634718D01*
X12985411Y-57738055D01*
X13100439Y-57811978D01*
X13231633Y-57850500D01*
X13231634Y-57850500D01*
X13368366Y-57850500D01*
X13368367Y-57850500D01*
X13499561Y-57811978D01*
X13614589Y-57738055D01*
X13704130Y-57634718D01*
X13760931Y-57510342D01*
X13764525Y-57485345D01*
X13780390Y-57375002D01*
X13780390Y-57374997D01*
X13776796Y-57350002D01*
X18269610Y-57350002D01*
X18289067Y-57485337D01*
X18289069Y-57485345D01*
X18345868Y-57609715D01*
X18345869Y-57609716D01*
X18345870Y-57609718D01*
X18435411Y-57713055D01*
X18550439Y-57786978D01*
X18681633Y-57825500D01*
X18681634Y-57825500D01*
X18818366Y-57825500D01*
X18818367Y-57825500D01*
X18820063Y-57825002D01*
X77794353Y-57825002D01*
X77814834Y-57967456D01*
X77847986Y-58040047D01*
X77874623Y-58098373D01*
X77910939Y-58140284D01*
X77968873Y-58207144D01*
X78089942Y-58284950D01*
X78089947Y-58284953D01*
X78196403Y-58316211D01*
X78228035Y-58325499D01*
X78228036Y-58325499D01*
X78228039Y-58325500D01*
X78228041Y-58325500D01*
X78371959Y-58325500D01*
X78371961Y-58325500D01*
X78510053Y-58284953D01*
X78631128Y-58207143D01*
X78725377Y-58098373D01*
X78785165Y-57967457D01*
X78805575Y-57825500D01*
X78805647Y-57825002D01*
X78805647Y-57824997D01*
X78785165Y-57682543D01*
X78763322Y-57634715D01*
X78725377Y-57551627D01*
X78631128Y-57442857D01*
X78631127Y-57442856D01*
X78631126Y-57442855D01*
X78510057Y-57365049D01*
X78510054Y-57365047D01*
X78510053Y-57365047D01*
X78510050Y-57365046D01*
X78371964Y-57324500D01*
X78371961Y-57324500D01*
X78228039Y-57324500D01*
X78228035Y-57324500D01*
X78089949Y-57365046D01*
X78089942Y-57365049D01*
X77968873Y-57442855D01*
X77874622Y-57551628D01*
X77814834Y-57682543D01*
X77794353Y-57824997D01*
X77794353Y-57825002D01*
X18820063Y-57825002D01*
X18949561Y-57786978D01*
X19064589Y-57713055D01*
X19154130Y-57609718D01*
X19182530Y-57547530D01*
X19210930Y-57485345D01*
X19210932Y-57485337D01*
X19230390Y-57350002D01*
X19230390Y-57349997D01*
X19210932Y-57214662D01*
X19210930Y-57214654D01*
X19154131Y-57090284D01*
X19154130Y-57090283D01*
X19154130Y-57090282D01*
X19064589Y-56986945D01*
X18949561Y-56913022D01*
X18949558Y-56913021D01*
X18818368Y-56874500D01*
X18818367Y-56874500D01*
X18681633Y-56874500D01*
X18681631Y-56874500D01*
X18550441Y-56913021D01*
X18550439Y-56913021D01*
X18550439Y-56913022D01*
X18435411Y-56986945D01*
X18435410Y-56986945D01*
X18435410Y-56986946D01*
X18345868Y-57090284D01*
X18289069Y-57214654D01*
X18289067Y-57214662D01*
X18269610Y-57349997D01*
X18269610Y-57350002D01*
X13776796Y-57350002D01*
X13760932Y-57239662D01*
X13760930Y-57239654D01*
X13704131Y-57115284D01*
X13704130Y-57115283D01*
X13704130Y-57115282D01*
X13614589Y-57011945D01*
X13499561Y-56938022D01*
X13499558Y-56938021D01*
X13368368Y-56899500D01*
X13368367Y-56899500D01*
X13231633Y-56899500D01*
X13231631Y-56899500D01*
X13100441Y-56938021D01*
X13100439Y-56938021D01*
X13100439Y-56938022D01*
X12985411Y-57011945D01*
X12985410Y-57011945D01*
X12985410Y-57011946D01*
X12895868Y-57115284D01*
X12839069Y-57239654D01*
X12839067Y-57239662D01*
X12819610Y-57374997D01*
X12819610Y-57375002D01*
X1000000Y-57375002D01*
X1000000Y-56000002D01*
X15644610Y-56000002D01*
X15664067Y-56135337D01*
X15664069Y-56135345D01*
X15720868Y-56259715D01*
X15720869Y-56259716D01*
X15720870Y-56259718D01*
X15810411Y-56363055D01*
X15925439Y-56436978D01*
X16056633Y-56475500D01*
X16056634Y-56475500D01*
X16193366Y-56475500D01*
X16193367Y-56475500D01*
X16280205Y-56450002D01*
X17019610Y-56450002D01*
X17039067Y-56585337D01*
X17039069Y-56585345D01*
X17095868Y-56709715D01*
X17095869Y-56709716D01*
X17095870Y-56709718D01*
X17185411Y-56813055D01*
X17300439Y-56886978D01*
X17431633Y-56925500D01*
X17431634Y-56925500D01*
X17568366Y-56925500D01*
X17568367Y-56925500D01*
X17699561Y-56886978D01*
X17814589Y-56813055D01*
X17904130Y-56709718D01*
X17960931Y-56585342D01*
X17960932Y-56585337D01*
X17980390Y-56450002D01*
X17980390Y-56449997D01*
X17960932Y-56314662D01*
X17960930Y-56314654D01*
X17942821Y-56275002D01*
X19194353Y-56275002D01*
X19214834Y-56417456D01*
X19248093Y-56490282D01*
X19274623Y-56548373D01*
X19368872Y-56657143D01*
X19368873Y-56657144D01*
X19450680Y-56709718D01*
X19489947Y-56734953D01*
X19596403Y-56766211D01*
X19628035Y-56775499D01*
X19628036Y-56775499D01*
X19628039Y-56775500D01*
X19628041Y-56775500D01*
X19771959Y-56775500D01*
X19771961Y-56775500D01*
X19858800Y-56750002D01*
X80182110Y-56750002D01*
X80201567Y-56885337D01*
X80201569Y-56885345D01*
X80258368Y-57009715D01*
X80258369Y-57009716D01*
X80258370Y-57009718D01*
X80347911Y-57113055D01*
X80462939Y-57186978D01*
X80594133Y-57225500D01*
X80594134Y-57225500D01*
X80730866Y-57225500D01*
X80730867Y-57225500D01*
X80862061Y-57186978D01*
X80977089Y-57113055D01*
X81066630Y-57009718D01*
X81110790Y-56913022D01*
X81123430Y-56885345D01*
X81123432Y-56885337D01*
X81142890Y-56750002D01*
X81142890Y-56749997D01*
X81123432Y-56614662D01*
X81123430Y-56614654D01*
X81066631Y-56490284D01*
X81066630Y-56490283D01*
X81066630Y-56490282D01*
X80977089Y-56386945D01*
X80862061Y-56313022D01*
X80862058Y-56313021D01*
X80730868Y-56274500D01*
X80730867Y-56274500D01*
X80594133Y-56274500D01*
X80594131Y-56274500D01*
X80462941Y-56313021D01*
X80462939Y-56313021D01*
X80462939Y-56313022D01*
X80347911Y-56386945D01*
X80347910Y-56386945D01*
X80347910Y-56386946D01*
X80258368Y-56490284D01*
X80201569Y-56614654D01*
X80201567Y-56614662D01*
X80182110Y-56749997D01*
X80182110Y-56750002D01*
X19858800Y-56750002D01*
X19910053Y-56734953D01*
X20031128Y-56657143D01*
X20125377Y-56548373D01*
X20185165Y-56417457D01*
X20198386Y-56325500D01*
X20205647Y-56275002D01*
X20205647Y-56274997D01*
X20185165Y-56132543D01*
X20164341Y-56086945D01*
X20125377Y-56001627D01*
X20031128Y-55892857D01*
X20031127Y-55892856D01*
X20031126Y-55892855D01*
X19964445Y-55850002D01*
X20419610Y-55850002D01*
X20439067Y-55985337D01*
X20439069Y-55985345D01*
X20495868Y-56109715D01*
X20495869Y-56109716D01*
X20495870Y-56109718D01*
X20585411Y-56213055D01*
X20700439Y-56286978D01*
X20831633Y-56325500D01*
X20831634Y-56325500D01*
X20968366Y-56325500D01*
X20968367Y-56325500D01*
X21099561Y-56286978D01*
X21214589Y-56213055D01*
X21304130Y-56109718D01*
X21348290Y-56013022D01*
X21360930Y-55985345D01*
X21360932Y-55985337D01*
X21373201Y-55900002D01*
X55944610Y-55900002D01*
X55964067Y-56035337D01*
X55964069Y-56035345D01*
X56020868Y-56159715D01*
X56020869Y-56159716D01*
X56020870Y-56159718D01*
X56110411Y-56263055D01*
X56225439Y-56336978D01*
X56356633Y-56375500D01*
X56356634Y-56375500D01*
X56493366Y-56375500D01*
X56493367Y-56375500D01*
X56624561Y-56336978D01*
X56739589Y-56263055D01*
X56829130Y-56159718D01*
X56885931Y-56035342D01*
X56889140Y-56013022D01*
X56905390Y-55900002D01*
X59144610Y-55900002D01*
X59164067Y-56035337D01*
X59164069Y-56035345D01*
X59220868Y-56159715D01*
X59220869Y-56159716D01*
X59220870Y-56159718D01*
X59310411Y-56263055D01*
X59425439Y-56336978D01*
X59556633Y-56375500D01*
X59556634Y-56375500D01*
X59693366Y-56375500D01*
X59693367Y-56375500D01*
X59824561Y-56336978D01*
X59939589Y-56263055D01*
X60029130Y-56159718D01*
X60085931Y-56035342D01*
X60089140Y-56013022D01*
X60105390Y-55900002D01*
X60105390Y-55899997D01*
X60085932Y-55764662D01*
X60085930Y-55764654D01*
X60029131Y-55640284D01*
X60029130Y-55640283D01*
X60029130Y-55640282D01*
X59939589Y-55536945D01*
X59824561Y-55463022D01*
X59824558Y-55463021D01*
X59693368Y-55424500D01*
X59693367Y-55424500D01*
X59556633Y-55424500D01*
X59556631Y-55424500D01*
X59425441Y-55463021D01*
X59425439Y-55463021D01*
X59425439Y-55463022D01*
X59310411Y-55536945D01*
X59310410Y-55536945D01*
X59310410Y-55536946D01*
X59220868Y-55640284D01*
X59164069Y-55764654D01*
X59164067Y-55764662D01*
X59144610Y-55899997D01*
X59144610Y-55900002D01*
X56905390Y-55900002D01*
X56905390Y-55899997D01*
X56885932Y-55764662D01*
X56885930Y-55764654D01*
X56829131Y-55640284D01*
X56829130Y-55640283D01*
X56829130Y-55640282D01*
X56739589Y-55536945D01*
X56624561Y-55463022D01*
X56624558Y-55463021D01*
X56493368Y-55424500D01*
X56493367Y-55424500D01*
X56356633Y-55424500D01*
X56356631Y-55424500D01*
X56225441Y-55463021D01*
X56225439Y-55463021D01*
X56225439Y-55463022D01*
X56110411Y-55536945D01*
X56110410Y-55536945D01*
X56110410Y-55536946D01*
X56020868Y-55640284D01*
X55964069Y-55764654D01*
X55964067Y-55764662D01*
X55944610Y-55899997D01*
X55944610Y-55900002D01*
X21373201Y-55900002D01*
X21380390Y-55850002D01*
X21380390Y-55849997D01*
X21360932Y-55714662D01*
X21360930Y-55714654D01*
X21304131Y-55590283D01*
X21304130Y-55590281D01*
X21238752Y-55514831D01*
X21214934Y-55458472D01*
X21228793Y-55398876D01*
X21238752Y-55385169D01*
X21304130Y-55309718D01*
X21304131Y-55309716D01*
X21360930Y-55185345D01*
X21360932Y-55185337D01*
X21380390Y-55050002D01*
X21380390Y-55049997D01*
X21366013Y-54950002D01*
X74719353Y-54950002D01*
X74739834Y-55092456D01*
X74782256Y-55185345D01*
X74799623Y-55223373D01*
X74874438Y-55309715D01*
X74893873Y-55332144D01*
X75014942Y-55409950D01*
X75014947Y-55409953D01*
X75121403Y-55441211D01*
X75153035Y-55450499D01*
X75153036Y-55450499D01*
X75153039Y-55450500D01*
X75153041Y-55450500D01*
X75296959Y-55450500D01*
X75296961Y-55450500D01*
X75435053Y-55409953D01*
X75556128Y-55332143D01*
X75650377Y-55223373D01*
X75710165Y-55092457D01*
X75730647Y-54950000D01*
X75725566Y-54914662D01*
X75710165Y-54807543D01*
X75686650Y-54756053D01*
X75650377Y-54676627D01*
X75556128Y-54567857D01*
X75556127Y-54567856D01*
X75556126Y-54567855D01*
X75435057Y-54490049D01*
X75435054Y-54490047D01*
X75435053Y-54490047D01*
X75435050Y-54490046D01*
X75296964Y-54449500D01*
X75296961Y-54449500D01*
X75153039Y-54449500D01*
X75153035Y-54449500D01*
X75014949Y-54490046D01*
X75014942Y-54490049D01*
X74893873Y-54567855D01*
X74799622Y-54676628D01*
X74739834Y-54807543D01*
X74719353Y-54949997D01*
X74719353Y-54950002D01*
X21366013Y-54950002D01*
X21360932Y-54914662D01*
X21360930Y-54914654D01*
X21304131Y-54790284D01*
X21304130Y-54790283D01*
X21304130Y-54790282D01*
X21214589Y-54686945D01*
X21099561Y-54613022D01*
X21099558Y-54613021D01*
X20968368Y-54574500D01*
X20968367Y-54574500D01*
X20831633Y-54574500D01*
X20831631Y-54574500D01*
X20700441Y-54613021D01*
X20700439Y-54613021D01*
X20700439Y-54613022D01*
X20585411Y-54686945D01*
X20585410Y-54686945D01*
X20585410Y-54686946D01*
X20495868Y-54790284D01*
X20439069Y-54914654D01*
X20439067Y-54914662D01*
X20419610Y-55049997D01*
X20419610Y-55050002D01*
X20439067Y-55185337D01*
X20439069Y-55185345D01*
X20495868Y-55309715D01*
X20495869Y-55309716D01*
X20495870Y-55309718D01*
X20515302Y-55332144D01*
X20561248Y-55385169D01*
X20585065Y-55441529D01*
X20571206Y-55501124D01*
X20561248Y-55514831D01*
X20495868Y-55590284D01*
X20439069Y-55714654D01*
X20439067Y-55714662D01*
X20419610Y-55849997D01*
X20419610Y-55850002D01*
X19964445Y-55850002D01*
X19910057Y-55815049D01*
X19910054Y-55815047D01*
X19910053Y-55815047D01*
X19910050Y-55815046D01*
X19771964Y-55774500D01*
X19771961Y-55774500D01*
X19628039Y-55774500D01*
X19628035Y-55774500D01*
X19489949Y-55815046D01*
X19489942Y-55815049D01*
X19368873Y-55892855D01*
X19274622Y-56001628D01*
X19214834Y-56132543D01*
X19194353Y-56274997D01*
X19194353Y-56275002D01*
X17942821Y-56275002D01*
X17904131Y-56190284D01*
X17904130Y-56190283D01*
X17904130Y-56190282D01*
X17814589Y-56086945D01*
X17699561Y-56013022D01*
X17660757Y-56001628D01*
X17568368Y-55974500D01*
X17568367Y-55974500D01*
X17431633Y-55974500D01*
X17431631Y-55974500D01*
X17300441Y-56013021D01*
X17300439Y-56013021D01*
X17300439Y-56013022D01*
X17185411Y-56086945D01*
X17185410Y-56086945D01*
X17185410Y-56086946D01*
X17095868Y-56190284D01*
X17039069Y-56314654D01*
X17039067Y-56314662D01*
X17019610Y-56449997D01*
X17019610Y-56450002D01*
X16280205Y-56450002D01*
X16324561Y-56436978D01*
X16439589Y-56363055D01*
X16529130Y-56259718D01*
X16585931Y-56135342D01*
X16585932Y-56135337D01*
X16605390Y-56000002D01*
X16605390Y-55999997D01*
X16585932Y-55864662D01*
X16585930Y-55864654D01*
X16529131Y-55740284D01*
X16529130Y-55740283D01*
X16529130Y-55740282D01*
X16439589Y-55636945D01*
X16324561Y-55563022D01*
X16324558Y-55563021D01*
X16193368Y-55524500D01*
X16193367Y-55524500D01*
X16056633Y-55524500D01*
X16056631Y-55524500D01*
X15925441Y-55563021D01*
X15925439Y-55563021D01*
X15925439Y-55563022D01*
X15810411Y-55636945D01*
X15810410Y-55636945D01*
X15810410Y-55636946D01*
X15720868Y-55740284D01*
X15664069Y-55864654D01*
X15664067Y-55864662D01*
X15644610Y-55999997D01*
X15644610Y-56000002D01*
X1000000Y-56000002D01*
X1000000Y-53500002D01*
X13406853Y-53500002D01*
X13427334Y-53642456D01*
X13447667Y-53686978D01*
X13487123Y-53773373D01*
X13542208Y-53836945D01*
X13581373Y-53882144D01*
X13696330Y-53956022D01*
X13702447Y-53959953D01*
X13808903Y-53991211D01*
X13840535Y-54000499D01*
X13840536Y-54000499D01*
X13840539Y-54000500D01*
X13840541Y-54000500D01*
X13984459Y-54000500D01*
X13984461Y-54000500D01*
X14122553Y-53959953D01*
X14243628Y-53882143D01*
X14337877Y-53773373D01*
X14397665Y-53642457D01*
X14410886Y-53550500D01*
X14418147Y-53500002D01*
X16581853Y-53500002D01*
X16602334Y-53642456D01*
X16622667Y-53686978D01*
X16662123Y-53773373D01*
X16717208Y-53836945D01*
X16756373Y-53882144D01*
X16871330Y-53956022D01*
X16877447Y-53959953D01*
X16983903Y-53991211D01*
X17015535Y-54000499D01*
X17015536Y-54000499D01*
X17015539Y-54000500D01*
X17015541Y-54000500D01*
X17159459Y-54000500D01*
X17159461Y-54000500D01*
X17297553Y-53959953D01*
X17418628Y-53882143D01*
X17512877Y-53773373D01*
X17572665Y-53642457D01*
X17585886Y-53550500D01*
X17593147Y-53500002D01*
X17593147Y-53499997D01*
X17572665Y-53357543D01*
X17557059Y-53323371D01*
X17512877Y-53226627D01*
X17418628Y-53117857D01*
X17418627Y-53117856D01*
X17418626Y-53117855D01*
X17297557Y-53040049D01*
X17297554Y-53040047D01*
X17297553Y-53040047D01*
X17297550Y-53040046D01*
X17159464Y-52999500D01*
X17159461Y-52999500D01*
X17015539Y-52999500D01*
X17015535Y-52999500D01*
X16877449Y-53040046D01*
X16877442Y-53040049D01*
X16756373Y-53117855D01*
X16662122Y-53226628D01*
X16602334Y-53357543D01*
X16581853Y-53499997D01*
X16581853Y-53500002D01*
X14418147Y-53500002D01*
X14418147Y-53499997D01*
X14397665Y-53357543D01*
X14382059Y-53323371D01*
X14337877Y-53226627D01*
X14243628Y-53117857D01*
X14243627Y-53117856D01*
X14243626Y-53117855D01*
X14122557Y-53040049D01*
X14122554Y-53040047D01*
X14122553Y-53040047D01*
X14122550Y-53040046D01*
X13984464Y-52999500D01*
X13984461Y-52999500D01*
X13840539Y-52999500D01*
X13840535Y-52999500D01*
X13702449Y-53040046D01*
X13702442Y-53040049D01*
X13581373Y-53117855D01*
X13487122Y-53226628D01*
X13427334Y-53357543D01*
X13406853Y-53499997D01*
X13406853Y-53500002D01*
X1000000Y-53500002D01*
X1000000Y-52850002D01*
X18219610Y-52850002D01*
X18239067Y-52985337D01*
X18239069Y-52985345D01*
X18295868Y-53109715D01*
X18295869Y-53109716D01*
X18295870Y-53109718D01*
X18367562Y-53192456D01*
X18385412Y-53213056D01*
X18450309Y-53254762D01*
X18489040Y-53302127D01*
X18492534Y-53363213D01*
X18471606Y-53402877D01*
X18395868Y-53490284D01*
X18339069Y-53614654D01*
X18339067Y-53614662D01*
X18319610Y-53749997D01*
X18319610Y-53750002D01*
X18339067Y-53885337D01*
X18339069Y-53885345D01*
X18395868Y-54009715D01*
X18395869Y-54009716D01*
X18395870Y-54009718D01*
X18485411Y-54113055D01*
X18600439Y-54186978D01*
X18731633Y-54225500D01*
X18731634Y-54225500D01*
X18868366Y-54225500D01*
X18868367Y-54225500D01*
X18955205Y-54200002D01*
X27869610Y-54200002D01*
X27889067Y-54335337D01*
X27889069Y-54335345D01*
X27945868Y-54459715D01*
X27945869Y-54459716D01*
X27945870Y-54459718D01*
X28035411Y-54563055D01*
X28150439Y-54636978D01*
X28281633Y-54675500D01*
X28281634Y-54675500D01*
X28418366Y-54675500D01*
X28418367Y-54675500D01*
X28549561Y-54636978D01*
X28664589Y-54563055D01*
X28754130Y-54459718D01*
X28784598Y-54393002D01*
X77812610Y-54393002D01*
X77832067Y-54528337D01*
X77832069Y-54528345D01*
X77888868Y-54652715D01*
X77888869Y-54652716D01*
X77888870Y-54652718D01*
X77978411Y-54756055D01*
X78093439Y-54829978D01*
X78224633Y-54868500D01*
X78224634Y-54868500D01*
X78361366Y-54868500D01*
X78361367Y-54868500D01*
X78492561Y-54829978D01*
X78607589Y-54756055D01*
X78697130Y-54652718D01*
X78753931Y-54528342D01*
X78773390Y-54393000D01*
X78765100Y-54335342D01*
X78753932Y-54257662D01*
X78753930Y-54257654D01*
X78697131Y-54133284D01*
X78697130Y-54133283D01*
X78697130Y-54133282D01*
X78607589Y-54029945D01*
X78492561Y-53956022D01*
X78492558Y-53956021D01*
X78361368Y-53917500D01*
X78361367Y-53917500D01*
X78224633Y-53917500D01*
X78224631Y-53917500D01*
X78093441Y-53956021D01*
X78093439Y-53956021D01*
X78093439Y-53956022D01*
X77978411Y-54029945D01*
X77978410Y-54029945D01*
X77978410Y-54029946D01*
X77888868Y-54133284D01*
X77832069Y-54257654D01*
X77832067Y-54257662D01*
X77812610Y-54392997D01*
X77812610Y-54393002D01*
X28784598Y-54393002D01*
X28810931Y-54335342D01*
X28830390Y-54200000D01*
X28817889Y-54113055D01*
X28810932Y-54064662D01*
X28810930Y-54064654D01*
X28754131Y-53940284D01*
X28754130Y-53940283D01*
X28754130Y-53940282D01*
X28664589Y-53836945D01*
X28549561Y-53763022D01*
X28549558Y-53763021D01*
X28418368Y-53724500D01*
X28418367Y-53724500D01*
X28281633Y-53724500D01*
X28281631Y-53724500D01*
X28150441Y-53763021D01*
X28150439Y-53763021D01*
X28150439Y-53763022D01*
X28035411Y-53836945D01*
X28035410Y-53836945D01*
X28035410Y-53836946D01*
X27945868Y-53940284D01*
X27889069Y-54064654D01*
X27889067Y-54064662D01*
X27869610Y-54199997D01*
X27869610Y-54200002D01*
X18955205Y-54200002D01*
X18999561Y-54186978D01*
X19114589Y-54113055D01*
X19204130Y-54009718D01*
X19260931Y-53885342D01*
X19267889Y-53836946D01*
X19280390Y-53750002D01*
X19280390Y-53749997D01*
X19260932Y-53614662D01*
X19260930Y-53614654D01*
X19204131Y-53490284D01*
X19204130Y-53490283D01*
X19204130Y-53490282D01*
X19114589Y-53386945D01*
X19114588Y-53386944D01*
X19114587Y-53386943D01*
X19049690Y-53345237D01*
X19010959Y-53297871D01*
X19007465Y-53236786D01*
X19028392Y-53197124D01*
X19104130Y-53109718D01*
X19129308Y-53054585D01*
X19133514Y-53050002D01*
X66532353Y-53050002D01*
X66552834Y-53192456D01*
X66579113Y-53249997D01*
X66612623Y-53323373D01*
X66667708Y-53386945D01*
X66706873Y-53432144D01*
X66827581Y-53509718D01*
X66827947Y-53509953D01*
X66934403Y-53541211D01*
X66966035Y-53550499D01*
X66966036Y-53550499D01*
X66966039Y-53550500D01*
X66966041Y-53550500D01*
X67109959Y-53550500D01*
X67109961Y-53550500D01*
X67248053Y-53509953D01*
X67369128Y-53432143D01*
X67463377Y-53323373D01*
X67523165Y-53192457D01*
X67538285Y-53087295D01*
X67543647Y-53050002D01*
X67543647Y-53049997D01*
X67523165Y-52907543D01*
X67519288Y-52899053D01*
X67463377Y-52776627D01*
X67369128Y-52667857D01*
X67369127Y-52667856D01*
X67369126Y-52667855D01*
X67248057Y-52590049D01*
X67248054Y-52590047D01*
X67248053Y-52590047D01*
X67248050Y-52590046D01*
X67109964Y-52549500D01*
X67109961Y-52549500D01*
X66966039Y-52549500D01*
X66966035Y-52549500D01*
X66827949Y-52590046D01*
X66827942Y-52590049D01*
X66706873Y-52667855D01*
X66612622Y-52776628D01*
X66552834Y-52907543D01*
X66532353Y-53049997D01*
X66532353Y-53050002D01*
X19133514Y-53050002D01*
X19170677Y-53009510D01*
X19230644Y-52997358D01*
X19247246Y-53000721D01*
X19331633Y-53025500D01*
X19331634Y-53025500D01*
X19468366Y-53025500D01*
X19468367Y-53025500D01*
X19599561Y-52986978D01*
X19714589Y-52913055D01*
X19804130Y-52809718D01*
X19860931Y-52685342D01*
X19862615Y-52673629D01*
X19880390Y-52550002D01*
X19880390Y-52549997D01*
X19873202Y-52500002D01*
X74294353Y-52500002D01*
X74314834Y-52642456D01*
X74347808Y-52714658D01*
X74374623Y-52773373D01*
X74406116Y-52809718D01*
X74468873Y-52882144D01*
X74508395Y-52907543D01*
X74589947Y-52959953D01*
X74693239Y-52990282D01*
X74728035Y-53000499D01*
X74728036Y-53000499D01*
X74728039Y-53000500D01*
X74728041Y-53000500D01*
X74871959Y-53000500D01*
X74871961Y-53000500D01*
X75010053Y-52959953D01*
X75131128Y-52882143D01*
X75225377Y-52773373D01*
X75285165Y-52642457D01*
X75300471Y-52536002D01*
X79455610Y-52536002D01*
X79475067Y-52671337D01*
X79475069Y-52671345D01*
X79531868Y-52795715D01*
X79531869Y-52795716D01*
X79531870Y-52795718D01*
X79621411Y-52899055D01*
X79736439Y-52972978D01*
X79867633Y-53011500D01*
X79867634Y-53011500D01*
X80004366Y-53011500D01*
X80004367Y-53011500D01*
X80079363Y-52989479D01*
X80140521Y-52991226D01*
X80188974Y-53028588D01*
X80206213Y-53087295D01*
X80202244Y-53112357D01*
X80201568Y-53114659D01*
X80182110Y-53249997D01*
X80182110Y-53250002D01*
X80201567Y-53385337D01*
X80201569Y-53385345D01*
X80258368Y-53509715D01*
X80258369Y-53509716D01*
X80258370Y-53509718D01*
X80347911Y-53613055D01*
X80462939Y-53686978D01*
X80594133Y-53725500D01*
X80594134Y-53725500D01*
X80730866Y-53725500D01*
X80730867Y-53725500D01*
X80862061Y-53686978D01*
X80977089Y-53613055D01*
X81066630Y-53509718D01*
X81123431Y-53385342D01*
X81133829Y-53313022D01*
X81142890Y-53250002D01*
X81142890Y-53249997D01*
X81123432Y-53114662D01*
X81123430Y-53114654D01*
X81066631Y-52990284D01*
X81066630Y-52990283D01*
X81066630Y-52990282D01*
X80977089Y-52886945D01*
X80862061Y-52813022D01*
X80850809Y-52809718D01*
X80730868Y-52774500D01*
X80730867Y-52774500D01*
X80594133Y-52774500D01*
X80594129Y-52774500D01*
X80519137Y-52796520D01*
X80457977Y-52794772D01*
X80409524Y-52757409D01*
X80392286Y-52698702D01*
X80396259Y-52673629D01*
X80396928Y-52671348D01*
X80396931Y-52671342D01*
X80408619Y-52590047D01*
X80416390Y-52536002D01*
X80416390Y-52535997D01*
X80396932Y-52400662D01*
X80396930Y-52400654D01*
X80340131Y-52276284D01*
X80340130Y-52276283D01*
X80340130Y-52276282D01*
X80250589Y-52172945D01*
X80135561Y-52099022D01*
X80052047Y-52074500D01*
X80004368Y-52060500D01*
X80004367Y-52060500D01*
X79867633Y-52060500D01*
X79867631Y-52060500D01*
X79736441Y-52099021D01*
X79736439Y-52099021D01*
X79736439Y-52099022D01*
X79621411Y-52172945D01*
X79621410Y-52172945D01*
X79621410Y-52172946D01*
X79531868Y-52276284D01*
X79475069Y-52400654D01*
X79475067Y-52400662D01*
X79455610Y-52535997D01*
X79455610Y-52536002D01*
X75300471Y-52536002D01*
X75300471Y-52536000D01*
X75305647Y-52500002D01*
X75305647Y-52499997D01*
X75285165Y-52357543D01*
X75279626Y-52345414D01*
X75225377Y-52226627D01*
X75131128Y-52117857D01*
X75131127Y-52117856D01*
X75131126Y-52117855D01*
X75010057Y-52040049D01*
X75010054Y-52040047D01*
X75010053Y-52040047D01*
X75010050Y-52040046D01*
X74871964Y-51999500D01*
X74871961Y-51999500D01*
X74728039Y-51999500D01*
X74728035Y-51999500D01*
X74589949Y-52040046D01*
X74589942Y-52040049D01*
X74468873Y-52117855D01*
X74374622Y-52226628D01*
X74314834Y-52357543D01*
X74294353Y-52499997D01*
X74294353Y-52500002D01*
X19873202Y-52500002D01*
X19860932Y-52414662D01*
X19860930Y-52414654D01*
X19804131Y-52290284D01*
X19804130Y-52290283D01*
X19804130Y-52290282D01*
X19714589Y-52186945D01*
X19599561Y-52113022D01*
X19599558Y-52113021D01*
X19468368Y-52074500D01*
X19468367Y-52074500D01*
X19331633Y-52074500D01*
X19331631Y-52074500D01*
X19200441Y-52113021D01*
X19200439Y-52113021D01*
X19200439Y-52113022D01*
X19085411Y-52186945D01*
X19085410Y-52186945D01*
X19085410Y-52186946D01*
X18995869Y-52290282D01*
X18970691Y-52345414D01*
X18929318Y-52390491D01*
X18869351Y-52402640D01*
X18852746Y-52399276D01*
X18768368Y-52374500D01*
X18768367Y-52374500D01*
X18631633Y-52374500D01*
X18631631Y-52374500D01*
X18500441Y-52413021D01*
X18500439Y-52413021D01*
X18500439Y-52413022D01*
X18385411Y-52486945D01*
X18385410Y-52486945D01*
X18385410Y-52486946D01*
X18295868Y-52590284D01*
X18239069Y-52714654D01*
X18239067Y-52714662D01*
X18219610Y-52849997D01*
X18219610Y-52850002D01*
X1000000Y-52850002D01*
X1000000Y-49780939D01*
X3995630Y-49780939D01*
X4026443Y-49982067D01*
X4026444Y-49982071D01*
X4097114Y-50172887D01*
X4097115Y-50172888D01*
X4204745Y-50345567D01*
X4204747Y-50345569D01*
X4204748Y-50345571D01*
X4232247Y-50374500D01*
X4296845Y-50442457D01*
X4344941Y-50493053D01*
X4344943Y-50493054D01*
X4344946Y-50493057D01*
X4434533Y-50555411D01*
X4511951Y-50609295D01*
X4698940Y-50689539D01*
X4698942Y-50689540D01*
X4898259Y-50730500D01*
X4898262Y-50730500D01*
X5050744Y-50730500D01*
X5076381Y-50727892D01*
X5202438Y-50715074D01*
X5396588Y-50654159D01*
X5574502Y-50555409D01*
X5639043Y-50500002D01*
X12269353Y-50500002D01*
X12289834Y-50642456D01*
X12343387Y-50759718D01*
X12349623Y-50773373D01*
X12443872Y-50882143D01*
X12443873Y-50882144D01*
X12448854Y-50885345D01*
X12564947Y-50959953D01*
X12671403Y-50991211D01*
X12703035Y-51000499D01*
X12703036Y-51000499D01*
X12703039Y-51000500D01*
X12703041Y-51000500D01*
X12846959Y-51000500D01*
X12846961Y-51000500D01*
X12985053Y-50959953D01*
X13106128Y-50882143D01*
X13200377Y-50773373D01*
X13260165Y-50642457D01*
X13272680Y-50555411D01*
X13280647Y-50500002D01*
X14419610Y-50500002D01*
X14439067Y-50635337D01*
X14439069Y-50635345D01*
X14495868Y-50759715D01*
X14495869Y-50759716D01*
X14495870Y-50759718D01*
X14585411Y-50863055D01*
X14700439Y-50936978D01*
X14831633Y-50975500D01*
X14831634Y-50975500D01*
X14968366Y-50975500D01*
X14968367Y-50975500D01*
X15099561Y-50936978D01*
X15214589Y-50863055D01*
X15225899Y-50850002D01*
X20419610Y-50850002D01*
X20439067Y-50985337D01*
X20439069Y-50985345D01*
X20495868Y-51109715D01*
X20495869Y-51109716D01*
X20495870Y-51109718D01*
X20585411Y-51213055D01*
X20700439Y-51286978D01*
X20831633Y-51325500D01*
X20831634Y-51325500D01*
X20968366Y-51325500D01*
X20968367Y-51325500D01*
X21099561Y-51286978D01*
X21214589Y-51213055D01*
X21304130Y-51109718D01*
X21360931Y-50985342D01*
X21362346Y-50975499D01*
X21380390Y-50850002D01*
X21380390Y-50849997D01*
X21360932Y-50714662D01*
X21360930Y-50714654D01*
X21304131Y-50590284D01*
X21304130Y-50590283D01*
X21304130Y-50590282D01*
X21214589Y-50486945D01*
X21099561Y-50413022D01*
X21099558Y-50413021D01*
X20970078Y-50375002D01*
X36219610Y-50375002D01*
X36239067Y-50510337D01*
X36239069Y-50510345D01*
X36295868Y-50634715D01*
X36295869Y-50634716D01*
X36295870Y-50634718D01*
X36385411Y-50738055D01*
X36500439Y-50811978D01*
X36631633Y-50850500D01*
X36631634Y-50850500D01*
X36768366Y-50850500D01*
X36768367Y-50850500D01*
X36899561Y-50811978D01*
X36995999Y-50750002D01*
X59419610Y-50750002D01*
X59439067Y-50885337D01*
X59439069Y-50885345D01*
X59495868Y-51009715D01*
X59495869Y-51009716D01*
X59495870Y-51009718D01*
X59585411Y-51113055D01*
X59700439Y-51186978D01*
X59831633Y-51225500D01*
X59831634Y-51225500D01*
X59968366Y-51225500D01*
X59968367Y-51225500D01*
X60099561Y-51186978D01*
X60214589Y-51113055D01*
X60304130Y-51009718D01*
X60332530Y-50947530D01*
X60360930Y-50885345D01*
X60360932Y-50885337D01*
X60380390Y-50750002D01*
X60380390Y-50749997D01*
X60360932Y-50614662D01*
X60360930Y-50614654D01*
X60304131Y-50490284D01*
X60304130Y-50490283D01*
X60304130Y-50490282D01*
X60214589Y-50386945D01*
X60099561Y-50313022D01*
X60099558Y-50313021D01*
X60055220Y-50300002D01*
X74406853Y-50300002D01*
X74427334Y-50442456D01*
X74478919Y-50555409D01*
X74487123Y-50573373D01*
X74557122Y-50654157D01*
X74581373Y-50682144D01*
X74702081Y-50759718D01*
X74702447Y-50759953D01*
X74808903Y-50791211D01*
X74840535Y-50800499D01*
X74840536Y-50800499D01*
X74840539Y-50800500D01*
X74840541Y-50800500D01*
X74984459Y-50800500D01*
X74984461Y-50800500D01*
X75122553Y-50759953D01*
X75243628Y-50682143D01*
X75337877Y-50573373D01*
X75397665Y-50442457D01*
X75405646Y-50386945D01*
X75418147Y-50300002D01*
X75418147Y-50299997D01*
X75397665Y-50157543D01*
X75337877Y-50026627D01*
X75243628Y-49917857D01*
X75243627Y-49917856D01*
X75243626Y-49917855D01*
X75122557Y-49840049D01*
X75122554Y-49840047D01*
X75122553Y-49840047D01*
X75122550Y-49840046D01*
X74984464Y-49799500D01*
X74984461Y-49799500D01*
X74840539Y-49799500D01*
X74840535Y-49799500D01*
X74702449Y-49840046D01*
X74702442Y-49840049D01*
X74581373Y-49917855D01*
X74487122Y-50026628D01*
X74427334Y-50157543D01*
X74406853Y-50299997D01*
X74406853Y-50300002D01*
X60055220Y-50300002D01*
X59968368Y-50274500D01*
X59968367Y-50274500D01*
X59831633Y-50274500D01*
X59831631Y-50274500D01*
X59700441Y-50313021D01*
X59700439Y-50313021D01*
X59700439Y-50313022D01*
X59585411Y-50386945D01*
X59585410Y-50386945D01*
X59585410Y-50386946D01*
X59495868Y-50490284D01*
X59439069Y-50614654D01*
X59439067Y-50614662D01*
X59419610Y-50749997D01*
X59419610Y-50750002D01*
X36995999Y-50750002D01*
X37014589Y-50738055D01*
X37104130Y-50634718D01*
X37140349Y-50555411D01*
X37160930Y-50510345D01*
X37160932Y-50510337D01*
X37180390Y-50375002D01*
X37180390Y-50374997D01*
X37160932Y-50239662D01*
X37160930Y-50239654D01*
X37104131Y-50115284D01*
X37104130Y-50115283D01*
X37104130Y-50115282D01*
X37014589Y-50011945D01*
X36899561Y-49938022D01*
X36899558Y-49938021D01*
X36768368Y-49899500D01*
X36768367Y-49899500D01*
X36631633Y-49899500D01*
X36631631Y-49899500D01*
X36500441Y-49938021D01*
X36500439Y-49938021D01*
X36500439Y-49938022D01*
X36385411Y-50011945D01*
X36385410Y-50011945D01*
X36385410Y-50011946D01*
X36295868Y-50115284D01*
X36239069Y-50239654D01*
X36239067Y-50239662D01*
X36219610Y-50374997D01*
X36219610Y-50375002D01*
X20970078Y-50375002D01*
X20968368Y-50374500D01*
X20968367Y-50374500D01*
X20831633Y-50374500D01*
X20831631Y-50374500D01*
X20700441Y-50413021D01*
X20700439Y-50413021D01*
X20700439Y-50413022D01*
X20585411Y-50486945D01*
X20585410Y-50486945D01*
X20585410Y-50486946D01*
X20495868Y-50590284D01*
X20439069Y-50714654D01*
X20439067Y-50714662D01*
X20419610Y-50849997D01*
X20419610Y-50850002D01*
X15225899Y-50850002D01*
X15304130Y-50759718D01*
X15352338Y-50654158D01*
X15360930Y-50635345D01*
X15360932Y-50635337D01*
X15380390Y-50500002D01*
X15380390Y-50499997D01*
X15360932Y-50364662D01*
X15360930Y-50364654D01*
X15304131Y-50240284D01*
X15304130Y-50240283D01*
X15304130Y-50240282D01*
X15214589Y-50136945D01*
X15099561Y-50063022D01*
X15099558Y-50063021D01*
X14968368Y-50024500D01*
X14968367Y-50024500D01*
X14831633Y-50024500D01*
X14831631Y-50024500D01*
X14700441Y-50063021D01*
X14700439Y-50063021D01*
X14700439Y-50063022D01*
X14585411Y-50136945D01*
X14585410Y-50136945D01*
X14585410Y-50136946D01*
X14495868Y-50240284D01*
X14439069Y-50364654D01*
X14439067Y-50364662D01*
X14419610Y-50499997D01*
X14419610Y-50500002D01*
X13280647Y-50500002D01*
X13280647Y-50499997D01*
X13260165Y-50357543D01*
X13254698Y-50345573D01*
X13200377Y-50226627D01*
X13106128Y-50117857D01*
X13106127Y-50117856D01*
X13106126Y-50117855D01*
X12985057Y-50040049D01*
X12985054Y-50040047D01*
X12985053Y-50040047D01*
X12985050Y-50040046D01*
X12846964Y-49999500D01*
X12846961Y-49999500D01*
X12703039Y-49999500D01*
X12703035Y-49999500D01*
X12564949Y-50040046D01*
X12564942Y-50040049D01*
X12443873Y-50117855D01*
X12349622Y-50226628D01*
X12289834Y-50357543D01*
X12269353Y-50499997D01*
X12269353Y-50500002D01*
X5639043Y-50500002D01*
X5728895Y-50422866D01*
X5853448Y-50261958D01*
X5943060Y-50079271D01*
X5994063Y-49882285D01*
X5999203Y-49780939D01*
X88995630Y-49780939D01*
X89026443Y-49982067D01*
X89026444Y-49982071D01*
X89097114Y-50172887D01*
X89097115Y-50172888D01*
X89204745Y-50345567D01*
X89204747Y-50345569D01*
X89204748Y-50345571D01*
X89232247Y-50374500D01*
X89296845Y-50442457D01*
X89344941Y-50493053D01*
X89344943Y-50493054D01*
X89344946Y-50493057D01*
X89434533Y-50555411D01*
X89511951Y-50609295D01*
X89698940Y-50689539D01*
X89698942Y-50689540D01*
X89898259Y-50730500D01*
X89898262Y-50730500D01*
X90050744Y-50730500D01*
X90076381Y-50727892D01*
X90202438Y-50715074D01*
X90396588Y-50654159D01*
X90574502Y-50555409D01*
X90728895Y-50422866D01*
X90853448Y-50261958D01*
X90943060Y-50079271D01*
X90994063Y-49882285D01*
X91004369Y-49679064D01*
X90973556Y-49477929D01*
X90902886Y-49287113D01*
X90795252Y-49114429D01*
X90663189Y-48975500D01*
X90655063Y-48966951D01*
X90655053Y-48966942D01*
X90488054Y-48850708D01*
X90488051Y-48850706D01*
X90488049Y-48850705D01*
X90301058Y-48770460D01*
X90301060Y-48770460D01*
X90221331Y-48754076D01*
X90101741Y-48729500D01*
X89949258Y-48729500D01*
X89949256Y-48729500D01*
X89797561Y-48744926D01*
X89603410Y-48805841D01*
X89603409Y-48805842D01*
X89425501Y-48904588D01*
X89425498Y-48904590D01*
X89271109Y-49037129D01*
X89146549Y-49198045D01*
X89059505Y-49375499D01*
X89056940Y-49380729D01*
X89031773Y-49477932D01*
X89005936Y-49577719D01*
X88995631Y-49780936D01*
X88995630Y-49780939D01*
X5999203Y-49780939D01*
X6004369Y-49679064D01*
X5973556Y-49477929D01*
X5902886Y-49287113D01*
X5795252Y-49114429D01*
X5663189Y-48975500D01*
X5655063Y-48966951D01*
X5655053Y-48966942D01*
X5488054Y-48850708D01*
X5488051Y-48850706D01*
X5488049Y-48850705D01*
X5301058Y-48770460D01*
X5301060Y-48770460D01*
X5221331Y-48754076D01*
X5101741Y-48729500D01*
X4949258Y-48729500D01*
X4949256Y-48729500D01*
X4797561Y-48744926D01*
X4603410Y-48805841D01*
X4603409Y-48805842D01*
X4425501Y-48904588D01*
X4425498Y-48904590D01*
X4271109Y-49037129D01*
X4146549Y-49198045D01*
X4059505Y-49375499D01*
X4056940Y-49380729D01*
X4031773Y-49477932D01*
X4005936Y-49577719D01*
X3995631Y-49780936D01*
X3995630Y-49780939D01*
X1000000Y-49780939D01*
X1000000Y-48500002D01*
X16269610Y-48500002D01*
X16289067Y-48635337D01*
X16289069Y-48635345D01*
X16345868Y-48759715D01*
X16345869Y-48759716D01*
X16345870Y-48759718D01*
X16435411Y-48863055D01*
X16550439Y-48936978D01*
X16681633Y-48975500D01*
X16681634Y-48975500D01*
X16818366Y-48975500D01*
X16818367Y-48975500D01*
X16912251Y-48947933D01*
X16973408Y-48949680D01*
X17021861Y-48987042D01*
X17038132Y-49028830D01*
X17039068Y-49035338D01*
X17039069Y-49035345D01*
X17095868Y-49159715D01*
X17095869Y-49159716D01*
X17095870Y-49159718D01*
X17185411Y-49263055D01*
X17300439Y-49336978D01*
X17431633Y-49375500D01*
X17431634Y-49375500D01*
X17568366Y-49375500D01*
X17568367Y-49375500D01*
X17699561Y-49336978D01*
X17814589Y-49263055D01*
X17904130Y-49159718D01*
X17960931Y-49035342D01*
X17960932Y-49035337D01*
X17980390Y-48900002D01*
X17980390Y-48899997D01*
X17960932Y-48764662D01*
X17960930Y-48764654D01*
X17904131Y-48640284D01*
X17904130Y-48640283D01*
X17904130Y-48640282D01*
X17814589Y-48536945D01*
X17699561Y-48463022D01*
X17699558Y-48463021D01*
X17568368Y-48424500D01*
X17568367Y-48424500D01*
X17431633Y-48424500D01*
X17431629Y-48424500D01*
X17337750Y-48452066D01*
X17276590Y-48450319D01*
X17228137Y-48412956D01*
X17211866Y-48371163D01*
X17210931Y-48364658D01*
X17210930Y-48364655D01*
X17210930Y-48364654D01*
X17154131Y-48240284D01*
X17154130Y-48240283D01*
X17154130Y-48240282D01*
X17064589Y-48136945D01*
X16949561Y-48063022D01*
X16949558Y-48063021D01*
X16818368Y-48024500D01*
X16818367Y-48024500D01*
X16681633Y-48024500D01*
X16681631Y-48024500D01*
X16550441Y-48063021D01*
X16550439Y-48063021D01*
X16550439Y-48063022D01*
X16435411Y-48136945D01*
X16435410Y-48136945D01*
X16435410Y-48136946D01*
X16345868Y-48240284D01*
X16289069Y-48364654D01*
X16289067Y-48364662D01*
X16269610Y-48499997D01*
X16269610Y-48500002D01*
X1000000Y-48500002D01*
X1000000Y-47500002D01*
X13419352Y-47500002D01*
X13439833Y-47642456D01*
X13493671Y-47760342D01*
X13499622Y-47773373D01*
X13554736Y-47836978D01*
X13593872Y-47882144D01*
X13649440Y-47917855D01*
X13714946Y-47959953D01*
X13810647Y-47988053D01*
X13853034Y-48000499D01*
X13853035Y-48000499D01*
X13853038Y-48000500D01*
X13853040Y-48000500D01*
X13996958Y-48000500D01*
X13996960Y-48000500D01*
X14135052Y-47959953D01*
X14256127Y-47882143D01*
X14350376Y-47773373D01*
X14410164Y-47642457D01*
X14425565Y-47535342D01*
X14430646Y-47500002D01*
X14430646Y-47499997D01*
X14416269Y-47400002D01*
X34619610Y-47400002D01*
X34639067Y-47535337D01*
X34639069Y-47535345D01*
X34695868Y-47659715D01*
X34695869Y-47659716D01*
X34695870Y-47659718D01*
X34785411Y-47763055D01*
X34900439Y-47836978D01*
X35031633Y-47875500D01*
X35031634Y-47875500D01*
X35168366Y-47875500D01*
X35168367Y-47875500D01*
X35299561Y-47836978D01*
X35414589Y-47763055D01*
X35504130Y-47659718D01*
X35531402Y-47600002D01*
X45119610Y-47600002D01*
X45139067Y-47735337D01*
X45139069Y-47735345D01*
X45195868Y-47859715D01*
X45195869Y-47859716D01*
X45195870Y-47859718D01*
X45285411Y-47963055D01*
X45400439Y-48036978D01*
X45531633Y-48075500D01*
X45531634Y-48075500D01*
X45668366Y-48075500D01*
X45668367Y-48075500D01*
X45755205Y-48050002D01*
X52719610Y-48050002D01*
X52739067Y-48185337D01*
X52739069Y-48185345D01*
X52795868Y-48309715D01*
X52795869Y-48309716D01*
X52795870Y-48309718D01*
X52885411Y-48413055D01*
X53000439Y-48486978D01*
X53131633Y-48525500D01*
X53131634Y-48525500D01*
X53268366Y-48525500D01*
X53268367Y-48525500D01*
X53399561Y-48486978D01*
X53514589Y-48413055D01*
X53604130Y-48309718D01*
X53608567Y-48300002D01*
X77569353Y-48300002D01*
X77589834Y-48442456D01*
X77632987Y-48536946D01*
X77649623Y-48573373D01*
X77743872Y-48682143D01*
X77743873Y-48682144D01*
X77864581Y-48759718D01*
X77864947Y-48759953D01*
X77971403Y-48791211D01*
X78003035Y-48800499D01*
X78003036Y-48800499D01*
X78003039Y-48800500D01*
X78003041Y-48800500D01*
X78146959Y-48800500D01*
X78146961Y-48800500D01*
X78285053Y-48759953D01*
X78406128Y-48682143D01*
X78500377Y-48573373D01*
X78560165Y-48442457D01*
X78580647Y-48300000D01*
X78560165Y-48157543D01*
X78500377Y-48026627D01*
X78406128Y-47917857D01*
X78406127Y-47917856D01*
X78406126Y-47917855D01*
X78285057Y-47840049D01*
X78285054Y-47840047D01*
X78285053Y-47840047D01*
X78274601Y-47836978D01*
X78146964Y-47799500D01*
X78146961Y-47799500D01*
X78003039Y-47799500D01*
X78003035Y-47799500D01*
X77864949Y-47840046D01*
X77864942Y-47840049D01*
X77743873Y-47917855D01*
X77649622Y-48026628D01*
X77589834Y-48157543D01*
X77569353Y-48299997D01*
X77569353Y-48300002D01*
X53608567Y-48300002D01*
X53660931Y-48185342D01*
X53667889Y-48136946D01*
X53680390Y-48050002D01*
X53680390Y-48049997D01*
X53660932Y-47914662D01*
X53660930Y-47914654D01*
X53604131Y-47790284D01*
X53604130Y-47790283D01*
X53604130Y-47790282D01*
X53514589Y-47686945D01*
X53418202Y-47625002D01*
X79819610Y-47625002D01*
X79839067Y-47760337D01*
X79839069Y-47760345D01*
X79895868Y-47884715D01*
X79895869Y-47884716D01*
X79895870Y-47884718D01*
X79985411Y-47988055D01*
X80100439Y-48061978D01*
X80231633Y-48100500D01*
X80231634Y-48100500D01*
X80368366Y-48100500D01*
X80368367Y-48100500D01*
X80499561Y-48061978D01*
X80614589Y-47988055D01*
X80704130Y-47884718D01*
X80760931Y-47760342D01*
X80764525Y-47735345D01*
X80780390Y-47625002D01*
X80780390Y-47624997D01*
X80760932Y-47489662D01*
X80760930Y-47489654D01*
X80704131Y-47365284D01*
X80704130Y-47365283D01*
X80704130Y-47365282D01*
X80614589Y-47261945D01*
X80499561Y-47188022D01*
X80499558Y-47188021D01*
X80368368Y-47149500D01*
X80368367Y-47149500D01*
X80231633Y-47149500D01*
X80231631Y-47149500D01*
X80100441Y-47188021D01*
X80100439Y-47188021D01*
X80100439Y-47188022D01*
X79985411Y-47261945D01*
X79985410Y-47261945D01*
X79985410Y-47261946D01*
X79895868Y-47365284D01*
X79839069Y-47489654D01*
X79839067Y-47489662D01*
X79819610Y-47624997D01*
X79819610Y-47625002D01*
X53418202Y-47625002D01*
X53399561Y-47613022D01*
X53399558Y-47613021D01*
X53268368Y-47574500D01*
X53268367Y-47574500D01*
X53131633Y-47574500D01*
X53131631Y-47574500D01*
X53000441Y-47613021D01*
X53000439Y-47613021D01*
X53000439Y-47613022D01*
X52885411Y-47686945D01*
X52885410Y-47686945D01*
X52885410Y-47686946D01*
X52795868Y-47790284D01*
X52739069Y-47914654D01*
X52739067Y-47914662D01*
X52719610Y-48049997D01*
X52719610Y-48050002D01*
X45755205Y-48050002D01*
X45799561Y-48036978D01*
X45914589Y-47963055D01*
X46004130Y-47859718D01*
X46048276Y-47763053D01*
X46060930Y-47735345D01*
X46060932Y-47735337D01*
X46080390Y-47600002D01*
X46080390Y-47599997D01*
X46060932Y-47464662D01*
X46060930Y-47464654D01*
X46004131Y-47340284D01*
X46004130Y-47340283D01*
X46004130Y-47340282D01*
X45914589Y-47236945D01*
X45799561Y-47163022D01*
X45799558Y-47163021D01*
X45668368Y-47124500D01*
X45668367Y-47124500D01*
X45531633Y-47124500D01*
X45531631Y-47124500D01*
X45400441Y-47163021D01*
X45400439Y-47163021D01*
X45400439Y-47163022D01*
X45285411Y-47236945D01*
X45285410Y-47236945D01*
X45285410Y-47236946D01*
X45195868Y-47340284D01*
X45139069Y-47464654D01*
X45139067Y-47464662D01*
X45119610Y-47599997D01*
X45119610Y-47600002D01*
X35531402Y-47600002D01*
X35560931Y-47535342D01*
X35566012Y-47500002D01*
X35580390Y-47400002D01*
X35580390Y-47399997D01*
X35560932Y-47264662D01*
X35560930Y-47264654D01*
X35504131Y-47140284D01*
X35504130Y-47140283D01*
X35504130Y-47140282D01*
X35414589Y-47036945D01*
X35299561Y-46963022D01*
X35299558Y-46963021D01*
X35168368Y-46924500D01*
X35168367Y-46924500D01*
X35031633Y-46924500D01*
X35031631Y-46924500D01*
X34900441Y-46963021D01*
X34900439Y-46963021D01*
X34900439Y-46963022D01*
X34785411Y-47036945D01*
X34785410Y-47036945D01*
X34785410Y-47036946D01*
X34695868Y-47140284D01*
X34639069Y-47264654D01*
X34639067Y-47264662D01*
X34619610Y-47399997D01*
X34619610Y-47400002D01*
X14416269Y-47400002D01*
X14410164Y-47357543D01*
X14367744Y-47264658D01*
X14350376Y-47226627D01*
X14256127Y-47117857D01*
X14256126Y-47117856D01*
X14256125Y-47117855D01*
X14135056Y-47040049D01*
X14135053Y-47040047D01*
X14135052Y-47040047D01*
X14124491Y-47036946D01*
X13996963Y-46999500D01*
X13996960Y-46999500D01*
X13853038Y-46999500D01*
X13853034Y-46999500D01*
X13714948Y-47040046D01*
X13714941Y-47040049D01*
X13593872Y-47117855D01*
X13499621Y-47226628D01*
X13439833Y-47357543D01*
X13419352Y-47499997D01*
X13419352Y-47500002D01*
X1000000Y-47500002D01*
X1000000Y-46500002D01*
X10719610Y-46500002D01*
X10739067Y-46635337D01*
X10739069Y-46635345D01*
X10795868Y-46759715D01*
X10795869Y-46759716D01*
X10795870Y-46759718D01*
X10885411Y-46863055D01*
X11000439Y-46936978D01*
X11131633Y-46975500D01*
X11131634Y-46975500D01*
X11268366Y-46975500D01*
X11268367Y-46975500D01*
X11399561Y-46936978D01*
X11514589Y-46863055D01*
X11604130Y-46759718D01*
X11660931Y-46635342D01*
X11661021Y-46634715D01*
X11680390Y-46500002D01*
X11680390Y-46499997D01*
X11660932Y-46364662D01*
X11660930Y-46364654D01*
X11604131Y-46240284D01*
X11604130Y-46240283D01*
X11604130Y-46240282D01*
X11514589Y-46136945D01*
X11399561Y-46063022D01*
X11399558Y-46063021D01*
X11268368Y-46024500D01*
X11268367Y-46024500D01*
X11131633Y-46024500D01*
X11131631Y-46024500D01*
X11000441Y-46063021D01*
X11000439Y-46063021D01*
X11000439Y-46063022D01*
X10885411Y-46136945D01*
X10885410Y-46136945D01*
X10885410Y-46136946D01*
X10795868Y-46240284D01*
X10739069Y-46364654D01*
X10739067Y-46364662D01*
X10719610Y-46499997D01*
X10719610Y-46500002D01*
X1000000Y-46500002D01*
X1000000Y-46000002D01*
X25619610Y-46000002D01*
X25639067Y-46135337D01*
X25639069Y-46135345D01*
X25695868Y-46259715D01*
X25695869Y-46259716D01*
X25695870Y-46259718D01*
X25785411Y-46363055D01*
X25900439Y-46436978D01*
X26031633Y-46475500D01*
X26031634Y-46475500D01*
X26168366Y-46475500D01*
X26168367Y-46475500D01*
X26299561Y-46436978D01*
X26414589Y-46363055D01*
X26469224Y-46300002D01*
X27169610Y-46300002D01*
X27189067Y-46435337D01*
X27189069Y-46435345D01*
X27245868Y-46559715D01*
X27245869Y-46559716D01*
X27245870Y-46559718D01*
X27335411Y-46663055D01*
X27450439Y-46736978D01*
X27581633Y-46775500D01*
X27581634Y-46775500D01*
X27718366Y-46775500D01*
X27718367Y-46775500D01*
X27805205Y-46750002D01*
X55444353Y-46750002D01*
X55464834Y-46892456D01*
X55518387Y-47009718D01*
X55524623Y-47023373D01*
X55618872Y-47132143D01*
X55618873Y-47132144D01*
X55739942Y-47209950D01*
X55739947Y-47209953D01*
X55831878Y-47236946D01*
X55878035Y-47250499D01*
X55878036Y-47250499D01*
X55878039Y-47250500D01*
X55878041Y-47250500D01*
X56021959Y-47250500D01*
X56021961Y-47250500D01*
X56160053Y-47209953D01*
X56281128Y-47132143D01*
X56375377Y-47023373D01*
X56435165Y-46892457D01*
X56455647Y-46750002D01*
X77069610Y-46750002D01*
X77089067Y-46885337D01*
X77089069Y-46885345D01*
X77145868Y-47009715D01*
X77145869Y-47009716D01*
X77145870Y-47009718D01*
X77235411Y-47113055D01*
X77350439Y-47186978D01*
X77481633Y-47225500D01*
X77481634Y-47225500D01*
X77618366Y-47225500D01*
X77618367Y-47225500D01*
X77749561Y-47186978D01*
X77864589Y-47113055D01*
X77954130Y-47009718D01*
X77982530Y-46947530D01*
X78010930Y-46885345D01*
X78010932Y-46885337D01*
X78030390Y-46750002D01*
X78030390Y-46749997D01*
X78010932Y-46614662D01*
X78010930Y-46614654D01*
X77954131Y-46490284D01*
X77954130Y-46490283D01*
X77954130Y-46490282D01*
X77864589Y-46386945D01*
X77846005Y-46375002D01*
X82819610Y-46375002D01*
X82839067Y-46510337D01*
X82839069Y-46510345D01*
X82895868Y-46634715D01*
X82895869Y-46634716D01*
X82895870Y-46634718D01*
X82985411Y-46738055D01*
X83100439Y-46811978D01*
X83231633Y-46850500D01*
X83231634Y-46850500D01*
X83368366Y-46850500D01*
X83368367Y-46850500D01*
X83499561Y-46811978D01*
X83614589Y-46738055D01*
X83704130Y-46634718D01*
X83760931Y-46510342D01*
X83762418Y-46500000D01*
X83780390Y-46375002D01*
X83780390Y-46374997D01*
X83760932Y-46239662D01*
X83760930Y-46239654D01*
X83704131Y-46115284D01*
X83704130Y-46115283D01*
X83704130Y-46115282D01*
X83614589Y-46011945D01*
X83499561Y-45938022D01*
X83499558Y-45938021D01*
X83368368Y-45899500D01*
X83368367Y-45899500D01*
X83231633Y-45899500D01*
X83231631Y-45899500D01*
X83100441Y-45938021D01*
X83100439Y-45938021D01*
X83100439Y-45938022D01*
X82985411Y-46011945D01*
X82985410Y-46011945D01*
X82985410Y-46011946D01*
X82895868Y-46115284D01*
X82839069Y-46239654D01*
X82839067Y-46239662D01*
X82819610Y-46374997D01*
X82819610Y-46375002D01*
X77846005Y-46375002D01*
X77749561Y-46313022D01*
X77749558Y-46313021D01*
X77618368Y-46274500D01*
X77618367Y-46274500D01*
X77481633Y-46274500D01*
X77481631Y-46274500D01*
X77350441Y-46313021D01*
X77350439Y-46313021D01*
X77350439Y-46313022D01*
X77235411Y-46386945D01*
X77235410Y-46386945D01*
X77235410Y-46386946D01*
X77145868Y-46490284D01*
X77089069Y-46614654D01*
X77089067Y-46614662D01*
X77069610Y-46749997D01*
X77069610Y-46750002D01*
X56455647Y-46750002D01*
X56455647Y-46750000D01*
X56453929Y-46738053D01*
X56435165Y-46607543D01*
X56413322Y-46559715D01*
X56375377Y-46476627D01*
X56281128Y-46367857D01*
X56281127Y-46367856D01*
X56281126Y-46367855D01*
X56160057Y-46290049D01*
X56160054Y-46290047D01*
X56160053Y-46290047D01*
X56160050Y-46290046D01*
X56021964Y-46249500D01*
X56021961Y-46249500D01*
X55878039Y-46249500D01*
X55878035Y-46249500D01*
X55739949Y-46290046D01*
X55739942Y-46290049D01*
X55618873Y-46367855D01*
X55524622Y-46476628D01*
X55464834Y-46607543D01*
X55444353Y-46749997D01*
X55444353Y-46750002D01*
X27805205Y-46750002D01*
X27849561Y-46736978D01*
X27964589Y-46663055D01*
X28054130Y-46559718D01*
X28110859Y-46435500D01*
X28110930Y-46435345D01*
X28110932Y-46435337D01*
X28130390Y-46300002D01*
X28130390Y-46299997D01*
X28110932Y-46164662D01*
X28110930Y-46164654D01*
X28054131Y-46040284D01*
X28054130Y-46040283D01*
X28054130Y-46040282D01*
X27964589Y-45936945D01*
X27849561Y-45863022D01*
X27838309Y-45859718D01*
X27718368Y-45824500D01*
X27718367Y-45824500D01*
X27581633Y-45824500D01*
X27581631Y-45824500D01*
X27450441Y-45863021D01*
X27450439Y-45863021D01*
X27450439Y-45863022D01*
X27335411Y-45936945D01*
X27335410Y-45936945D01*
X27335410Y-45936946D01*
X27245868Y-46040284D01*
X27189069Y-46164654D01*
X27189067Y-46164662D01*
X27169610Y-46299997D01*
X27169610Y-46300002D01*
X26469224Y-46300002D01*
X26504130Y-46259718D01*
X26560184Y-46136978D01*
X26560930Y-46135345D01*
X26560932Y-46135337D01*
X26580390Y-46000002D01*
X26580390Y-45999997D01*
X26560932Y-45864662D01*
X26560930Y-45864654D01*
X26504131Y-45740284D01*
X26504130Y-45740283D01*
X26504130Y-45740282D01*
X26469228Y-45700002D01*
X28969610Y-45700002D01*
X28989067Y-45835337D01*
X28989069Y-45835345D01*
X29045868Y-45959715D01*
X29045869Y-45959716D01*
X29045870Y-45959718D01*
X29135411Y-46063055D01*
X29250439Y-46136978D01*
X29381633Y-46175500D01*
X29381634Y-46175500D01*
X29518366Y-46175500D01*
X29518367Y-46175500D01*
X29649561Y-46136978D01*
X29764589Y-46063055D01*
X29854130Y-45959718D01*
X29858567Y-45950002D01*
X49719610Y-45950002D01*
X49739067Y-46085337D01*
X49739069Y-46085345D01*
X49795868Y-46209715D01*
X49795869Y-46209716D01*
X49795870Y-46209718D01*
X49885411Y-46313055D01*
X50000439Y-46386978D01*
X50131633Y-46425500D01*
X50131634Y-46425500D01*
X50268366Y-46425500D01*
X50268367Y-46425500D01*
X50399561Y-46386978D01*
X50514589Y-46313055D01*
X50604130Y-46209718D01*
X50632530Y-46147530D01*
X50660930Y-46085345D01*
X50660932Y-46085337D01*
X50678952Y-45960002D01*
X52719610Y-45960002D01*
X52739067Y-46095337D01*
X52739069Y-46095345D01*
X52795868Y-46219715D01*
X52795869Y-46219716D01*
X52795870Y-46219718D01*
X52885411Y-46323055D01*
X53000439Y-46396978D01*
X53131633Y-46435500D01*
X53131634Y-46435500D01*
X53268366Y-46435500D01*
X53268367Y-46435500D01*
X53399561Y-46396978D01*
X53514589Y-46323055D01*
X53604130Y-46219718D01*
X53641931Y-46136946D01*
X53660930Y-46095345D01*
X53660932Y-46095337D01*
X53680390Y-45960002D01*
X53680390Y-45959997D01*
X53660932Y-45824662D01*
X53660930Y-45824654D01*
X53604131Y-45700284D01*
X53604130Y-45700283D01*
X53604130Y-45700282D01*
X53514589Y-45596945D01*
X53399561Y-45523022D01*
X53399558Y-45523021D01*
X53268368Y-45484500D01*
X53268367Y-45484500D01*
X53131633Y-45484500D01*
X53131631Y-45484500D01*
X53000441Y-45523021D01*
X53000439Y-45523021D01*
X53000439Y-45523022D01*
X52885411Y-45596945D01*
X52885410Y-45596945D01*
X52885410Y-45596946D01*
X52795868Y-45700284D01*
X52739069Y-45824654D01*
X52739067Y-45824662D01*
X52719610Y-45959997D01*
X52719610Y-45960002D01*
X50678952Y-45960002D01*
X50680390Y-45950002D01*
X50680390Y-45949997D01*
X50660932Y-45814662D01*
X50660930Y-45814654D01*
X50604131Y-45690284D01*
X50604130Y-45690283D01*
X50604130Y-45690282D01*
X50514589Y-45586945D01*
X50399561Y-45513022D01*
X50399558Y-45513021D01*
X50268368Y-45474500D01*
X50268367Y-45474500D01*
X50131633Y-45474500D01*
X50131631Y-45474500D01*
X50000441Y-45513021D01*
X50000439Y-45513021D01*
X50000439Y-45513022D01*
X49885411Y-45586945D01*
X49885410Y-45586945D01*
X49885410Y-45586946D01*
X49795868Y-45690284D01*
X49739069Y-45814654D01*
X49739067Y-45814662D01*
X49719610Y-45949997D01*
X49719610Y-45950002D01*
X29858567Y-45950002D01*
X29882530Y-45897530D01*
X29910930Y-45835345D01*
X29910932Y-45835337D01*
X29930390Y-45700002D01*
X29930390Y-45699997D01*
X29910932Y-45564662D01*
X29910930Y-45564654D01*
X29854131Y-45440284D01*
X29854130Y-45440283D01*
X29854130Y-45440282D01*
X29840891Y-45425003D01*
X41494353Y-45425003D01*
X41514834Y-45567457D01*
X41564176Y-45675499D01*
X41574623Y-45698374D01*
X41610938Y-45740284D01*
X41668873Y-45807145D01*
X41758372Y-45864662D01*
X41789947Y-45884954D01*
X41896403Y-45916212D01*
X41928035Y-45925500D01*
X41928036Y-45925500D01*
X41928039Y-45925501D01*
X41928041Y-45925501D01*
X42071959Y-45925501D01*
X42071961Y-45925501D01*
X42210053Y-45884954D01*
X42331128Y-45807144D01*
X42425377Y-45698374D01*
X42485165Y-45567458D01*
X42492992Y-45513021D01*
X42505647Y-45425003D01*
X42505647Y-45424998D01*
X42485165Y-45282544D01*
X42476264Y-45263053D01*
X42425377Y-45151628D01*
X42331128Y-45042858D01*
X42331127Y-45042857D01*
X42331126Y-45042856D01*
X42264444Y-45000002D01*
X43469610Y-45000002D01*
X43489067Y-45135337D01*
X43489069Y-45135345D01*
X43545868Y-45259715D01*
X43545869Y-45259716D01*
X43545870Y-45259718D01*
X43635411Y-45363055D01*
X43750439Y-45436978D01*
X43881633Y-45475500D01*
X43881634Y-45475500D01*
X44018366Y-45475500D01*
X44018367Y-45475500D01*
X44149561Y-45436978D01*
X44264589Y-45363055D01*
X44354130Y-45259718D01*
X44381402Y-45200002D01*
X45559610Y-45200002D01*
X45579067Y-45335337D01*
X45579069Y-45335345D01*
X45635868Y-45459715D01*
X45635869Y-45459716D01*
X45635870Y-45459718D01*
X45725411Y-45563055D01*
X45840439Y-45636978D01*
X45971633Y-45675500D01*
X45971634Y-45675500D01*
X46108366Y-45675500D01*
X46108367Y-45675500D01*
X46239561Y-45636978D01*
X46354589Y-45563055D01*
X46444130Y-45459718D01*
X46448567Y-45450002D01*
X56069610Y-45450002D01*
X56089067Y-45585337D01*
X56089069Y-45585345D01*
X56145868Y-45709715D01*
X56145869Y-45709716D01*
X56145870Y-45709718D01*
X56235411Y-45813055D01*
X56350439Y-45886978D01*
X56481633Y-45925500D01*
X56481634Y-45925500D01*
X56618366Y-45925500D01*
X56618367Y-45925500D01*
X56749561Y-45886978D01*
X56864589Y-45813055D01*
X56954130Y-45709718D01*
X56982530Y-45647530D01*
X57004236Y-45600002D01*
X60669610Y-45600002D01*
X60689067Y-45735337D01*
X60689069Y-45735345D01*
X60745868Y-45859715D01*
X60745869Y-45859716D01*
X60745870Y-45859718D01*
X60835411Y-45963055D01*
X60950439Y-46036978D01*
X61081633Y-46075500D01*
X61081634Y-46075500D01*
X61218366Y-46075500D01*
X61218367Y-46075500D01*
X61349561Y-46036978D01*
X61464589Y-45963055D01*
X61554130Y-45859718D01*
X61610931Y-45735342D01*
X61610987Y-45734953D01*
X61630390Y-45600002D01*
X61630390Y-45599997D01*
X61611946Y-45471717D01*
X61622379Y-45411428D01*
X61666257Y-45368786D01*
X61726820Y-45360078D01*
X61737825Y-45362636D01*
X61781633Y-45375500D01*
X61781634Y-45375500D01*
X61918366Y-45375500D01*
X61918367Y-45375500D01*
X62049561Y-45336978D01*
X62164589Y-45263055D01*
X62254130Y-45159718D01*
X62307499Y-45042858D01*
X62310930Y-45035345D01*
X62310932Y-45035337D01*
X62330390Y-44900002D01*
X62330390Y-44899997D01*
X62310932Y-44764662D01*
X62310930Y-44764654D01*
X62254131Y-44640284D01*
X62254130Y-44640283D01*
X62254130Y-44640282D01*
X62164589Y-44536945D01*
X62107104Y-44500002D01*
X70719610Y-44500002D01*
X70739067Y-44635337D01*
X70739069Y-44635345D01*
X70795868Y-44759715D01*
X70795869Y-44759716D01*
X70795870Y-44759718D01*
X70885411Y-44863055D01*
X71000439Y-44936978D01*
X71131633Y-44975500D01*
X71131634Y-44975500D01*
X71268366Y-44975500D01*
X71268367Y-44975500D01*
X71399561Y-44936978D01*
X71514589Y-44863055D01*
X71604130Y-44759718D01*
X71657409Y-44643055D01*
X71660930Y-44635345D01*
X71660932Y-44635337D01*
X71680390Y-44500002D01*
X71680390Y-44499997D01*
X71660932Y-44364662D01*
X71660930Y-44364654D01*
X71604131Y-44240284D01*
X71604130Y-44240283D01*
X71604130Y-44240282D01*
X71514589Y-44136945D01*
X71496005Y-44125002D01*
X81819610Y-44125002D01*
X81839067Y-44260337D01*
X81839069Y-44260345D01*
X81895868Y-44384715D01*
X81895869Y-44384716D01*
X81895870Y-44384718D01*
X81985411Y-44488055D01*
X82100439Y-44561978D01*
X82231633Y-44600500D01*
X82231634Y-44600500D01*
X82368366Y-44600500D01*
X82368367Y-44600500D01*
X82499561Y-44561978D01*
X82614589Y-44488055D01*
X82704130Y-44384718D01*
X82751953Y-44280002D01*
X82760930Y-44260345D01*
X82760932Y-44260337D01*
X82780390Y-44125002D01*
X82780390Y-44124997D01*
X82760932Y-43989662D01*
X82760930Y-43989654D01*
X82704131Y-43865284D01*
X82704130Y-43865283D01*
X82704130Y-43865282D01*
X82614589Y-43761945D01*
X82499561Y-43688022D01*
X82499558Y-43688021D01*
X82368368Y-43649500D01*
X82368367Y-43649500D01*
X82231633Y-43649500D01*
X82231631Y-43649500D01*
X82100441Y-43688021D01*
X82100439Y-43688021D01*
X82100439Y-43688022D01*
X81985411Y-43761945D01*
X81985410Y-43761945D01*
X81985410Y-43761946D01*
X81895868Y-43865284D01*
X81839069Y-43989654D01*
X81839067Y-43989662D01*
X81819610Y-44124997D01*
X81819610Y-44125002D01*
X71496005Y-44125002D01*
X71399561Y-44063022D01*
X71388309Y-44059718D01*
X71268368Y-44024500D01*
X71268367Y-44024500D01*
X71131633Y-44024500D01*
X71131631Y-44024500D01*
X71000441Y-44063021D01*
X71000439Y-44063021D01*
X71000439Y-44063022D01*
X70885411Y-44136945D01*
X70885410Y-44136945D01*
X70885410Y-44136946D01*
X70795868Y-44240284D01*
X70739069Y-44364654D01*
X70739067Y-44364662D01*
X70719610Y-44499997D01*
X70719610Y-44500002D01*
X62107104Y-44500002D01*
X62049561Y-44463022D01*
X62049558Y-44463021D01*
X61918368Y-44424500D01*
X61918367Y-44424500D01*
X61781633Y-44424500D01*
X61781631Y-44424500D01*
X61650441Y-44463021D01*
X61650439Y-44463021D01*
X61650439Y-44463022D01*
X61535411Y-44536945D01*
X61535410Y-44536945D01*
X61535410Y-44536946D01*
X61445868Y-44640284D01*
X61389069Y-44764654D01*
X61389067Y-44764662D01*
X61369610Y-44899997D01*
X61369610Y-44900003D01*
X61388053Y-45028282D01*
X61377620Y-45088572D01*
X61333741Y-45131214D01*
X61273179Y-45139921D01*
X61262170Y-45137361D01*
X61218370Y-45124500D01*
X61218367Y-45124500D01*
X61081633Y-45124500D01*
X61081631Y-45124500D01*
X60950441Y-45163021D01*
X60950439Y-45163021D01*
X60950439Y-45163022D01*
X60835411Y-45236945D01*
X60835410Y-45236945D01*
X60835410Y-45236946D01*
X60745868Y-45340284D01*
X60689069Y-45464654D01*
X60689067Y-45464662D01*
X60669610Y-45599997D01*
X60669610Y-45600002D01*
X57004236Y-45600002D01*
X57010930Y-45585345D01*
X57010932Y-45585336D01*
X57028893Y-45460412D01*
X57055888Y-45405504D01*
X57110003Y-45376950D01*
X57126885Y-45375500D01*
X57168366Y-45375500D01*
X57168367Y-45375500D01*
X57299561Y-45336978D01*
X57414589Y-45263055D01*
X57504130Y-45159718D01*
X57557499Y-45042858D01*
X57560930Y-45035345D01*
X57560932Y-45035337D01*
X57580390Y-44900002D01*
X57580390Y-44899997D01*
X57560932Y-44764662D01*
X57560930Y-44764654D01*
X57504131Y-44640284D01*
X57504130Y-44640283D01*
X57504130Y-44640282D01*
X57414589Y-44536945D01*
X57299561Y-44463022D01*
X57299558Y-44463021D01*
X57168368Y-44424500D01*
X57168367Y-44424500D01*
X57031633Y-44424500D01*
X57031631Y-44424500D01*
X56900441Y-44463021D01*
X56900439Y-44463021D01*
X56900439Y-44463022D01*
X56785411Y-44536945D01*
X56785410Y-44536945D01*
X56785410Y-44536946D01*
X56695868Y-44640284D01*
X56639069Y-44764654D01*
X56639067Y-44764663D01*
X56621106Y-44889589D01*
X56594110Y-44944497D01*
X56539996Y-44973050D01*
X56523114Y-44974500D01*
X56481631Y-44974500D01*
X56350441Y-45013021D01*
X56350439Y-45013021D01*
X56350439Y-45013022D01*
X56235411Y-45086945D01*
X56235410Y-45086945D01*
X56235410Y-45086946D01*
X56145868Y-45190284D01*
X56089069Y-45314654D01*
X56089067Y-45314662D01*
X56069610Y-45449997D01*
X56069610Y-45450002D01*
X46448567Y-45450002D01*
X46488465Y-45362638D01*
X46500930Y-45335345D01*
X46500932Y-45335337D01*
X46520390Y-45200002D01*
X46520390Y-45199997D01*
X46500932Y-45064662D01*
X46500930Y-45064654D01*
X46444131Y-44940283D01*
X46444130Y-44940282D01*
X46409228Y-44900003D01*
X46400413Y-44889829D01*
X46376596Y-44833472D01*
X46390454Y-44773877D01*
X46400414Y-44760169D01*
X46400805Y-44759718D01*
X46444130Y-44709718D01*
X46500931Y-44585342D01*
X46504140Y-44563022D01*
X46520390Y-44450002D01*
X46520390Y-44449997D01*
X46506013Y-44350002D01*
X58119610Y-44350002D01*
X58139067Y-44485337D01*
X58139069Y-44485345D01*
X58195868Y-44609715D01*
X58195869Y-44609716D01*
X58195870Y-44609718D01*
X58285411Y-44713055D01*
X58400439Y-44786978D01*
X58531633Y-44825500D01*
X58531634Y-44825500D01*
X58668366Y-44825500D01*
X58668367Y-44825500D01*
X58799561Y-44786978D01*
X58914589Y-44713055D01*
X59004130Y-44609718D01*
X59054237Y-44500000D01*
X59060930Y-44485345D01*
X59060932Y-44485336D01*
X59078893Y-44360412D01*
X59105888Y-44305504D01*
X59160003Y-44276950D01*
X59176885Y-44275500D01*
X59218366Y-44275500D01*
X59218367Y-44275500D01*
X59349561Y-44236978D01*
X59464589Y-44163055D01*
X59554130Y-44059718D01*
X59598276Y-43963053D01*
X59610930Y-43935345D01*
X59610932Y-43935336D01*
X59628893Y-43810412D01*
X59655888Y-43755504D01*
X59710003Y-43726950D01*
X59726885Y-43725500D01*
X59768366Y-43725500D01*
X59768367Y-43725500D01*
X59899561Y-43686978D01*
X60014589Y-43613055D01*
X60104130Y-43509718D01*
X60132530Y-43447530D01*
X60160930Y-43385345D01*
X60160932Y-43385336D01*
X60178893Y-43260412D01*
X60184011Y-43250002D01*
X76282109Y-43250002D01*
X76301566Y-43385337D01*
X76301568Y-43385345D01*
X76358367Y-43509715D01*
X76358368Y-43509716D01*
X76358369Y-43509718D01*
X76447910Y-43613055D01*
X76562938Y-43686978D01*
X76694132Y-43725500D01*
X76694133Y-43725500D01*
X76830865Y-43725500D01*
X76830866Y-43725500D01*
X76962060Y-43686978D01*
X77077088Y-43613055D01*
X77166629Y-43509718D01*
X77195029Y-43447530D01*
X77223429Y-43385345D01*
X77223431Y-43385337D01*
X77239295Y-43275002D01*
X78994353Y-43275002D01*
X79014834Y-43417456D01*
X79070073Y-43538411D01*
X79074623Y-43548373D01*
X79168872Y-43657143D01*
X79168873Y-43657144D01*
X79277494Y-43726950D01*
X79289947Y-43734953D01*
X79381878Y-43761946D01*
X79428035Y-43775499D01*
X79428036Y-43775499D01*
X79428039Y-43775500D01*
X79428041Y-43775500D01*
X79571959Y-43775500D01*
X79571961Y-43775500D01*
X79710053Y-43734953D01*
X79831128Y-43657143D01*
X79925377Y-43548373D01*
X79985165Y-43417457D01*
X79992987Y-43363053D01*
X80005647Y-43275002D01*
X80005647Y-43274997D01*
X79985165Y-43132543D01*
X79959114Y-43075500D01*
X79925377Y-43001627D01*
X79831128Y-42892857D01*
X79831127Y-42892856D01*
X79831126Y-42892855D01*
X79710057Y-42815049D01*
X79710054Y-42815047D01*
X79710053Y-42815047D01*
X79710050Y-42815046D01*
X79571964Y-42774500D01*
X79571961Y-42774500D01*
X79428039Y-42774500D01*
X79428035Y-42774500D01*
X79289949Y-42815046D01*
X79289942Y-42815049D01*
X79168873Y-42892855D01*
X79074622Y-43001628D01*
X79014834Y-43132543D01*
X78994353Y-43274997D01*
X78994353Y-43275002D01*
X77239295Y-43275002D01*
X77242889Y-43250002D01*
X77242889Y-43249997D01*
X77223431Y-43114662D01*
X77223429Y-43114654D01*
X77166630Y-42990284D01*
X77166629Y-42990283D01*
X77166629Y-42990282D01*
X77077088Y-42886945D01*
X76962060Y-42813022D01*
X76962057Y-42813021D01*
X76830867Y-42774500D01*
X76830866Y-42774500D01*
X76694132Y-42774500D01*
X76694130Y-42774500D01*
X76562940Y-42813021D01*
X76562938Y-42813021D01*
X76562938Y-42813022D01*
X76447910Y-42886945D01*
X76447909Y-42886945D01*
X76447909Y-42886946D01*
X76358367Y-42990284D01*
X76301568Y-43114654D01*
X76301566Y-43114662D01*
X76282109Y-43249997D01*
X76282109Y-43250002D01*
X60184011Y-43250002D01*
X60205888Y-43205504D01*
X60260003Y-43176950D01*
X60276885Y-43175500D01*
X60318366Y-43175500D01*
X60318367Y-43175500D01*
X60449561Y-43136978D01*
X60564589Y-43063055D01*
X60654130Y-42959718D01*
X60710931Y-42835342D01*
X60714140Y-42813022D01*
X60730390Y-42700002D01*
X60730390Y-42699997D01*
X60710932Y-42564662D01*
X60710930Y-42564654D01*
X60654131Y-42440284D01*
X60654130Y-42440283D01*
X60654130Y-42440282D01*
X60564589Y-42336945D01*
X60449561Y-42263022D01*
X60438309Y-42259718D01*
X60318368Y-42224500D01*
X60318367Y-42224500D01*
X60181633Y-42224500D01*
X60181631Y-42224500D01*
X60050441Y-42263021D01*
X60050439Y-42263021D01*
X60050439Y-42263022D01*
X59935411Y-42336945D01*
X59935410Y-42336945D01*
X59935410Y-42336946D01*
X59845868Y-42440284D01*
X59789069Y-42564654D01*
X59789067Y-42564663D01*
X59771106Y-42689589D01*
X59744110Y-42744497D01*
X59689996Y-42773050D01*
X59673114Y-42774500D01*
X59631631Y-42774500D01*
X59500441Y-42813021D01*
X59500439Y-42813021D01*
X59500439Y-42813022D01*
X59385411Y-42886945D01*
X59385410Y-42886945D01*
X59385410Y-42886946D01*
X59295868Y-42990284D01*
X59239069Y-43114654D01*
X59239067Y-43114663D01*
X59221106Y-43239589D01*
X59194110Y-43294497D01*
X59139996Y-43323050D01*
X59123114Y-43324500D01*
X59081631Y-43324500D01*
X58950441Y-43363021D01*
X58950439Y-43363021D01*
X58950439Y-43363022D01*
X58835411Y-43436945D01*
X58835410Y-43436945D01*
X58835410Y-43436946D01*
X58745868Y-43540284D01*
X58689069Y-43664654D01*
X58689067Y-43664663D01*
X58671106Y-43789589D01*
X58644110Y-43844497D01*
X58589996Y-43873050D01*
X58573114Y-43874500D01*
X58531631Y-43874500D01*
X58400441Y-43913021D01*
X58400439Y-43913021D01*
X58400439Y-43913022D01*
X58285411Y-43986945D01*
X58285410Y-43986945D01*
X58285410Y-43986946D01*
X58195868Y-44090284D01*
X58139069Y-44214654D01*
X58139067Y-44214662D01*
X58119610Y-44349997D01*
X58119610Y-44350002D01*
X46506013Y-44350002D01*
X46500932Y-44314662D01*
X46500930Y-44314654D01*
X46444131Y-44190284D01*
X46444130Y-44190283D01*
X46444130Y-44190282D01*
X46354589Y-44086945D01*
X46239561Y-44013022D01*
X46239558Y-44013021D01*
X46108368Y-43974500D01*
X46108367Y-43974500D01*
X45971633Y-43974500D01*
X45971631Y-43974500D01*
X45840441Y-44013021D01*
X45840439Y-44013021D01*
X45840439Y-44013022D01*
X45725411Y-44086945D01*
X45725410Y-44086945D01*
X45725410Y-44086946D01*
X45635868Y-44190284D01*
X45579069Y-44314654D01*
X45579067Y-44314662D01*
X45559610Y-44449997D01*
X45559610Y-44450002D01*
X45579067Y-44585337D01*
X45579069Y-44585345D01*
X45635868Y-44709715D01*
X45635869Y-44709716D01*
X45635870Y-44709718D01*
X45679195Y-44759718D01*
X45679586Y-44760169D01*
X45703403Y-44816529D01*
X45689544Y-44876124D01*
X45679588Y-44889827D01*
X45670772Y-44900003D01*
X45635868Y-44940284D01*
X45579069Y-45064654D01*
X45579067Y-45064662D01*
X45559610Y-45199997D01*
X45559610Y-45200002D01*
X44381402Y-45200002D01*
X44398290Y-45163022D01*
X44410930Y-45135345D01*
X44410932Y-45135337D01*
X44430390Y-45000002D01*
X44430390Y-44999997D01*
X44410932Y-44864662D01*
X44410930Y-44864654D01*
X44354131Y-44740284D01*
X44354130Y-44740283D01*
X44354130Y-44740282D01*
X44264589Y-44636945D01*
X44149561Y-44563022D01*
X44149558Y-44563021D01*
X44018368Y-44524500D01*
X44018367Y-44524500D01*
X43881633Y-44524500D01*
X43881631Y-44524500D01*
X43750441Y-44563021D01*
X43750439Y-44563021D01*
X43750439Y-44563022D01*
X43635411Y-44636945D01*
X43635410Y-44636945D01*
X43635410Y-44636946D01*
X43545868Y-44740284D01*
X43489069Y-44864654D01*
X43489067Y-44864662D01*
X43469610Y-44999997D01*
X43469610Y-45000002D01*
X42264444Y-45000002D01*
X42210057Y-44965050D01*
X42210054Y-44965048D01*
X42210053Y-44965048D01*
X42210050Y-44965047D01*
X42071964Y-44924501D01*
X42071961Y-44924501D01*
X41928039Y-44924501D01*
X41928035Y-44924501D01*
X41789949Y-44965047D01*
X41789942Y-44965050D01*
X41668873Y-45042856D01*
X41574622Y-45151629D01*
X41514834Y-45282544D01*
X41494353Y-45424998D01*
X41494353Y-45425003D01*
X29840891Y-45425003D01*
X29764589Y-45336945D01*
X29649561Y-45263022D01*
X29638309Y-45259718D01*
X29518368Y-45224500D01*
X29518367Y-45224500D01*
X29381633Y-45224500D01*
X29381631Y-45224500D01*
X29250441Y-45263021D01*
X29250439Y-45263021D01*
X29250439Y-45263022D01*
X29135411Y-45336945D01*
X29135410Y-45336945D01*
X29135410Y-45336946D01*
X29045868Y-45440284D01*
X28989069Y-45564654D01*
X28989067Y-45564662D01*
X28969610Y-45699997D01*
X28969610Y-45700002D01*
X26469228Y-45700002D01*
X26414589Y-45636945D01*
X26299561Y-45563022D01*
X26299558Y-45563021D01*
X26168368Y-45524500D01*
X26168367Y-45524500D01*
X26031633Y-45524500D01*
X26031631Y-45524500D01*
X25900441Y-45563021D01*
X25900439Y-45563021D01*
X25900439Y-45563022D01*
X25785411Y-45636945D01*
X25785410Y-45636945D01*
X25785410Y-45636946D01*
X25695868Y-45740284D01*
X25639069Y-45864654D01*
X25639067Y-45864662D01*
X25619610Y-45999997D01*
X25619610Y-46000002D01*
X1000000Y-46000002D01*
X1000000Y-45275002D01*
X14494353Y-45275002D01*
X14514834Y-45417456D01*
X14563045Y-45523021D01*
X14574623Y-45548373D01*
X14651399Y-45636978D01*
X14668873Y-45657144D01*
X14750680Y-45709718D01*
X14789947Y-45734953D01*
X14896403Y-45766211D01*
X14928035Y-45775499D01*
X14928036Y-45775499D01*
X14928039Y-45775500D01*
X14928041Y-45775500D01*
X15071959Y-45775500D01*
X15071961Y-45775500D01*
X15210053Y-45734953D01*
X15331128Y-45657143D01*
X15425377Y-45548373D01*
X15485165Y-45417457D01*
X15499946Y-45314654D01*
X15505647Y-45275002D01*
X15505647Y-45274997D01*
X15485165Y-45132543D01*
X15454164Y-45064662D01*
X15425377Y-45001627D01*
X15331128Y-44892857D01*
X15331127Y-44892856D01*
X15331126Y-44892855D01*
X15210057Y-44815049D01*
X15210054Y-44815047D01*
X15210053Y-44815047D01*
X15203269Y-44813055D01*
X15071964Y-44774500D01*
X15071961Y-44774500D01*
X14928039Y-44774500D01*
X14928035Y-44774500D01*
X14789949Y-44815046D01*
X14789942Y-44815049D01*
X14668873Y-44892855D01*
X14574622Y-45001628D01*
X14514834Y-45132543D01*
X14494353Y-45274997D01*
X14494353Y-45275002D01*
X1000000Y-45275002D01*
X1000000Y-44280002D01*
X7519610Y-44280002D01*
X7539067Y-44415337D01*
X7539069Y-44415345D01*
X7595868Y-44539715D01*
X7595869Y-44539716D01*
X7595870Y-44539718D01*
X7685411Y-44643055D01*
X7800439Y-44716978D01*
X7931633Y-44755500D01*
X7931634Y-44755500D01*
X8068366Y-44755500D01*
X8068367Y-44755500D01*
X8199561Y-44716978D01*
X8314589Y-44643055D01*
X8404130Y-44539718D01*
X8422268Y-44500002D01*
X16569610Y-44500002D01*
X16589067Y-44635337D01*
X16589069Y-44635345D01*
X16645868Y-44759715D01*
X16645869Y-44759716D01*
X16645870Y-44759718D01*
X16735411Y-44863055D01*
X16850439Y-44936978D01*
X16981633Y-44975500D01*
X16981634Y-44975500D01*
X17118366Y-44975500D01*
X17118367Y-44975500D01*
X17249561Y-44936978D01*
X17364589Y-44863055D01*
X17454130Y-44759718D01*
X17507409Y-44643055D01*
X17510930Y-44635345D01*
X17510932Y-44635337D01*
X17530390Y-44500002D01*
X17530390Y-44499997D01*
X17510932Y-44364662D01*
X17510930Y-44364654D01*
X17454131Y-44240284D01*
X17454130Y-44240283D01*
X17454130Y-44240282D01*
X17364589Y-44136945D01*
X17364588Y-44136944D01*
X17360028Y-44134014D01*
X17321297Y-44086647D01*
X17317805Y-44025562D01*
X17350884Y-43974089D01*
X17385657Y-43955741D01*
X17449561Y-43936978D01*
X17564589Y-43863055D01*
X17654130Y-43759718D01*
X17669984Y-43725002D01*
X40494353Y-43725002D01*
X40514834Y-43867456D01*
X40563533Y-43974089D01*
X40574623Y-43998373D01*
X40654262Y-44090282D01*
X40668873Y-44107144D01*
X40755873Y-44163055D01*
X40789947Y-44184953D01*
X40891114Y-44214658D01*
X40928035Y-44225499D01*
X40928036Y-44225499D01*
X40928039Y-44225500D01*
X40928041Y-44225500D01*
X41071959Y-44225500D01*
X41071961Y-44225500D01*
X41210053Y-44184953D01*
X41331128Y-44107143D01*
X41410332Y-44015735D01*
X41462726Y-43984141D01*
X41523687Y-43989376D01*
X41538664Y-43997278D01*
X41600439Y-44036978D01*
X41731633Y-44075500D01*
X41731634Y-44075500D01*
X41868366Y-44075500D01*
X41868367Y-44075500D01*
X41999561Y-44036978D01*
X42114589Y-43963055D01*
X42157286Y-43913779D01*
X42209681Y-43882184D01*
X42270642Y-43887419D01*
X42285618Y-43895321D01*
X42350439Y-43936978D01*
X42481633Y-43975500D01*
X42481634Y-43975500D01*
X42618366Y-43975500D01*
X42618367Y-43975500D01*
X42749561Y-43936978D01*
X42864589Y-43863055D01*
X42954130Y-43759718D01*
X43005354Y-43647551D01*
X43046725Y-43602476D01*
X43106692Y-43590325D01*
X43123295Y-43593689D01*
X43231633Y-43625500D01*
X43231634Y-43625500D01*
X43368366Y-43625500D01*
X43368367Y-43625500D01*
X43499561Y-43586978D01*
X43614589Y-43513055D01*
X43704130Y-43409718D01*
X43735841Y-43340282D01*
X43760930Y-43285345D01*
X43760932Y-43285337D01*
X43780390Y-43150002D01*
X43780390Y-43148658D01*
X43780736Y-43147590D01*
X43781398Y-43142992D01*
X43782193Y-43143106D01*
X43799297Y-43090467D01*
X43848797Y-43054503D01*
X43907280Y-43053668D01*
X43981633Y-43075500D01*
X43981634Y-43075500D01*
X44118366Y-43075500D01*
X44118367Y-43075500D01*
X44249561Y-43036978D01*
X44364589Y-42963055D01*
X44454130Y-42859718D01*
X44510931Y-42735342D01*
X44514140Y-42713022D01*
X44530390Y-42600002D01*
X44530390Y-42599997D01*
X44510932Y-42464662D01*
X44510930Y-42464654D01*
X44454131Y-42340284D01*
X44454130Y-42340283D01*
X44454130Y-42340282D01*
X44364589Y-42236945D01*
X44249561Y-42163022D01*
X44238309Y-42159718D01*
X44118368Y-42124500D01*
X44118367Y-42124500D01*
X43981633Y-42124500D01*
X43981631Y-42124500D01*
X43850441Y-42163021D01*
X43850439Y-42163021D01*
X43850439Y-42163022D01*
X43735411Y-42236945D01*
X43735410Y-42236945D01*
X43735410Y-42236946D01*
X43645868Y-42340284D01*
X43589069Y-42464654D01*
X43589067Y-42464662D01*
X43569610Y-42599997D01*
X43569610Y-42601341D01*
X43569263Y-42602407D01*
X43568602Y-42607008D01*
X43567805Y-42606893D01*
X43550703Y-42659532D01*
X43501203Y-42695496D01*
X43442719Y-42696331D01*
X43368370Y-42674500D01*
X43368367Y-42674500D01*
X43231633Y-42674500D01*
X43231631Y-42674500D01*
X43100441Y-42713021D01*
X43100439Y-42713021D01*
X43100439Y-42713022D01*
X42985411Y-42786945D01*
X42985410Y-42786945D01*
X42985410Y-42786946D01*
X42895869Y-42890283D01*
X42844645Y-43002446D01*
X42803273Y-43047523D01*
X42743306Y-43059674D01*
X42726701Y-43056309D01*
X42618370Y-43024500D01*
X42618367Y-43024500D01*
X42481633Y-43024500D01*
X42481631Y-43024500D01*
X42350441Y-43063021D01*
X42235407Y-43136947D01*
X42192714Y-43186219D01*
X42140318Y-43217815D01*
X42079357Y-43212579D01*
X42064373Y-43204673D01*
X42033740Y-43184987D01*
X41999561Y-43163022D01*
X41931345Y-43142992D01*
X41868368Y-43124500D01*
X41868367Y-43124500D01*
X41731633Y-43124500D01*
X41731631Y-43124500D01*
X41600441Y-43163021D01*
X41600439Y-43163021D01*
X41600439Y-43163022D01*
X41535628Y-43204673D01*
X41485408Y-43236947D01*
X41427455Y-43303829D01*
X41375059Y-43335425D01*
X41314098Y-43330189D01*
X41299113Y-43322282D01*
X41210057Y-43265049D01*
X41210054Y-43265047D01*
X41210053Y-43265047D01*
X41203269Y-43263055D01*
X41071964Y-43224500D01*
X41071961Y-43224500D01*
X40928039Y-43224500D01*
X40928035Y-43224500D01*
X40789949Y-43265046D01*
X40789942Y-43265049D01*
X40668873Y-43342855D01*
X40574622Y-43451628D01*
X40514834Y-43582543D01*
X40494353Y-43724997D01*
X40494353Y-43725002D01*
X17669984Y-43725002D01*
X17686873Y-43688021D01*
X17710930Y-43635345D01*
X17710932Y-43635337D01*
X17730390Y-43500002D01*
X17730390Y-43499997D01*
X17710932Y-43364662D01*
X17710930Y-43364654D01*
X17654131Y-43240284D01*
X17654130Y-43240283D01*
X17654130Y-43240282D01*
X17564589Y-43136945D01*
X17449561Y-43063022D01*
X17420548Y-43054503D01*
X17318368Y-43024500D01*
X17318367Y-43024500D01*
X17181633Y-43024500D01*
X17181631Y-43024500D01*
X17050441Y-43063021D01*
X17050439Y-43063021D01*
X17050439Y-43063022D01*
X16935411Y-43136945D01*
X16935410Y-43136945D01*
X16935410Y-43136946D01*
X16845868Y-43240284D01*
X16789069Y-43364654D01*
X16789067Y-43364662D01*
X16769610Y-43499997D01*
X16769610Y-43500002D01*
X16789067Y-43635337D01*
X16789069Y-43635345D01*
X16845868Y-43759715D01*
X16845869Y-43759716D01*
X16845870Y-43759718D01*
X16935411Y-43863055D01*
X16938879Y-43865284D01*
X16939969Y-43865984D01*
X16978701Y-43913350D01*
X16982195Y-43974435D01*
X16949116Y-44025908D01*
X16914339Y-44044259D01*
X16850441Y-44063021D01*
X16850439Y-44063021D01*
X16850439Y-44063022D01*
X16735411Y-44136945D01*
X16735410Y-44136945D01*
X16735410Y-44136946D01*
X16645868Y-44240284D01*
X16589069Y-44364654D01*
X16589067Y-44364662D01*
X16569610Y-44499997D01*
X16569610Y-44500002D01*
X8422268Y-44500002D01*
X8445103Y-44450000D01*
X8460930Y-44415345D01*
X8460932Y-44415337D01*
X8480390Y-44280002D01*
X8480390Y-44279997D01*
X8460932Y-44144662D01*
X8460930Y-44144654D01*
X8404131Y-44020284D01*
X8404130Y-44020283D01*
X8404130Y-44020282D01*
X8314589Y-43916945D01*
X8199561Y-43843022D01*
X8183350Y-43838262D01*
X8068368Y-43804500D01*
X8068367Y-43804500D01*
X7931633Y-43804500D01*
X7931631Y-43804500D01*
X7800441Y-43843021D01*
X7800439Y-43843021D01*
X7800439Y-43843022D01*
X7685411Y-43916945D01*
X7685410Y-43916945D01*
X7685410Y-43916946D01*
X7595868Y-44020284D01*
X7539069Y-44144654D01*
X7539067Y-44144662D01*
X7519610Y-44279997D01*
X7519610Y-44280002D01*
X1000000Y-44280002D01*
X1000000Y-41775002D01*
X14494353Y-41775002D01*
X14514834Y-41917456D01*
X14568672Y-42035342D01*
X14574623Y-42048373D01*
X14649984Y-42135345D01*
X14668873Y-42157144D01*
X14789942Y-42234950D01*
X14789947Y-42234953D01*
X14885655Y-42263055D01*
X14928035Y-42275499D01*
X14928036Y-42275499D01*
X14928039Y-42275500D01*
X14928041Y-42275500D01*
X15071959Y-42275500D01*
X15071961Y-42275500D01*
X15210053Y-42234953D01*
X15331128Y-42157143D01*
X15380641Y-42100002D01*
X45559610Y-42100002D01*
X45579067Y-42235337D01*
X45579069Y-42235345D01*
X45635868Y-42359715D01*
X45635869Y-42359716D01*
X45635870Y-42359718D01*
X45725411Y-42463055D01*
X45736108Y-42469929D01*
X45774838Y-42517294D01*
X45778332Y-42578380D01*
X45745253Y-42629852D01*
X45736111Y-42636495D01*
X45735412Y-42636944D01*
X45735411Y-42636944D01*
X45735411Y-42636945D01*
X45705564Y-42671390D01*
X45645868Y-42740284D01*
X45589069Y-42864654D01*
X45589067Y-42864662D01*
X45569610Y-42999997D01*
X45569610Y-43000002D01*
X45589067Y-43135337D01*
X45589069Y-43135345D01*
X45645868Y-43259715D01*
X45645869Y-43259716D01*
X45645870Y-43259718D01*
X45735411Y-43363055D01*
X45850439Y-43436978D01*
X45981633Y-43475500D01*
X45981634Y-43475500D01*
X46118366Y-43475500D01*
X46118367Y-43475500D01*
X46249561Y-43436978D01*
X46364589Y-43363055D01*
X46454130Y-43259718D01*
X46498290Y-43163022D01*
X46510930Y-43135345D01*
X46510932Y-43135337D01*
X46530390Y-43000002D01*
X46530390Y-42999997D01*
X46516013Y-42900002D01*
X53479610Y-42900002D01*
X53499067Y-43035337D01*
X53499069Y-43035345D01*
X53555868Y-43159715D01*
X53555869Y-43159716D01*
X53555870Y-43159718D01*
X53645411Y-43263055D01*
X53760439Y-43336978D01*
X53891633Y-43375500D01*
X53891634Y-43375500D01*
X54028366Y-43375500D01*
X54028367Y-43375500D01*
X54159561Y-43336978D01*
X54274589Y-43263055D01*
X54364130Y-43159718D01*
X54408290Y-43063022D01*
X54420930Y-43035345D01*
X54420932Y-43035337D01*
X54440390Y-42900002D01*
X54440390Y-42899997D01*
X54420932Y-42764662D01*
X54420930Y-42764654D01*
X54364131Y-42640284D01*
X54364130Y-42640283D01*
X54364130Y-42640282D01*
X54274589Y-42536945D01*
X54274588Y-42536944D01*
X54244011Y-42517294D01*
X54191088Y-42483283D01*
X54152358Y-42435919D01*
X54148864Y-42374834D01*
X54181943Y-42323361D01*
X54191080Y-42316722D01*
X54274589Y-42263055D01*
X54364130Y-42159718D01*
X54392530Y-42097530D01*
X54420930Y-42035345D01*
X54420932Y-42035337D01*
X54426012Y-42000002D01*
X55444353Y-42000002D01*
X55464834Y-42142456D01*
X55518387Y-42259718D01*
X55524623Y-42273373D01*
X55612539Y-42374834D01*
X55618873Y-42382144D01*
X55702549Y-42435919D01*
X55739947Y-42459953D01*
X55846403Y-42491211D01*
X55878035Y-42500499D01*
X55878036Y-42500499D01*
X55878039Y-42500500D01*
X55878041Y-42500500D01*
X56021959Y-42500500D01*
X56021961Y-42500500D01*
X56160053Y-42459953D01*
X56281128Y-42382143D01*
X56375377Y-42273373D01*
X56435165Y-42142457D01*
X56448692Y-42048373D01*
X56455647Y-42000002D01*
X56455647Y-41999997D01*
X56435165Y-41857543D01*
X56402193Y-41785345D01*
X56375377Y-41726627D01*
X56308982Y-41650002D01*
X75882110Y-41650002D01*
X75901567Y-41785337D01*
X75901569Y-41785345D01*
X75958368Y-41909715D01*
X75958369Y-41909716D01*
X75958370Y-41909718D01*
X76047911Y-42013055D01*
X76162939Y-42086978D01*
X76294133Y-42125500D01*
X76294134Y-42125500D01*
X76430866Y-42125500D01*
X76430867Y-42125500D01*
X76562061Y-42086978D01*
X76677089Y-42013055D01*
X76688399Y-42000002D01*
X86669609Y-42000002D01*
X86689066Y-42135337D01*
X86689068Y-42135345D01*
X86745867Y-42259715D01*
X86745868Y-42259716D01*
X86745869Y-42259718D01*
X86835410Y-42363055D01*
X86950438Y-42436978D01*
X87081632Y-42475500D01*
X87081633Y-42475500D01*
X87218365Y-42475500D01*
X87218366Y-42475500D01*
X87349560Y-42436978D01*
X87464588Y-42363055D01*
X87554129Y-42259718D01*
X87598289Y-42163022D01*
X87610929Y-42135345D01*
X87610931Y-42135337D01*
X87630389Y-42000002D01*
X87630389Y-41999997D01*
X87610931Y-41864662D01*
X87610929Y-41864654D01*
X87554130Y-41740284D01*
X87554129Y-41740283D01*
X87554129Y-41740282D01*
X87464588Y-41636945D01*
X87349560Y-41563022D01*
X87349557Y-41563021D01*
X87218367Y-41524500D01*
X87218366Y-41524500D01*
X87081632Y-41524500D01*
X87081630Y-41524500D01*
X86950440Y-41563021D01*
X86950438Y-41563021D01*
X86950438Y-41563022D01*
X86835410Y-41636945D01*
X86835409Y-41636945D01*
X86835409Y-41636946D01*
X86745867Y-41740284D01*
X86689068Y-41864654D01*
X86689066Y-41864662D01*
X86669609Y-41999997D01*
X86669609Y-42000002D01*
X76688399Y-42000002D01*
X76766630Y-41909718D01*
X76823431Y-41785342D01*
X76824918Y-41775000D01*
X76842890Y-41650002D01*
X76842890Y-41649997D01*
X76823432Y-41514662D01*
X76823430Y-41514654D01*
X76766631Y-41390284D01*
X76766630Y-41390283D01*
X76766630Y-41390282D01*
X76677089Y-41286945D01*
X76562061Y-41213022D01*
X76562058Y-41213021D01*
X76430868Y-41174500D01*
X76430867Y-41174500D01*
X76294133Y-41174500D01*
X76294131Y-41174500D01*
X76162941Y-41213021D01*
X76162939Y-41213021D01*
X76162939Y-41213022D01*
X76047911Y-41286945D01*
X76047910Y-41286945D01*
X76047910Y-41286946D01*
X75958368Y-41390284D01*
X75901569Y-41514654D01*
X75901567Y-41514662D01*
X75882110Y-41649997D01*
X75882110Y-41650002D01*
X56308982Y-41650002D01*
X56281128Y-41617857D01*
X56281127Y-41617856D01*
X56281126Y-41617855D01*
X56160057Y-41540049D01*
X56160054Y-41540047D01*
X56160053Y-41540047D01*
X56149492Y-41536946D01*
X56021964Y-41499500D01*
X56021961Y-41499500D01*
X55878039Y-41499500D01*
X55878035Y-41499500D01*
X55739949Y-41540046D01*
X55739942Y-41540049D01*
X55618873Y-41617855D01*
X55524622Y-41726628D01*
X55464834Y-41857543D01*
X55444353Y-41999997D01*
X55444353Y-42000002D01*
X54426012Y-42000002D01*
X54440390Y-41900002D01*
X54440390Y-41899997D01*
X54420932Y-41764662D01*
X54420930Y-41764654D01*
X54364131Y-41640284D01*
X54364130Y-41640283D01*
X54364130Y-41640282D01*
X54274589Y-41536945D01*
X54159561Y-41463022D01*
X54159558Y-41463021D01*
X54028368Y-41424500D01*
X54028367Y-41424500D01*
X53891633Y-41424500D01*
X53891631Y-41424500D01*
X53760441Y-41463021D01*
X53760439Y-41463021D01*
X53760439Y-41463022D01*
X53645411Y-41536945D01*
X53645410Y-41536945D01*
X53645410Y-41536946D01*
X53555868Y-41640284D01*
X53499069Y-41764654D01*
X53499067Y-41764662D01*
X53479610Y-41899997D01*
X53479610Y-41900002D01*
X53499067Y-42035337D01*
X53499069Y-42035345D01*
X53555868Y-42159715D01*
X53555869Y-42159716D01*
X53555870Y-42159718D01*
X53645411Y-42263055D01*
X53645412Y-42263056D01*
X53728910Y-42316716D01*
X53767641Y-42364081D01*
X53771135Y-42425167D01*
X53738056Y-42476640D01*
X53728910Y-42483284D01*
X53645412Y-42536943D01*
X53555868Y-42640284D01*
X53499069Y-42764654D01*
X53499067Y-42764662D01*
X53479610Y-42899997D01*
X53479610Y-42900002D01*
X46516013Y-42900002D01*
X46510932Y-42864662D01*
X46510930Y-42864654D01*
X46454131Y-42740284D01*
X46454130Y-42740283D01*
X46454130Y-42740282D01*
X46364589Y-42636945D01*
X46353890Y-42630069D01*
X46315160Y-42582703D01*
X46311668Y-42521618D01*
X46344747Y-42470146D01*
X46353892Y-42463502D01*
X46354589Y-42463055D01*
X46444130Y-42359718D01*
X46483564Y-42273371D01*
X46500930Y-42235345D01*
X46500932Y-42235337D01*
X46520390Y-42100002D01*
X46520390Y-42099997D01*
X46500932Y-41964662D01*
X46500930Y-41964654D01*
X46444131Y-41840284D01*
X46444130Y-41840283D01*
X46444130Y-41840282D01*
X46354589Y-41736945D01*
X46239561Y-41663022D01*
X46239558Y-41663021D01*
X46108368Y-41624500D01*
X46108367Y-41624500D01*
X45971633Y-41624500D01*
X45971631Y-41624500D01*
X45840441Y-41663021D01*
X45840439Y-41663021D01*
X45840439Y-41663022D01*
X45725411Y-41736945D01*
X45725410Y-41736945D01*
X45725410Y-41736946D01*
X45635868Y-41840284D01*
X45579069Y-41964654D01*
X45579067Y-41964662D01*
X45559610Y-42099997D01*
X45559610Y-42100002D01*
X15380641Y-42100002D01*
X15425377Y-42048373D01*
X15485165Y-41917457D01*
X15505575Y-41775500D01*
X15505647Y-41775002D01*
X15505647Y-41774997D01*
X15485165Y-41632543D01*
X15463609Y-41585342D01*
X15425377Y-41501627D01*
X15380644Y-41450002D01*
X16469610Y-41450002D01*
X16489067Y-41585337D01*
X16489069Y-41585345D01*
X16545868Y-41709715D01*
X16545869Y-41709716D01*
X16545870Y-41709718D01*
X16635411Y-41813055D01*
X16750439Y-41886978D01*
X16881633Y-41925500D01*
X16881634Y-41925500D01*
X17018366Y-41925500D01*
X17018367Y-41925500D01*
X17149561Y-41886978D01*
X17264589Y-41813055D01*
X17354130Y-41709718D01*
X17410931Y-41585342D01*
X17414140Y-41563022D01*
X17430390Y-41450002D01*
X17430390Y-41449997D01*
X17410932Y-41314662D01*
X17410930Y-41314654D01*
X17392821Y-41275002D01*
X34494353Y-41275002D01*
X34514834Y-41417456D01*
X34574622Y-41548371D01*
X34574623Y-41548373D01*
X34668872Y-41657143D01*
X34668873Y-41657144D01*
X34750680Y-41709718D01*
X34789947Y-41734953D01*
X34891114Y-41764658D01*
X34928035Y-41775499D01*
X34928036Y-41775499D01*
X34928039Y-41775500D01*
X34928041Y-41775500D01*
X35071959Y-41775500D01*
X35071961Y-41775500D01*
X35210053Y-41734953D01*
X35331128Y-41657143D01*
X35425377Y-41548373D01*
X35485165Y-41417457D01*
X35499946Y-41314654D01*
X35505647Y-41275002D01*
X35505647Y-41274997D01*
X35485165Y-41132543D01*
X35459399Y-41076124D01*
X35425377Y-41001627D01*
X35331128Y-40892857D01*
X35331127Y-40892856D01*
X35331126Y-40892855D01*
X35210057Y-40815049D01*
X35210054Y-40815047D01*
X35210053Y-40815047D01*
X35210050Y-40815046D01*
X35071964Y-40774500D01*
X35071961Y-40774500D01*
X34928039Y-40774500D01*
X34928035Y-40774500D01*
X34789949Y-40815046D01*
X34789942Y-40815049D01*
X34668873Y-40892855D01*
X34574622Y-41001628D01*
X34514834Y-41132543D01*
X34494353Y-41274997D01*
X34494353Y-41275002D01*
X17392821Y-41275002D01*
X17354131Y-41190284D01*
X17354130Y-41190283D01*
X17354130Y-41190282D01*
X17267088Y-41089829D01*
X17243272Y-41033471D01*
X17257131Y-40973876D01*
X17267085Y-40960174D01*
X17354130Y-40859718D01*
X17410931Y-40735342D01*
X17414140Y-40713022D01*
X17430390Y-40600002D01*
X17430390Y-40599997D01*
X17410932Y-40464662D01*
X17410930Y-40464654D01*
X17404239Y-40450002D01*
X75656853Y-40450002D01*
X75677334Y-40592456D01*
X75714803Y-40674500D01*
X75737123Y-40723373D01*
X75816560Y-40815049D01*
X75831373Y-40832144D01*
X75921838Y-40890282D01*
X75952447Y-40909953D01*
X76058903Y-40941211D01*
X76090535Y-40950499D01*
X76090536Y-40950499D01*
X76090539Y-40950500D01*
X76090541Y-40950500D01*
X76234459Y-40950500D01*
X76234461Y-40950500D01*
X76372553Y-40909953D01*
X76493628Y-40832143D01*
X76587877Y-40723373D01*
X76647665Y-40592457D01*
X76668147Y-40450000D01*
X76668147Y-40449997D01*
X76668147Y-40449996D01*
X76655724Y-40363589D01*
X76666157Y-40303299D01*
X76710036Y-40260657D01*
X76753716Y-40250500D01*
X76834458Y-40250500D01*
X76834460Y-40250500D01*
X76972552Y-40209953D01*
X77093627Y-40132143D01*
X77187876Y-40023373D01*
X77247664Y-39892457D01*
X77260885Y-39800500D01*
X77268146Y-39750002D01*
X77268146Y-39749997D01*
X77247664Y-39607543D01*
X77219091Y-39544978D01*
X77187876Y-39476627D01*
X77093627Y-39367857D01*
X77093626Y-39367856D01*
X77093625Y-39367855D01*
X76988043Y-39300002D01*
X78919353Y-39300002D01*
X78939834Y-39442456D01*
X78961676Y-39490282D01*
X78999623Y-39573373D01*
X79035400Y-39614662D01*
X79093873Y-39682144D01*
X79199463Y-39750002D01*
X79214947Y-39759953D01*
X79321403Y-39791211D01*
X79353035Y-39800499D01*
X79353036Y-39800499D01*
X79353039Y-39800500D01*
X79353041Y-39800500D01*
X79496959Y-39800500D01*
X79496961Y-39800500D01*
X79635053Y-39759953D01*
X79756128Y-39682143D01*
X79850377Y-39573373D01*
X79910165Y-39442457D01*
X79922061Y-39359715D01*
X79930647Y-39300002D01*
X79930647Y-39299997D01*
X79910165Y-39157543D01*
X79887539Y-39108000D01*
X79850377Y-39026627D01*
X79756128Y-38917857D01*
X79756127Y-38917856D01*
X79756126Y-38917855D01*
X79635057Y-38840049D01*
X79635054Y-38840047D01*
X79635053Y-38840047D01*
X79635050Y-38840046D01*
X79496964Y-38799500D01*
X79496961Y-38799500D01*
X79353039Y-38799500D01*
X79353035Y-38799500D01*
X79214949Y-38840046D01*
X79214942Y-38840049D01*
X79093873Y-38917855D01*
X78999622Y-39026628D01*
X78939834Y-39157543D01*
X78919353Y-39299997D01*
X78919353Y-39300002D01*
X76988043Y-39300002D01*
X76972556Y-39290049D01*
X76972553Y-39290047D01*
X76972552Y-39290047D01*
X76972549Y-39290046D01*
X76834463Y-39249500D01*
X76834460Y-39249500D01*
X76690538Y-39249500D01*
X76690534Y-39249500D01*
X76552448Y-39290046D01*
X76552441Y-39290049D01*
X76431372Y-39367855D01*
X76337121Y-39476628D01*
X76277333Y-39607543D01*
X76256852Y-39749997D01*
X76256852Y-39750003D01*
X76269275Y-39836411D01*
X76258842Y-39896701D01*
X76214963Y-39939343D01*
X76171283Y-39949500D01*
X76090535Y-39949500D01*
X75952449Y-39990046D01*
X75952442Y-39990049D01*
X75831373Y-40067855D01*
X75737122Y-40176628D01*
X75677334Y-40307543D01*
X75656853Y-40449997D01*
X75656853Y-40450002D01*
X17404239Y-40450002D01*
X17354131Y-40340284D01*
X17354130Y-40340283D01*
X17354130Y-40340282D01*
X17267088Y-40239829D01*
X17243272Y-40183471D01*
X17257131Y-40123876D01*
X17267085Y-40110174D01*
X17354130Y-40009718D01*
X17386269Y-39939343D01*
X17410930Y-39885345D01*
X17410932Y-39885337D01*
X17430390Y-39750002D01*
X17430390Y-39749997D01*
X17410932Y-39614662D01*
X17410930Y-39614654D01*
X17354131Y-39490284D01*
X17354130Y-39490283D01*
X17354130Y-39490282D01*
X17264589Y-39386945D01*
X17149561Y-39313022D01*
X17132383Y-39307978D01*
X17018368Y-39274500D01*
X17018367Y-39274500D01*
X16881633Y-39274500D01*
X16881631Y-39274500D01*
X16750441Y-39313021D01*
X16750439Y-39313021D01*
X16750439Y-39313022D01*
X16635411Y-39386945D01*
X16635410Y-39386945D01*
X16635410Y-39386946D01*
X16545868Y-39490284D01*
X16489069Y-39614654D01*
X16489067Y-39614662D01*
X16469610Y-39749997D01*
X16469610Y-39750002D01*
X16489067Y-39885337D01*
X16489069Y-39885345D01*
X16545868Y-40009716D01*
X16545869Y-40009717D01*
X16632910Y-40110170D01*
X16656727Y-40166529D01*
X16642868Y-40226124D01*
X16632910Y-40239830D01*
X16545869Y-40340282D01*
X16545868Y-40340283D01*
X16489069Y-40464654D01*
X16489067Y-40464662D01*
X16469610Y-40599997D01*
X16469610Y-40600002D01*
X16489067Y-40735337D01*
X16489069Y-40735345D01*
X16545868Y-40859716D01*
X16545869Y-40859717D01*
X16632910Y-40960170D01*
X16656727Y-41016529D01*
X16642868Y-41076124D01*
X16632910Y-41089830D01*
X16545869Y-41190282D01*
X16545868Y-41190283D01*
X16489069Y-41314654D01*
X16489067Y-41314662D01*
X16469610Y-41449997D01*
X16469610Y-41450002D01*
X15380644Y-41450002D01*
X15331128Y-41392857D01*
X15331127Y-41392856D01*
X15331126Y-41392855D01*
X15210057Y-41315049D01*
X15210054Y-41315047D01*
X15210053Y-41315047D01*
X15208742Y-41314662D01*
X15071964Y-41274500D01*
X15071961Y-41274500D01*
X14928039Y-41274500D01*
X14928035Y-41274500D01*
X14789949Y-41315046D01*
X14789942Y-41315049D01*
X14668873Y-41392855D01*
X14574622Y-41501628D01*
X14514834Y-41632543D01*
X14494353Y-41774997D01*
X14494353Y-41775002D01*
X1000000Y-41775002D01*
X1000000Y-41150002D01*
X12319610Y-41150002D01*
X12339067Y-41285337D01*
X12339069Y-41285345D01*
X12395868Y-41409715D01*
X12395869Y-41409716D01*
X12395870Y-41409718D01*
X12485411Y-41513055D01*
X12600439Y-41586978D01*
X12731633Y-41625500D01*
X12731634Y-41625500D01*
X12868366Y-41625500D01*
X12868367Y-41625500D01*
X12999561Y-41586978D01*
X13114589Y-41513055D01*
X13204130Y-41409718D01*
X13247545Y-41314654D01*
X13260930Y-41285345D01*
X13260932Y-41285337D01*
X13280390Y-41150002D01*
X13280390Y-41149997D01*
X13260932Y-41014662D01*
X13260930Y-41014654D01*
X13204131Y-40890284D01*
X13204130Y-40890283D01*
X13204130Y-40890282D01*
X13114589Y-40786945D01*
X12999561Y-40713022D01*
X12999558Y-40713021D01*
X12868368Y-40674500D01*
X12868367Y-40674500D01*
X12731633Y-40674500D01*
X12731631Y-40674500D01*
X12600441Y-40713021D01*
X12600439Y-40713021D01*
X12600439Y-40713022D01*
X12485411Y-40786945D01*
X12485410Y-40786945D01*
X12485410Y-40786946D01*
X12395868Y-40890284D01*
X12339069Y-41014654D01*
X12339067Y-41014662D01*
X12319610Y-41149997D01*
X12319610Y-41150002D01*
X1000000Y-41150002D01*
X1000000Y-38275002D01*
X14494353Y-38275002D01*
X14514834Y-38417456D01*
X14564872Y-38527021D01*
X14574623Y-38548373D01*
X14640587Y-38624500D01*
X14668873Y-38657144D01*
X14742225Y-38704284D01*
X14789947Y-38734953D01*
X14896403Y-38766211D01*
X14928035Y-38775499D01*
X14928036Y-38775499D01*
X14928039Y-38775500D01*
X14928041Y-38775500D01*
X15071959Y-38775500D01*
X15071961Y-38775500D01*
X15210053Y-38734953D01*
X15331128Y-38657143D01*
X15425377Y-38548373D01*
X15485165Y-38417457D01*
X15503251Y-38291663D01*
X15505647Y-38275002D01*
X15505647Y-38274997D01*
X15485165Y-38132543D01*
X15453837Y-38063945D01*
X15425377Y-38001627D01*
X15331128Y-37892857D01*
X15331127Y-37892856D01*
X15331126Y-37892855D01*
X15210057Y-37815049D01*
X15210054Y-37815047D01*
X15210053Y-37815047D01*
X15210050Y-37815046D01*
X15071964Y-37774500D01*
X15071961Y-37774500D01*
X14928039Y-37774500D01*
X14928035Y-37774500D01*
X14789949Y-37815046D01*
X14789942Y-37815049D01*
X14668873Y-37892855D01*
X14574622Y-38001628D01*
X14514834Y-38132543D01*
X14494353Y-38274997D01*
X14494353Y-38275002D01*
X1000000Y-38275002D01*
X1000000Y-37100002D01*
X13469610Y-37100002D01*
X13489067Y-37235337D01*
X13489069Y-37235345D01*
X13545868Y-37359715D01*
X13545869Y-37359716D01*
X13545870Y-37359718D01*
X13635411Y-37463055D01*
X13750439Y-37536978D01*
X13881633Y-37575500D01*
X13881634Y-37575500D01*
X14018366Y-37575500D01*
X14018367Y-37575500D01*
X14149561Y-37536978D01*
X14264589Y-37463055D01*
X14354130Y-37359718D01*
X14393048Y-37274500D01*
X14410930Y-37235345D01*
X14410932Y-37235337D01*
X14430390Y-37100002D01*
X14430390Y-37099997D01*
X14410932Y-36964662D01*
X14410930Y-36964654D01*
X14354131Y-36840284D01*
X14354130Y-36840283D01*
X14354130Y-36840282D01*
X14264589Y-36736945D01*
X14149561Y-36663022D01*
X14139099Y-36659950D01*
X14018368Y-36624500D01*
X14018367Y-36624500D01*
X13881633Y-36624500D01*
X13881631Y-36624500D01*
X13750441Y-36663021D01*
X13750439Y-36663021D01*
X13750439Y-36663022D01*
X13635411Y-36736945D01*
X13635410Y-36736945D01*
X13635410Y-36736946D01*
X13545868Y-36840284D01*
X13489069Y-36964654D01*
X13489067Y-36964662D01*
X13469610Y-37099997D01*
X13469610Y-37100002D01*
X1000000Y-37100002D01*
X1000000Y-36500002D01*
X19244353Y-36500002D01*
X19264834Y-36642456D01*
X19324622Y-36773371D01*
X19324623Y-36773373D01*
X19384829Y-36842855D01*
X19418873Y-36882144D01*
X19524463Y-36950002D01*
X19539947Y-36959953D01*
X19646403Y-36991211D01*
X19678035Y-37000499D01*
X19678036Y-37000499D01*
X19678039Y-37000500D01*
X19678041Y-37000500D01*
X19821959Y-37000500D01*
X19821961Y-37000500D01*
X19960053Y-36959953D01*
X20081128Y-36882143D01*
X20175377Y-36773373D01*
X20235165Y-36642457D01*
X20255575Y-36500500D01*
X20255647Y-36500002D01*
X20255647Y-36499997D01*
X20235165Y-36357543D01*
X20196725Y-36273373D01*
X20175377Y-36226627D01*
X20081128Y-36117857D01*
X20081127Y-36117856D01*
X20081126Y-36117855D01*
X19960057Y-36040049D01*
X19960054Y-36040047D01*
X19960053Y-36040047D01*
X19949601Y-36036978D01*
X19821964Y-35999500D01*
X19821961Y-35999500D01*
X19678039Y-35999500D01*
X19678035Y-35999500D01*
X19539949Y-36040046D01*
X19539942Y-36040049D01*
X19418873Y-36117855D01*
X19324622Y-36226628D01*
X19264834Y-36357543D01*
X19244353Y-36499997D01*
X19244353Y-36500002D01*
X1000000Y-36500002D01*
X1000000Y-35650002D01*
X21519610Y-35650002D01*
X21539067Y-35785337D01*
X21539069Y-35785345D01*
X21595868Y-35909715D01*
X21595869Y-35909716D01*
X21595870Y-35909718D01*
X21685411Y-36013055D01*
X21800439Y-36086978D01*
X21931633Y-36125500D01*
X21931634Y-36125500D01*
X22068366Y-36125500D01*
X22068367Y-36125500D01*
X22199561Y-36086978D01*
X22314589Y-36013055D01*
X22325899Y-36000002D01*
X27294353Y-36000002D01*
X27314834Y-36142456D01*
X27360504Y-36242457D01*
X27374623Y-36273373D01*
X27468872Y-36382143D01*
X27468873Y-36382144D01*
X27589942Y-36459950D01*
X27589947Y-36459953D01*
X27677338Y-36485613D01*
X27728035Y-36500499D01*
X27728036Y-36500499D01*
X27728039Y-36500500D01*
X27728041Y-36500500D01*
X27871959Y-36500500D01*
X27871961Y-36500500D01*
X28010053Y-36459953D01*
X28131128Y-36382143D01*
X28225377Y-36273373D01*
X28236050Y-36250002D01*
X31119610Y-36250002D01*
X31139067Y-36385337D01*
X31139069Y-36385345D01*
X31195868Y-36509715D01*
X31195869Y-36509716D01*
X31195870Y-36509718D01*
X31285411Y-36613055D01*
X31400439Y-36686978D01*
X31531633Y-36725500D01*
X31531634Y-36725500D01*
X31668366Y-36725500D01*
X31668367Y-36725500D01*
X31668368Y-36725499D01*
X31668372Y-36725499D01*
X31706221Y-36714385D01*
X31712167Y-36712639D01*
X31773327Y-36714385D01*
X31821781Y-36751747D01*
X31839020Y-36810453D01*
X31838052Y-36821717D01*
X31819609Y-36949996D01*
X31819609Y-36950002D01*
X31839066Y-37085337D01*
X31839068Y-37085345D01*
X31895867Y-37209715D01*
X31895868Y-37209716D01*
X31895869Y-37209718D01*
X31985410Y-37313055D01*
X32054596Y-37357517D01*
X32093327Y-37404882D01*
X32096821Y-37465967D01*
X32075894Y-37505630D01*
X32045869Y-37540281D01*
X32045868Y-37540283D01*
X31989069Y-37664654D01*
X31989067Y-37664662D01*
X31969610Y-37799997D01*
X31969610Y-37800002D01*
X31989067Y-37935337D01*
X31989069Y-37935345D01*
X32045868Y-38059715D01*
X32045869Y-38059716D01*
X32045870Y-38059718D01*
X32049533Y-38063945D01*
X32089586Y-38110169D01*
X32113403Y-38166529D01*
X32099544Y-38226124D01*
X32089586Y-38239831D01*
X32045868Y-38290284D01*
X31989069Y-38414654D01*
X31989067Y-38414662D01*
X31969610Y-38549997D01*
X31969610Y-38550002D01*
X31989067Y-38685337D01*
X31989069Y-38685345D01*
X32045868Y-38809715D01*
X32045869Y-38809716D01*
X32045870Y-38809718D01*
X32135411Y-38913055D01*
X32250439Y-38986978D01*
X32381633Y-39025500D01*
X32381634Y-39025500D01*
X32518366Y-39025500D01*
X32518367Y-39025500D01*
X32649561Y-38986978D01*
X32685313Y-38964002D01*
X36683610Y-38964002D01*
X36703067Y-39099337D01*
X36703069Y-39099345D01*
X36759868Y-39223715D01*
X36759869Y-39223716D01*
X36759870Y-39223718D01*
X36849411Y-39327055D01*
X36964439Y-39400978D01*
X37095633Y-39439500D01*
X37095634Y-39439500D01*
X37232366Y-39439500D01*
X37232367Y-39439500D01*
X37363561Y-39400978D01*
X37478589Y-39327055D01*
X37545819Y-39249466D01*
X37598214Y-39217870D01*
X37659175Y-39223105D01*
X37705416Y-39263173D01*
X37710691Y-39273171D01*
X37753868Y-39367715D01*
X37753869Y-39367716D01*
X37753870Y-39367718D01*
X37843411Y-39471055D01*
X37958439Y-39544978D01*
X38089633Y-39583500D01*
X38089634Y-39583500D01*
X38226366Y-39583500D01*
X38226367Y-39583500D01*
X38357561Y-39544978D01*
X38472589Y-39471055D01*
X38562130Y-39367718D01*
X38594598Y-39296622D01*
X38635968Y-39251547D01*
X38695935Y-39239396D01*
X38738169Y-39254464D01*
X38821439Y-39307978D01*
X38952633Y-39346500D01*
X38952634Y-39346500D01*
X39089366Y-39346500D01*
X39089367Y-39346500D01*
X39220561Y-39307978D01*
X39335589Y-39234055D01*
X39425130Y-39130718D01*
X39481931Y-39006342D01*
X39488019Y-38964002D01*
X39490032Y-38950002D01*
X45559610Y-38950002D01*
X45579067Y-39085337D01*
X45579069Y-39085345D01*
X45635868Y-39209715D01*
X45635869Y-39209716D01*
X45635870Y-39209718D01*
X45725411Y-39313055D01*
X45840439Y-39386978D01*
X45971633Y-39425500D01*
X45971634Y-39425500D01*
X46108366Y-39425500D01*
X46108367Y-39425500D01*
X46239561Y-39386978D01*
X46354589Y-39313055D01*
X46444130Y-39209718D01*
X46480210Y-39130715D01*
X46494236Y-39100002D01*
X75219610Y-39100002D01*
X75239067Y-39235337D01*
X75239069Y-39235345D01*
X75295868Y-39359715D01*
X75295869Y-39359716D01*
X75295870Y-39359718D01*
X75385411Y-39463055D01*
X75500439Y-39536978D01*
X75631633Y-39575500D01*
X75631634Y-39575500D01*
X75768366Y-39575500D01*
X75768367Y-39575500D01*
X75899561Y-39536978D01*
X76014589Y-39463055D01*
X76104130Y-39359718D01*
X76148221Y-39263173D01*
X76160930Y-39235345D01*
X76160932Y-39235337D01*
X76180390Y-39100002D01*
X76180390Y-39099997D01*
X76160932Y-38964662D01*
X76160930Y-38964654D01*
X76104131Y-38840284D01*
X76104130Y-38840283D01*
X76104130Y-38840282D01*
X76014589Y-38736945D01*
X75899561Y-38663022D01*
X75899558Y-38663021D01*
X75768368Y-38624500D01*
X75768367Y-38624500D01*
X75631633Y-38624500D01*
X75631631Y-38624500D01*
X75500441Y-38663021D01*
X75500439Y-38663021D01*
X75500439Y-38663022D01*
X75385411Y-38736945D01*
X75385410Y-38736945D01*
X75385410Y-38736946D01*
X75295868Y-38840284D01*
X75239069Y-38964654D01*
X75239067Y-38964662D01*
X75219610Y-39099997D01*
X75219610Y-39100002D01*
X46494236Y-39100002D01*
X46500930Y-39085345D01*
X46500932Y-39085337D01*
X46520390Y-38950002D01*
X46520390Y-38949997D01*
X46500932Y-38814662D01*
X46500930Y-38814654D01*
X46444131Y-38690284D01*
X46444130Y-38690283D01*
X46444130Y-38690282D01*
X46354589Y-38586945D01*
X46239561Y-38513022D01*
X46222274Y-38507946D01*
X46108368Y-38474500D01*
X46108367Y-38474500D01*
X45971633Y-38474500D01*
X45971631Y-38474500D01*
X45840441Y-38513021D01*
X45840439Y-38513021D01*
X45840439Y-38513022D01*
X45725411Y-38586945D01*
X45725410Y-38586945D01*
X45725410Y-38586946D01*
X45635868Y-38690284D01*
X45579069Y-38814654D01*
X45579067Y-38814662D01*
X45559610Y-38949997D01*
X45559610Y-38950002D01*
X39490032Y-38950002D01*
X39495282Y-38913482D01*
X39522277Y-38858574D01*
X39576391Y-38830020D01*
X39636954Y-38838727D01*
X39646793Y-38844283D01*
X39677439Y-38863978D01*
X39808633Y-38902500D01*
X39808634Y-38902500D01*
X39945366Y-38902500D01*
X39945367Y-38902500D01*
X40076561Y-38863978D01*
X40191589Y-38790055D01*
X40281130Y-38686718D01*
X40320301Y-38600946D01*
X40337930Y-38562345D01*
X40337932Y-38562337D01*
X40357390Y-38427002D01*
X40357390Y-38426997D01*
X40337932Y-38291662D01*
X40337930Y-38291654D01*
X40281131Y-38167284D01*
X40281130Y-38167283D01*
X40281130Y-38167282D01*
X40191589Y-38063945D01*
X40076561Y-37990022D01*
X40076558Y-37990021D01*
X39945368Y-37951500D01*
X39945367Y-37951500D01*
X39808633Y-37951500D01*
X39808631Y-37951500D01*
X39677441Y-37990021D01*
X39677439Y-37990021D01*
X39677439Y-37990022D01*
X39562411Y-38063945D01*
X39562410Y-38063945D01*
X39562410Y-38063946D01*
X39472868Y-38167284D01*
X39416069Y-38291654D01*
X39416067Y-38291663D01*
X39402717Y-38384518D01*
X39375721Y-38439426D01*
X39321607Y-38467979D01*
X39261044Y-38459271D01*
X39251203Y-38453714D01*
X39245421Y-38449998D01*
X39220561Y-38434022D01*
X39154600Y-38414654D01*
X39089368Y-38395500D01*
X39089367Y-38395500D01*
X38952633Y-38395500D01*
X38952631Y-38395500D01*
X38821441Y-38434021D01*
X38821439Y-38434021D01*
X38821439Y-38434022D01*
X38706411Y-38507945D01*
X38706410Y-38507945D01*
X38706410Y-38507946D01*
X38616869Y-38611283D01*
X38584402Y-38682375D01*
X38543030Y-38727452D01*
X38483063Y-38739603D01*
X38440827Y-38724533D01*
X38409315Y-38704282D01*
X38357561Y-38671022D01*
X38291964Y-38651761D01*
X38226368Y-38632500D01*
X38226367Y-38632500D01*
X38089633Y-38632500D01*
X38089631Y-38632500D01*
X37958441Y-38671021D01*
X37958439Y-38671021D01*
X37958439Y-38671022D01*
X37843411Y-38744945D01*
X37843408Y-38744947D01*
X37776180Y-38822533D01*
X37723784Y-38854129D01*
X37662823Y-38848893D01*
X37616582Y-38808825D01*
X37611314Y-38798842D01*
X37568130Y-38704282D01*
X37478589Y-38600945D01*
X37363561Y-38527022D01*
X37363558Y-38527021D01*
X37232368Y-38488500D01*
X37232367Y-38488500D01*
X37095633Y-38488500D01*
X37095631Y-38488500D01*
X36964441Y-38527021D01*
X36964439Y-38527021D01*
X36964439Y-38527022D01*
X36849411Y-38600945D01*
X36849410Y-38600945D01*
X36849410Y-38600946D01*
X36759868Y-38704284D01*
X36703069Y-38828654D01*
X36703067Y-38828662D01*
X36683610Y-38963997D01*
X36683610Y-38964002D01*
X32685313Y-38964002D01*
X32764589Y-38913055D01*
X32854130Y-38809718D01*
X32893033Y-38724533D01*
X32910930Y-38685345D01*
X32910932Y-38685337D01*
X32930390Y-38550002D01*
X32930390Y-38549997D01*
X32910932Y-38414662D01*
X32910930Y-38414654D01*
X32854131Y-38290283D01*
X32854130Y-38290282D01*
X32841321Y-38275500D01*
X32810413Y-38239829D01*
X32786596Y-38183472D01*
X32800454Y-38123877D01*
X32810414Y-38110169D01*
X32850466Y-38063946D01*
X32854130Y-38059718D01*
X32876857Y-38009953D01*
X32910930Y-37935345D01*
X32910932Y-37935337D01*
X32930390Y-37800002D01*
X32930390Y-37799997D01*
X32926796Y-37775002D01*
X34494353Y-37775002D01*
X34514834Y-37917456D01*
X34568672Y-38035342D01*
X34574623Y-38048373D01*
X34640047Y-38123877D01*
X34668873Y-38157144D01*
X34789942Y-38234950D01*
X34789947Y-38234953D01*
X34885648Y-38263053D01*
X34928035Y-38275499D01*
X34928036Y-38275499D01*
X34928039Y-38275500D01*
X34928041Y-38275500D01*
X35071959Y-38275500D01*
X35071961Y-38275500D01*
X35210053Y-38234953D01*
X35331128Y-38157143D01*
X35425377Y-38048373D01*
X35485165Y-37917457D01*
X35498692Y-37823373D01*
X35505647Y-37775002D01*
X35505647Y-37774997D01*
X35485165Y-37632543D01*
X35425377Y-37501627D01*
X35331128Y-37392857D01*
X35331127Y-37392856D01*
X35331126Y-37392855D01*
X35210057Y-37315049D01*
X35210054Y-37315047D01*
X35210053Y-37315047D01*
X35203269Y-37313055D01*
X35071964Y-37274500D01*
X35071961Y-37274500D01*
X34928039Y-37274500D01*
X34928035Y-37274500D01*
X34789949Y-37315046D01*
X34789942Y-37315049D01*
X34668873Y-37392855D01*
X34574622Y-37501628D01*
X34514834Y-37632543D01*
X34494353Y-37774997D01*
X34494353Y-37775002D01*
X32926796Y-37775002D01*
X32910932Y-37664662D01*
X32910930Y-37664654D01*
X32854131Y-37540284D01*
X32854130Y-37540283D01*
X32854130Y-37540282D01*
X32764589Y-37436945D01*
X32764588Y-37436944D01*
X32764587Y-37436943D01*
X32695402Y-37392481D01*
X32656671Y-37345115D01*
X32653177Y-37284029D01*
X32674103Y-37244369D01*
X32690885Y-37225002D01*
X43494353Y-37225002D01*
X43514834Y-37367456D01*
X43574622Y-37498371D01*
X43574623Y-37498373D01*
X43668872Y-37607143D01*
X43668873Y-37607144D01*
X43785576Y-37682144D01*
X43789947Y-37684953D01*
X43896403Y-37716211D01*
X43928035Y-37725499D01*
X43928036Y-37725499D01*
X43928039Y-37725500D01*
X43928041Y-37725500D01*
X44071959Y-37725500D01*
X44071961Y-37725500D01*
X44210053Y-37684953D01*
X44331128Y-37607143D01*
X44380641Y-37550002D01*
X55394353Y-37550002D01*
X55414834Y-37692456D01*
X55474622Y-37823371D01*
X55474623Y-37823373D01*
X55534829Y-37892855D01*
X55568873Y-37932144D01*
X55676991Y-38001627D01*
X55689947Y-38009953D01*
X55796403Y-38041211D01*
X55828035Y-38050499D01*
X55828036Y-38050499D01*
X55828039Y-38050500D01*
X55828041Y-38050500D01*
X55971959Y-38050500D01*
X55971961Y-38050500D01*
X56110053Y-38009953D01*
X56231128Y-37932143D01*
X56258978Y-37900002D01*
X63469610Y-37900002D01*
X63489067Y-38035337D01*
X63489069Y-38035345D01*
X63545868Y-38159715D01*
X63545869Y-38159716D01*
X63545870Y-38159718D01*
X63635411Y-38263055D01*
X63750439Y-38336978D01*
X63881633Y-38375500D01*
X63881634Y-38375500D01*
X64018366Y-38375500D01*
X64018367Y-38375500D01*
X64149561Y-38336978D01*
X64264589Y-38263055D01*
X64354130Y-38159718D01*
X64397868Y-38063946D01*
X64410930Y-38035345D01*
X64410932Y-38035337D01*
X64430390Y-37900002D01*
X64430390Y-37899997D01*
X64410932Y-37764662D01*
X64410930Y-37764654D01*
X64354131Y-37640284D01*
X64354130Y-37640283D01*
X64354130Y-37640282D01*
X64264589Y-37536945D01*
X64149561Y-37463022D01*
X64149558Y-37463021D01*
X64018368Y-37424500D01*
X64018367Y-37424500D01*
X63881633Y-37424500D01*
X63881631Y-37424500D01*
X63750441Y-37463021D01*
X63750439Y-37463021D01*
X63750439Y-37463022D01*
X63635411Y-37536945D01*
X63635410Y-37536945D01*
X63635410Y-37536946D01*
X63545868Y-37640284D01*
X63489069Y-37764654D01*
X63489067Y-37764662D01*
X63469610Y-37899997D01*
X63469610Y-37900002D01*
X56258978Y-37900002D01*
X56325377Y-37823373D01*
X56385165Y-37692457D01*
X56405647Y-37550000D01*
X56403770Y-37536946D01*
X56385165Y-37407543D01*
X56342923Y-37315047D01*
X56325377Y-37276627D01*
X56280644Y-37225002D01*
X57494353Y-37225002D01*
X57514834Y-37367456D01*
X57574622Y-37498371D01*
X57574623Y-37498373D01*
X57668872Y-37607143D01*
X57668873Y-37607144D01*
X57785576Y-37682144D01*
X57789947Y-37684953D01*
X57896403Y-37716211D01*
X57928035Y-37725499D01*
X57928036Y-37725499D01*
X57928039Y-37725500D01*
X57928041Y-37725500D01*
X58071959Y-37725500D01*
X58071961Y-37725500D01*
X58210053Y-37684953D01*
X58331128Y-37607143D01*
X58425377Y-37498373D01*
X58485165Y-37367457D01*
X58492987Y-37313055D01*
X58494864Y-37300002D01*
X78869353Y-37300002D01*
X78889834Y-37442456D01*
X78938947Y-37549997D01*
X78949623Y-37573373D01*
X79028725Y-37664662D01*
X79043873Y-37682144D01*
X79111335Y-37725499D01*
X79164947Y-37759953D01*
X79271403Y-37791211D01*
X79303035Y-37800499D01*
X79303036Y-37800499D01*
X79303039Y-37800500D01*
X79303041Y-37800500D01*
X79446959Y-37800500D01*
X79446961Y-37800500D01*
X79585053Y-37759953D01*
X79706128Y-37682143D01*
X79800377Y-37573373D01*
X79860165Y-37442457D01*
X79874161Y-37345115D01*
X79880647Y-37300002D01*
X79880647Y-37299997D01*
X79860165Y-37157543D01*
X79800377Y-37026627D01*
X79706128Y-36917857D01*
X79706127Y-36917856D01*
X79706126Y-36917855D01*
X79585057Y-36840049D01*
X79585054Y-36840047D01*
X79585053Y-36840047D01*
X79585050Y-36840046D01*
X79446964Y-36799500D01*
X79446961Y-36799500D01*
X79303039Y-36799500D01*
X79303035Y-36799500D01*
X79164949Y-36840046D01*
X79164942Y-36840049D01*
X79043873Y-36917855D01*
X78949622Y-37026628D01*
X78889834Y-37157543D01*
X78869353Y-37299997D01*
X78869353Y-37300002D01*
X58494864Y-37300002D01*
X58505647Y-37225002D01*
X58505647Y-37224997D01*
X58485165Y-37082543D01*
X58425377Y-36951627D01*
X58331128Y-36842857D01*
X58331127Y-36842856D01*
X58331126Y-36842855D01*
X58210057Y-36765049D01*
X58210054Y-36765047D01*
X58210053Y-36765047D01*
X58210050Y-36765046D01*
X58071964Y-36724500D01*
X58071961Y-36724500D01*
X57928039Y-36724500D01*
X57928035Y-36724500D01*
X57789949Y-36765046D01*
X57789942Y-36765049D01*
X57668873Y-36842855D01*
X57574622Y-36951628D01*
X57514834Y-37082543D01*
X57494353Y-37224997D01*
X57494353Y-37225002D01*
X56280644Y-37225002D01*
X56231128Y-37167857D01*
X56231127Y-37167856D01*
X56231126Y-37167855D01*
X56110057Y-37090049D01*
X56110054Y-37090047D01*
X56110053Y-37090047D01*
X56110050Y-37090046D01*
X55971964Y-37049500D01*
X55971961Y-37049500D01*
X55828039Y-37049500D01*
X55828035Y-37049500D01*
X55689949Y-37090046D01*
X55689942Y-37090049D01*
X55568873Y-37167855D01*
X55474622Y-37276628D01*
X55414834Y-37407543D01*
X55394353Y-37549997D01*
X55394353Y-37550002D01*
X44380641Y-37550002D01*
X44425377Y-37498373D01*
X44485165Y-37367457D01*
X44492987Y-37313055D01*
X44505647Y-37225002D01*
X44505647Y-37224997D01*
X44485165Y-37082543D01*
X44425377Y-36951627D01*
X44331128Y-36842857D01*
X44331127Y-36842856D01*
X44331126Y-36842855D01*
X44210057Y-36765049D01*
X44210054Y-36765047D01*
X44210053Y-36765047D01*
X44210050Y-36765046D01*
X44071964Y-36724500D01*
X44071961Y-36724500D01*
X43928039Y-36724500D01*
X43928035Y-36724500D01*
X43789949Y-36765046D01*
X43789942Y-36765049D01*
X43668873Y-36842855D01*
X43574622Y-36951628D01*
X43514834Y-37082543D01*
X43494353Y-37224997D01*
X43494353Y-37225002D01*
X32690885Y-37225002D01*
X32704129Y-37209718D01*
X32754236Y-37100000D01*
X32760929Y-37085345D01*
X32760931Y-37085337D01*
X32780389Y-36950002D01*
X32780389Y-36949997D01*
X32760931Y-36814662D01*
X32760929Y-36814654D01*
X32704130Y-36690284D01*
X32704129Y-36690283D01*
X32704129Y-36690282D01*
X32614588Y-36586945D01*
X32499560Y-36513022D01*
X32488308Y-36509718D01*
X32368367Y-36474500D01*
X32368366Y-36474500D01*
X32231632Y-36474500D01*
X32231628Y-36474500D01*
X32187829Y-36487361D01*
X32126669Y-36485613D01*
X32078216Y-36448250D01*
X32060978Y-36389543D01*
X32061946Y-36378282D01*
X32080390Y-36250002D01*
X32080390Y-36249997D01*
X32073202Y-36200002D01*
X36694353Y-36200002D01*
X36714834Y-36342456D01*
X36768493Y-36459950D01*
X36774623Y-36473373D01*
X36868872Y-36582143D01*
X36868873Y-36582144D01*
X36989942Y-36659950D01*
X36989947Y-36659953D01*
X37081987Y-36686978D01*
X37128035Y-36700499D01*
X37128036Y-36700499D01*
X37128039Y-36700500D01*
X37128041Y-36700500D01*
X37271959Y-36700500D01*
X37271961Y-36700500D01*
X37410053Y-36659953D01*
X37531128Y-36582143D01*
X37625377Y-36473373D01*
X37685165Y-36342457D01*
X37698386Y-36250500D01*
X37705647Y-36200002D01*
X37705646Y-36199997D01*
X37704006Y-36188586D01*
X37714441Y-36128298D01*
X37758320Y-36085657D01*
X37801999Y-36075500D01*
X37818366Y-36075500D01*
X37818367Y-36075500D01*
X37949561Y-36036978D01*
X38064589Y-35963055D01*
X38154130Y-35859718D01*
X38204236Y-35750002D01*
X39544353Y-35750002D01*
X39564834Y-35892456D01*
X39613720Y-35999500D01*
X39624623Y-36023373D01*
X39706493Y-36117857D01*
X39718873Y-36132144D01*
X39824463Y-36200002D01*
X39839947Y-36209953D01*
X39946403Y-36241211D01*
X39978035Y-36250499D01*
X39978036Y-36250499D01*
X39978039Y-36250500D01*
X39978041Y-36250500D01*
X40121959Y-36250500D01*
X40121961Y-36250500D01*
X40260053Y-36209953D01*
X40381128Y-36132143D01*
X40408978Y-36100002D01*
X53694353Y-36100002D01*
X53714834Y-36242456D01*
X53774622Y-36373371D01*
X53774623Y-36373373D01*
X53868872Y-36482143D01*
X53868873Y-36482144D01*
X53989942Y-36559950D01*
X53989947Y-36559953D01*
X54081878Y-36586946D01*
X54128035Y-36600499D01*
X54128036Y-36600499D01*
X54128039Y-36600500D01*
X54128041Y-36600500D01*
X54271959Y-36600500D01*
X54271961Y-36600500D01*
X54410053Y-36559953D01*
X54531128Y-36482143D01*
X54625377Y-36373373D01*
X54685165Y-36242457D01*
X54699543Y-36142456D01*
X54705647Y-36100002D01*
X54705647Y-36099997D01*
X54685165Y-35957543D01*
X54652924Y-35886946D01*
X54625377Y-35826627D01*
X54531128Y-35717857D01*
X54531127Y-35717856D01*
X54531126Y-35717855D01*
X54410057Y-35640049D01*
X54410054Y-35640047D01*
X54410053Y-35640047D01*
X54410050Y-35640046D01*
X54271964Y-35599500D01*
X54271961Y-35599500D01*
X54128039Y-35599500D01*
X54128035Y-35599500D01*
X53989949Y-35640046D01*
X53989942Y-35640049D01*
X53868873Y-35717855D01*
X53774622Y-35826628D01*
X53714834Y-35957543D01*
X53694353Y-36099997D01*
X53694353Y-36100002D01*
X40408978Y-36100002D01*
X40475377Y-36023373D01*
X40535165Y-35892457D01*
X40550566Y-35785342D01*
X40555647Y-35750002D01*
X40555647Y-35749997D01*
X40535165Y-35607543D01*
X40492745Y-35514658D01*
X40475377Y-35476627D01*
X40381128Y-35367857D01*
X40381127Y-35367856D01*
X40381126Y-35367855D01*
X40260057Y-35290049D01*
X40260054Y-35290047D01*
X40260053Y-35290047D01*
X40249492Y-35286946D01*
X40121964Y-35249500D01*
X40121961Y-35249500D01*
X39978039Y-35249500D01*
X39978035Y-35249500D01*
X39839949Y-35290046D01*
X39839942Y-35290049D01*
X39718873Y-35367855D01*
X39624622Y-35476628D01*
X39564834Y-35607543D01*
X39544353Y-35749997D01*
X39544353Y-35750002D01*
X38204236Y-35750002D01*
X38204237Y-35750000D01*
X38210930Y-35735345D01*
X38210932Y-35735337D01*
X38230390Y-35600002D01*
X38230390Y-35599997D01*
X38210932Y-35464662D01*
X38210930Y-35464654D01*
X38154131Y-35340284D01*
X38154130Y-35340283D01*
X38154130Y-35340282D01*
X38064589Y-35236945D01*
X37949561Y-35163022D01*
X37949558Y-35163021D01*
X37818368Y-35124500D01*
X37818367Y-35124500D01*
X37681633Y-35124500D01*
X37681631Y-35124500D01*
X37550441Y-35163021D01*
X37550439Y-35163021D01*
X37550439Y-35163022D01*
X37435411Y-35236945D01*
X37435410Y-35236945D01*
X37435410Y-35236946D01*
X37345868Y-35340284D01*
X37289069Y-35464654D01*
X37289067Y-35464662D01*
X37269610Y-35599997D01*
X37269610Y-35600500D01*
X37269480Y-35600899D01*
X37268602Y-35607008D01*
X37267544Y-35606856D01*
X37250703Y-35658691D01*
X37201203Y-35694655D01*
X37170610Y-35699500D01*
X37128035Y-35699500D01*
X36989949Y-35740046D01*
X36989942Y-35740049D01*
X36868873Y-35817855D01*
X36774622Y-35926628D01*
X36714834Y-36057543D01*
X36694353Y-36199997D01*
X36694353Y-36200002D01*
X32073202Y-36200002D01*
X32060932Y-36114662D01*
X32060930Y-36114654D01*
X32004131Y-35990284D01*
X32004130Y-35990283D01*
X32004130Y-35990282D01*
X31914589Y-35886945D01*
X31799561Y-35813022D01*
X31799558Y-35813021D01*
X31668368Y-35774500D01*
X31668367Y-35774500D01*
X31531633Y-35774500D01*
X31531631Y-35774500D01*
X31400441Y-35813021D01*
X31400439Y-35813021D01*
X31400439Y-35813022D01*
X31285411Y-35886945D01*
X31285410Y-35886945D01*
X31285410Y-35886946D01*
X31195868Y-35990284D01*
X31139069Y-36114654D01*
X31139067Y-36114662D01*
X31119610Y-36249997D01*
X31119610Y-36250002D01*
X28236050Y-36250002D01*
X28285165Y-36142457D01*
X28299889Y-36040046D01*
X28305647Y-36000002D01*
X28305647Y-35999997D01*
X28285165Y-35857543D01*
X28252193Y-35785345D01*
X28225377Y-35726627D01*
X28131128Y-35617857D01*
X28131127Y-35617856D01*
X28131126Y-35617855D01*
X28103346Y-35600002D01*
X29919610Y-35600002D01*
X29939067Y-35735337D01*
X29939069Y-35735345D01*
X29995868Y-35859715D01*
X29995869Y-35859716D01*
X29995870Y-35859718D01*
X30085411Y-35963055D01*
X30200439Y-36036978D01*
X30331633Y-36075500D01*
X30331634Y-36075500D01*
X30468366Y-36075500D01*
X30468367Y-36075500D01*
X30599561Y-36036978D01*
X30714589Y-35963055D01*
X30804130Y-35859718D01*
X30854237Y-35750000D01*
X30860930Y-35735345D01*
X30860932Y-35735337D01*
X30880390Y-35600002D01*
X30880390Y-35599997D01*
X30860932Y-35464662D01*
X30860930Y-35464654D01*
X30804131Y-35340284D01*
X30804130Y-35340283D01*
X30804130Y-35340282D01*
X30714589Y-35236945D01*
X30599561Y-35163022D01*
X30599558Y-35163021D01*
X30468368Y-35124500D01*
X30468367Y-35124500D01*
X30331633Y-35124500D01*
X30331631Y-35124500D01*
X30200441Y-35163021D01*
X30200439Y-35163021D01*
X30200439Y-35163022D01*
X30085411Y-35236945D01*
X30085410Y-35236945D01*
X30085410Y-35236946D01*
X29995868Y-35340284D01*
X29939069Y-35464654D01*
X29939067Y-35464662D01*
X29919610Y-35599997D01*
X29919610Y-35600002D01*
X28103346Y-35600002D01*
X28010057Y-35540049D01*
X28010054Y-35540047D01*
X28010053Y-35540047D01*
X28010050Y-35540046D01*
X27871964Y-35499500D01*
X27871961Y-35499500D01*
X27728039Y-35499500D01*
X27728035Y-35499500D01*
X27589949Y-35540046D01*
X27589942Y-35540049D01*
X27468873Y-35617855D01*
X27374622Y-35726628D01*
X27314834Y-35857543D01*
X27294353Y-35999997D01*
X27294353Y-36000002D01*
X22325899Y-36000002D01*
X22404130Y-35909718D01*
X22448290Y-35813022D01*
X22460930Y-35785345D01*
X22460932Y-35785337D01*
X22480390Y-35650002D01*
X22480390Y-35649997D01*
X22460932Y-35514662D01*
X22460930Y-35514654D01*
X22404131Y-35390284D01*
X22404130Y-35390283D01*
X22404130Y-35390282D01*
X22314589Y-35286945D01*
X22199561Y-35213022D01*
X22199558Y-35213021D01*
X22068368Y-35174500D01*
X22068367Y-35174500D01*
X21931633Y-35174500D01*
X21931631Y-35174500D01*
X21800441Y-35213021D01*
X21800439Y-35213021D01*
X21800439Y-35213022D01*
X21685411Y-35286945D01*
X21685410Y-35286945D01*
X21685410Y-35286946D01*
X21595868Y-35390284D01*
X21539069Y-35514654D01*
X21539067Y-35514662D01*
X21519610Y-35649997D01*
X21519610Y-35650002D01*
X1000000Y-35650002D01*
X1000000Y-34320939D01*
X3995630Y-34320939D01*
X4026134Y-34520047D01*
X4026444Y-34522071D01*
X4097114Y-34712887D01*
X4097115Y-34712888D01*
X4204745Y-34885567D01*
X4204747Y-34885569D01*
X4204748Y-34885571D01*
X4344941Y-35033053D01*
X4344943Y-35033054D01*
X4344946Y-35033057D01*
X4476327Y-35124500D01*
X4511951Y-35149295D01*
X4698940Y-35229539D01*
X4698942Y-35229540D01*
X4898259Y-35270500D01*
X4898262Y-35270500D01*
X5050744Y-35270500D01*
X5076381Y-35267892D01*
X5202438Y-35255074D01*
X5396588Y-35194159D01*
X5574502Y-35095409D01*
X5708934Y-34980002D01*
X35344353Y-34980002D01*
X35364834Y-35122456D01*
X35417121Y-35236946D01*
X35424623Y-35253373D01*
X35499931Y-35340284D01*
X35518873Y-35362144D01*
X35527760Y-35367855D01*
X35639947Y-35439953D01*
X35746403Y-35471211D01*
X35778035Y-35480499D01*
X35778036Y-35480499D01*
X35778039Y-35480500D01*
X35778041Y-35480500D01*
X35921959Y-35480500D01*
X35921961Y-35480500D01*
X36060053Y-35439953D01*
X36181128Y-35362143D01*
X36275377Y-35253373D01*
X36335165Y-35122457D01*
X36355575Y-34980500D01*
X36355647Y-34980002D01*
X36355647Y-34979997D01*
X36335165Y-34837543D01*
X36296725Y-34753373D01*
X36275377Y-34706627D01*
X36181128Y-34597857D01*
X36181127Y-34597856D01*
X36181126Y-34597855D01*
X36060057Y-34520049D01*
X36060054Y-34520047D01*
X36060053Y-34520047D01*
X36060050Y-34520046D01*
X35923674Y-34480002D01*
X41194353Y-34480002D01*
X41214834Y-34622456D01*
X41253275Y-34706628D01*
X41274623Y-34753373D01*
X41316722Y-34801958D01*
X41368873Y-34862144D01*
X41489942Y-34939950D01*
X41489947Y-34939953D01*
X41596403Y-34971211D01*
X41628035Y-34980499D01*
X41628036Y-34980499D01*
X41628039Y-34980500D01*
X41628041Y-34980500D01*
X41771959Y-34980500D01*
X41771961Y-34980500D01*
X41910053Y-34939953D01*
X42031128Y-34862143D01*
X42125377Y-34753373D01*
X42185165Y-34622457D01*
X42205647Y-34480000D01*
X42205575Y-34479500D01*
X42185165Y-34337543D01*
X42149623Y-34259718D01*
X42125377Y-34206627D01*
X42032987Y-34100002D01*
X44669353Y-34100002D01*
X44689834Y-34242456D01*
X44725677Y-34320939D01*
X44749623Y-34373373D01*
X44842015Y-34480000D01*
X44843873Y-34482144D01*
X44902855Y-34520049D01*
X44964947Y-34559953D01*
X45071403Y-34591211D01*
X45103035Y-34600499D01*
X45103036Y-34600499D01*
X45103039Y-34600500D01*
X45103041Y-34600500D01*
X45246959Y-34600500D01*
X45246961Y-34600500D01*
X45385053Y-34559953D01*
X45506128Y-34482143D01*
X45600377Y-34373373D01*
X45624323Y-34320939D01*
X88995630Y-34320939D01*
X89026134Y-34520047D01*
X89026444Y-34522071D01*
X89097114Y-34712887D01*
X89097115Y-34712888D01*
X89204745Y-34885567D01*
X89204747Y-34885569D01*
X89204748Y-34885571D01*
X89344941Y-35033053D01*
X89344943Y-35033054D01*
X89344946Y-35033057D01*
X89476327Y-35124500D01*
X89511951Y-35149295D01*
X89698940Y-35229539D01*
X89698942Y-35229540D01*
X89898259Y-35270500D01*
X89898262Y-35270500D01*
X90050744Y-35270500D01*
X90076381Y-35267892D01*
X90202438Y-35255074D01*
X90396588Y-35194159D01*
X90574502Y-35095409D01*
X90728895Y-34962866D01*
X90853448Y-34801958D01*
X90943060Y-34619271D01*
X90994063Y-34422285D01*
X91004369Y-34219064D01*
X90973556Y-34017929D01*
X90902886Y-33827113D01*
X90795252Y-33654429D01*
X90683606Y-33536978D01*
X90655063Y-33506951D01*
X90655053Y-33506942D01*
X90488054Y-33390708D01*
X90488051Y-33390706D01*
X90488049Y-33390705D01*
X90301058Y-33310460D01*
X90301060Y-33310460D01*
X90221331Y-33294076D01*
X90101741Y-33269500D01*
X89949258Y-33269500D01*
X89949256Y-33269500D01*
X89797561Y-33284926D01*
X89603410Y-33345841D01*
X89603409Y-33345842D01*
X89425501Y-33444588D01*
X89425498Y-33444590D01*
X89271109Y-33577129D01*
X89146549Y-33738045D01*
X89084446Y-33864654D01*
X89056940Y-33920729D01*
X89010524Y-34100000D01*
X89005936Y-34117719D01*
X88995631Y-34320936D01*
X88995630Y-34320939D01*
X45624323Y-34320939D01*
X45660165Y-34242457D01*
X45669792Y-34175499D01*
X45680647Y-34100002D01*
X45680647Y-34099997D01*
X45660165Y-33957543D01*
X45643352Y-33920729D01*
X45600377Y-33826627D01*
X45506128Y-33717857D01*
X45506127Y-33717856D01*
X45506126Y-33717855D01*
X45385057Y-33640049D01*
X45385054Y-33640047D01*
X45385053Y-33640047D01*
X45374492Y-33636946D01*
X45246964Y-33599500D01*
X45246961Y-33599500D01*
X45103039Y-33599500D01*
X45103035Y-33599500D01*
X44964949Y-33640046D01*
X44964942Y-33640049D01*
X44843873Y-33717855D01*
X44749622Y-33826628D01*
X44689834Y-33957543D01*
X44669353Y-34099997D01*
X44669353Y-34100002D01*
X42032987Y-34100002D01*
X42031128Y-34097857D01*
X42031127Y-34097856D01*
X42031126Y-34097855D01*
X41910057Y-34020049D01*
X41910054Y-34020047D01*
X41910053Y-34020047D01*
X41902840Y-34017929D01*
X41771964Y-33979500D01*
X41771961Y-33979500D01*
X41628039Y-33979500D01*
X41628035Y-33979500D01*
X41489949Y-34020046D01*
X41489942Y-34020049D01*
X41368873Y-34097855D01*
X41274622Y-34206628D01*
X41214834Y-34337543D01*
X41194353Y-34479997D01*
X41194353Y-34480002D01*
X35923674Y-34480002D01*
X35921964Y-34479500D01*
X35921961Y-34479500D01*
X35778039Y-34479500D01*
X35778035Y-34479500D01*
X35639949Y-34520046D01*
X35639942Y-34520049D01*
X35518873Y-34597855D01*
X35424622Y-34706628D01*
X35364834Y-34837543D01*
X35344353Y-34979997D01*
X35344353Y-34980002D01*
X5708934Y-34980002D01*
X5728895Y-34962866D01*
X5853448Y-34801958D01*
X5943060Y-34619271D01*
X5994063Y-34422285D01*
X6004369Y-34219064D01*
X5973556Y-34017929D01*
X5902886Y-33827113D01*
X5823658Y-33700002D01*
X12469610Y-33700002D01*
X12489067Y-33835337D01*
X12489069Y-33835345D01*
X12545868Y-33959715D01*
X12545869Y-33959716D01*
X12545870Y-33959718D01*
X12635411Y-34063055D01*
X12750439Y-34136978D01*
X12881633Y-34175500D01*
X12881634Y-34175500D01*
X13018366Y-34175500D01*
X13018367Y-34175500D01*
X13149561Y-34136978D01*
X13264589Y-34063055D01*
X13319224Y-34000002D01*
X39719610Y-34000002D01*
X39739067Y-34135337D01*
X39739069Y-34135345D01*
X39795868Y-34259715D01*
X39795869Y-34259716D01*
X39795870Y-34259718D01*
X39885411Y-34363055D01*
X40000439Y-34436978D01*
X40131633Y-34475500D01*
X40131634Y-34475500D01*
X40268366Y-34475500D01*
X40268367Y-34475500D01*
X40399561Y-34436978D01*
X40514589Y-34363055D01*
X40604130Y-34259718D01*
X40660931Y-34135342D01*
X40663465Y-34117719D01*
X40680390Y-34000002D01*
X40680390Y-33999997D01*
X40660932Y-33864662D01*
X40660930Y-33864654D01*
X40604131Y-33740284D01*
X40604130Y-33740283D01*
X40604130Y-33740282D01*
X40514589Y-33636945D01*
X40399561Y-33563022D01*
X40346528Y-33547450D01*
X40268368Y-33524500D01*
X40268367Y-33524500D01*
X40131633Y-33524500D01*
X40131631Y-33524500D01*
X40000441Y-33563021D01*
X40000439Y-33563021D01*
X40000439Y-33563022D01*
X39885411Y-33636945D01*
X39885410Y-33636945D01*
X39885410Y-33636946D01*
X39795868Y-33740284D01*
X39739069Y-33864654D01*
X39739067Y-33864662D01*
X39719610Y-33999997D01*
X39719610Y-34000002D01*
X13319224Y-34000002D01*
X13354130Y-33959718D01*
X13410931Y-33835342D01*
X13412114Y-33827113D01*
X13430390Y-33700002D01*
X13430390Y-33699997D01*
X13410932Y-33564662D01*
X13410930Y-33564654D01*
X13354131Y-33440284D01*
X13354130Y-33440283D01*
X13354130Y-33440282D01*
X13264589Y-33336945D01*
X13149561Y-33263022D01*
X13138309Y-33259718D01*
X13018368Y-33224500D01*
X13018367Y-33224500D01*
X12881633Y-33224500D01*
X12881631Y-33224500D01*
X12750441Y-33263021D01*
X12750439Y-33263021D01*
X12750439Y-33263022D01*
X12635411Y-33336945D01*
X12635410Y-33336945D01*
X12635410Y-33336946D01*
X12545868Y-33440284D01*
X12489069Y-33564654D01*
X12489067Y-33564662D01*
X12469610Y-33699997D01*
X12469610Y-33700002D01*
X5823658Y-33700002D01*
X5795252Y-33654429D01*
X5683606Y-33536978D01*
X5655063Y-33506951D01*
X5655053Y-33506942D01*
X5488054Y-33390708D01*
X5488051Y-33390706D01*
X5488049Y-33390705D01*
X5301058Y-33310460D01*
X5301060Y-33310460D01*
X5221331Y-33294076D01*
X5101741Y-33269500D01*
X4949258Y-33269500D01*
X4949256Y-33269500D01*
X4797561Y-33284926D01*
X4603410Y-33345841D01*
X4603409Y-33345842D01*
X4425501Y-33444588D01*
X4425498Y-33444590D01*
X4271109Y-33577129D01*
X4146549Y-33738045D01*
X4084446Y-33864654D01*
X4056940Y-33920729D01*
X4010524Y-34100000D01*
X4005936Y-34117719D01*
X3995631Y-34320936D01*
X3995630Y-34320939D01*
X1000000Y-34320939D01*
X1000000Y-33100002D01*
X19619610Y-33100002D01*
X19639067Y-33235337D01*
X19639069Y-33235345D01*
X19695868Y-33359715D01*
X19695869Y-33359716D01*
X19695870Y-33359718D01*
X19785411Y-33463055D01*
X19900439Y-33536978D01*
X20031633Y-33575500D01*
X20031634Y-33575500D01*
X20168366Y-33575500D01*
X20168367Y-33575500D01*
X20299561Y-33536978D01*
X20414589Y-33463055D01*
X20504130Y-33359718D01*
X20504132Y-33359711D01*
X20507958Y-33353762D01*
X20510532Y-33355416D01*
X20543051Y-33319963D01*
X20603014Y-33307794D01*
X20658678Y-33333194D01*
X20666575Y-33341317D01*
X20685411Y-33363055D01*
X20800439Y-33436978D01*
X20931633Y-33475500D01*
X20931634Y-33475500D01*
X21068366Y-33475500D01*
X21068367Y-33475500D01*
X21199561Y-33436978D01*
X21314589Y-33363055D01*
X21404130Y-33259718D01*
X21460931Y-33135342D01*
X21466012Y-33100002D01*
X21467809Y-33087502D01*
X32294352Y-33087502D01*
X32314833Y-33229956D01*
X32374621Y-33360871D01*
X32374622Y-33360873D01*
X32463161Y-33463053D01*
X32468872Y-33469644D01*
X32589941Y-33547450D01*
X32589946Y-33547453D01*
X32691014Y-33577129D01*
X32728034Y-33587999D01*
X32728035Y-33587999D01*
X32728038Y-33588000D01*
X32728040Y-33588000D01*
X32871958Y-33588000D01*
X32871960Y-33588000D01*
X33010052Y-33547453D01*
X33131127Y-33469643D01*
X33225376Y-33360873D01*
X33285164Y-33229957D01*
X33298767Y-33135345D01*
X33305646Y-33087502D01*
X33305646Y-33087497D01*
X33285164Y-32945043D01*
X33248451Y-32864654D01*
X33225376Y-32814127D01*
X33131127Y-32705357D01*
X33131126Y-32705356D01*
X33131125Y-32705355D01*
X33010056Y-32627549D01*
X33010053Y-32627547D01*
X33010052Y-32627547D01*
X32999675Y-32624500D01*
X32871963Y-32587000D01*
X32871960Y-32587000D01*
X32728038Y-32587000D01*
X32728034Y-32587000D01*
X32589948Y-32627546D01*
X32589941Y-32627549D01*
X32468872Y-32705355D01*
X32374621Y-32814128D01*
X32314833Y-32945043D01*
X32294352Y-33087497D01*
X32294352Y-33087502D01*
X21467809Y-33087502D01*
X21480390Y-33000002D01*
X21480390Y-32999997D01*
X21460932Y-32864662D01*
X21460930Y-32864654D01*
X21404131Y-32740284D01*
X21404130Y-32740283D01*
X21404130Y-32740282D01*
X21314589Y-32636945D01*
X21199561Y-32563022D01*
X21199558Y-32563021D01*
X21068368Y-32524500D01*
X21068367Y-32524500D01*
X20931633Y-32524500D01*
X20931631Y-32524500D01*
X20800441Y-32563021D01*
X20800439Y-32563021D01*
X20800439Y-32563022D01*
X20685411Y-32636945D01*
X20598762Y-32736945D01*
X20595867Y-32740286D01*
X20592042Y-32746238D01*
X20589482Y-32744593D01*
X20556856Y-32780088D01*
X20496881Y-32792193D01*
X20441244Y-32766734D01*
X20433424Y-32758683D01*
X20414589Y-32736945D01*
X20307529Y-32668142D01*
X20268800Y-32620779D01*
X20265306Y-32559693D01*
X20298385Y-32508221D01*
X20333161Y-32489870D01*
X20435053Y-32459953D01*
X20556128Y-32382143D01*
X20650377Y-32273373D01*
X20710165Y-32142457D01*
X20717995Y-32087999D01*
X20730647Y-32000002D01*
X30419610Y-32000002D01*
X30439067Y-32135337D01*
X30439069Y-32135345D01*
X30495868Y-32259715D01*
X30495869Y-32259716D01*
X30495870Y-32259718D01*
X30585411Y-32363055D01*
X30700439Y-32436978D01*
X30831633Y-32475500D01*
X30831634Y-32475500D01*
X30968366Y-32475500D01*
X30968367Y-32475500D01*
X31099561Y-32436978D01*
X31214589Y-32363055D01*
X31304130Y-32259718D01*
X31360931Y-32135342D01*
X31367738Y-32087999D01*
X31380390Y-32000002D01*
X31380390Y-31999997D01*
X31360932Y-31864662D01*
X31360930Y-31864654D01*
X31304131Y-31740284D01*
X31304130Y-31740283D01*
X31304130Y-31740282D01*
X31214589Y-31636945D01*
X31099561Y-31563022D01*
X31099558Y-31563021D01*
X30968368Y-31524500D01*
X30968367Y-31524500D01*
X30831633Y-31524500D01*
X30831631Y-31524500D01*
X30700441Y-31563021D01*
X30700439Y-31563021D01*
X30700439Y-31563022D01*
X30585411Y-31636945D01*
X30585410Y-31636945D01*
X30585410Y-31636946D01*
X30495868Y-31740284D01*
X30439069Y-31864654D01*
X30439067Y-31864662D01*
X30419610Y-31999997D01*
X30419610Y-32000002D01*
X20730647Y-32000002D01*
X20730647Y-31999997D01*
X20710165Y-31857543D01*
X20656613Y-31740282D01*
X20650377Y-31726627D01*
X20556128Y-31617857D01*
X20556127Y-31617856D01*
X20556126Y-31617855D01*
X20435057Y-31540049D01*
X20435054Y-31540047D01*
X20435053Y-31540047D01*
X20435050Y-31540046D01*
X20296964Y-31499500D01*
X20296961Y-31499500D01*
X20153039Y-31499500D01*
X20153035Y-31499500D01*
X20014949Y-31540046D01*
X20014942Y-31540049D01*
X19893873Y-31617855D01*
X19799622Y-31726628D01*
X19739834Y-31857543D01*
X19719353Y-31999997D01*
X19719353Y-32000002D01*
X19739834Y-32142456D01*
X19793387Y-32259718D01*
X19799623Y-32273373D01*
X19893872Y-32382143D01*
X19893873Y-32382144D01*
X20013556Y-32459059D01*
X20052287Y-32506425D01*
X20055781Y-32567510D01*
X20022701Y-32618983D01*
X19987926Y-32637332D01*
X19900443Y-32663020D01*
X19900440Y-32663021D01*
X19900439Y-32663022D01*
X19785411Y-32736945D01*
X19785410Y-32736945D01*
X19785410Y-32736946D01*
X19695868Y-32840284D01*
X19639069Y-32964654D01*
X19639067Y-32964662D01*
X19619610Y-33099997D01*
X19619610Y-33100002D01*
X1000000Y-33100002D01*
X1000000Y-31587502D01*
X12494353Y-31587502D01*
X12514834Y-31729956D01*
X12519550Y-31740282D01*
X12574623Y-31860873D01*
X12668872Y-31969643D01*
X12668873Y-31969644D01*
X12789942Y-32047450D01*
X12789947Y-32047453D01*
X12896403Y-32078711D01*
X12928035Y-32087999D01*
X12928036Y-32087999D01*
X12928039Y-32088000D01*
X12928041Y-32088000D01*
X13071959Y-32088000D01*
X13071961Y-32088000D01*
X13210053Y-32047453D01*
X13331128Y-31969643D01*
X13425377Y-31860873D01*
X13485165Y-31729957D01*
X13498538Y-31636945D01*
X13505647Y-31587502D01*
X13505647Y-31587497D01*
X13485165Y-31445043D01*
X13425377Y-31314127D01*
X13369813Y-31250002D01*
X15319610Y-31250002D01*
X15339067Y-31385337D01*
X15339069Y-31385345D01*
X15395868Y-31509715D01*
X15395869Y-31509716D01*
X15395870Y-31509718D01*
X15485411Y-31613055D01*
X15600439Y-31686978D01*
X15731633Y-31725500D01*
X15731634Y-31725500D01*
X15868366Y-31725500D01*
X15868367Y-31725500D01*
X15999561Y-31686978D01*
X16114589Y-31613055D01*
X16204130Y-31509718D01*
X16260931Y-31385342D01*
X16280390Y-31250000D01*
X16273971Y-31205357D01*
X16260932Y-31114662D01*
X16260930Y-31114654D01*
X16204131Y-30990284D01*
X16204130Y-30990283D01*
X16204130Y-30990282D01*
X16114589Y-30886945D01*
X15999561Y-30813022D01*
X15999558Y-30813021D01*
X15868368Y-30774500D01*
X15868367Y-30774500D01*
X15731633Y-30774500D01*
X15731631Y-30774500D01*
X15600441Y-30813021D01*
X15600439Y-30813021D01*
X15600439Y-30813022D01*
X15485411Y-30886945D01*
X15485410Y-30886945D01*
X15485410Y-30886946D01*
X15395868Y-30990284D01*
X15339069Y-31114654D01*
X15339067Y-31114662D01*
X15319610Y-31249997D01*
X15319610Y-31250002D01*
X13369813Y-31250002D01*
X13331128Y-31205357D01*
X13331127Y-31205356D01*
X13331126Y-31205355D01*
X13210057Y-31127549D01*
X13210054Y-31127547D01*
X13210053Y-31127547D01*
X13210050Y-31127546D01*
X13071964Y-31087000D01*
X13071961Y-31087000D01*
X12928039Y-31087000D01*
X12928035Y-31087000D01*
X12789949Y-31127546D01*
X12789942Y-31127549D01*
X12668873Y-31205355D01*
X12574622Y-31314128D01*
X12514834Y-31445043D01*
X12494353Y-31587497D01*
X12494353Y-31587502D01*
X1000000Y-31587502D01*
X1000000Y-30200002D01*
X30494353Y-30200002D01*
X30514834Y-30342456D01*
X30528532Y-30372449D01*
X30574623Y-30473373D01*
X30668872Y-30582143D01*
X30668873Y-30582144D01*
X30789942Y-30659950D01*
X30789947Y-30659953D01*
X30896403Y-30691211D01*
X30928035Y-30700499D01*
X30928036Y-30700499D01*
X30928039Y-30700500D01*
X30928041Y-30700500D01*
X31071959Y-30700500D01*
X31071961Y-30700500D01*
X31210053Y-30659953D01*
X31331128Y-30582143D01*
X31425377Y-30473373D01*
X31485165Y-30342457D01*
X31505647Y-30200000D01*
X31503615Y-30185870D01*
X31485165Y-30057543D01*
X31425377Y-29926628D01*
X31425377Y-29926627D01*
X31413137Y-29912501D01*
X32494353Y-29912501D01*
X32514834Y-30054955D01*
X32524217Y-30075500D01*
X32574623Y-30185872D01*
X32586867Y-30200002D01*
X32668873Y-30294643D01*
X32789942Y-30372449D01*
X32789947Y-30372452D01*
X32896403Y-30403710D01*
X32928035Y-30412998D01*
X32928036Y-30412998D01*
X32928039Y-30412999D01*
X32928041Y-30412999D01*
X33071959Y-30412999D01*
X33071961Y-30412999D01*
X33210053Y-30372452D01*
X33331128Y-30294642D01*
X33425377Y-30185872D01*
X33485165Y-30054956D01*
X33505647Y-29912499D01*
X33498058Y-29859718D01*
X33485165Y-29770042D01*
X33425377Y-29639126D01*
X33331128Y-29530356D01*
X33331127Y-29530355D01*
X33331126Y-29530354D01*
X33210057Y-29452548D01*
X33210054Y-29452546D01*
X33210053Y-29452546D01*
X33193917Y-29447808D01*
X33071964Y-29411999D01*
X33071961Y-29411999D01*
X32928039Y-29411999D01*
X32928035Y-29411999D01*
X32789949Y-29452545D01*
X32789942Y-29452548D01*
X32668873Y-29530354D01*
X32574622Y-29639127D01*
X32514834Y-29770042D01*
X32494353Y-29912496D01*
X32494353Y-29912501D01*
X31413137Y-29912501D01*
X31331128Y-29817857D01*
X31331127Y-29817856D01*
X31331126Y-29817855D01*
X31210057Y-29740049D01*
X31210054Y-29740047D01*
X31210053Y-29740047D01*
X31210050Y-29740046D01*
X31071964Y-29699500D01*
X31071961Y-29699500D01*
X30928039Y-29699500D01*
X30928035Y-29699500D01*
X30789949Y-29740046D01*
X30789942Y-29740049D01*
X30668873Y-29817855D01*
X30574622Y-29926628D01*
X30514834Y-30057543D01*
X30494353Y-30199997D01*
X30494353Y-30200002D01*
X1000000Y-30200002D01*
X1000000Y-29600002D01*
X19319610Y-29600002D01*
X19339067Y-29735337D01*
X19339069Y-29735345D01*
X19395868Y-29859715D01*
X19395869Y-29859716D01*
X19395870Y-29859718D01*
X19485411Y-29963055D01*
X19600439Y-30036978D01*
X19731633Y-30075500D01*
X19731634Y-30075500D01*
X19868366Y-30075500D01*
X19868367Y-30075500D01*
X19999561Y-30036978D01*
X20114589Y-29963055D01*
X20204130Y-29859718D01*
X20245084Y-29770042D01*
X20260930Y-29735345D01*
X20260932Y-29735337D01*
X20280390Y-29600002D01*
X20280390Y-29599997D01*
X20260932Y-29464662D01*
X20260931Y-29464661D01*
X20260931Y-29464658D01*
X20253234Y-29447805D01*
X20246260Y-29387021D01*
X20276346Y-29333744D01*
X20315394Y-29311691D01*
X20399561Y-29286978D01*
X20514589Y-29213055D01*
X20604130Y-29109718D01*
X20632530Y-29047530D01*
X20654236Y-29000002D01*
X45559610Y-29000002D01*
X45579067Y-29135337D01*
X45579069Y-29135345D01*
X45635868Y-29259715D01*
X45635869Y-29259716D01*
X45635870Y-29259718D01*
X45725411Y-29363055D01*
X45840439Y-29436978D01*
X45971633Y-29475500D01*
X45971634Y-29475500D01*
X46108366Y-29475500D01*
X46108367Y-29475500D01*
X46239561Y-29436978D01*
X46354589Y-29363055D01*
X46444130Y-29259718D01*
X46488290Y-29163022D01*
X46500930Y-29135345D01*
X46500932Y-29135337D01*
X46520390Y-29000002D01*
X46520390Y-28999997D01*
X46500932Y-28864662D01*
X46500930Y-28864654D01*
X46444131Y-28740284D01*
X46444130Y-28740283D01*
X46444130Y-28740282D01*
X46354589Y-28636945D01*
X46239561Y-28563022D01*
X46212091Y-28554956D01*
X46108368Y-28524500D01*
X46108367Y-28524500D01*
X45971633Y-28524500D01*
X45971631Y-28524500D01*
X45840441Y-28563021D01*
X45840439Y-28563021D01*
X45840439Y-28563022D01*
X45725411Y-28636945D01*
X45725410Y-28636945D01*
X45725410Y-28636946D01*
X45635868Y-28740284D01*
X45579069Y-28864654D01*
X45579067Y-28864662D01*
X45559610Y-28999997D01*
X45559610Y-29000002D01*
X20654236Y-29000002D01*
X20660930Y-28985345D01*
X20660932Y-28985337D01*
X20680390Y-28850002D01*
X20680390Y-28849997D01*
X20660932Y-28714662D01*
X20660930Y-28714654D01*
X20604131Y-28590284D01*
X20604130Y-28590283D01*
X20604130Y-28590282D01*
X20514589Y-28486945D01*
X20399561Y-28413022D01*
X20389099Y-28409950D01*
X20268368Y-28374500D01*
X20268367Y-28374500D01*
X20131633Y-28374500D01*
X20131631Y-28374500D01*
X20000441Y-28413021D01*
X20000439Y-28413021D01*
X20000439Y-28413022D01*
X19885411Y-28486945D01*
X19885410Y-28486945D01*
X19885410Y-28486946D01*
X19795868Y-28590284D01*
X19739069Y-28714654D01*
X19739067Y-28714662D01*
X19719610Y-28849997D01*
X19719610Y-28850002D01*
X19739067Y-28985337D01*
X19739068Y-28985339D01*
X19739068Y-28985340D01*
X19739069Y-28985342D01*
X19745762Y-28999997D01*
X19746765Y-29002193D01*
X19753739Y-29062980D01*
X19723652Y-29116257D01*
X19684603Y-29138309D01*
X19600441Y-29163021D01*
X19600439Y-29163021D01*
X19600439Y-29163022D01*
X19485411Y-29236945D01*
X19485410Y-29236945D01*
X19485410Y-29236946D01*
X19395868Y-29340284D01*
X19339069Y-29464654D01*
X19339067Y-29464662D01*
X19319610Y-29599997D01*
X19319610Y-29600002D01*
X1000000Y-29600002D01*
X1000000Y-28412501D01*
X12494353Y-28412501D01*
X12514834Y-28554955D01*
X12552279Y-28636946D01*
X12574623Y-28685872D01*
X12621771Y-28740284D01*
X12668873Y-28794643D01*
X12755006Y-28849997D01*
X12789947Y-28872452D01*
X12896403Y-28903710D01*
X12928035Y-28912998D01*
X12928036Y-28912998D01*
X12928039Y-28912999D01*
X12928041Y-28912999D01*
X13071959Y-28912999D01*
X13071961Y-28912999D01*
X13210053Y-28872452D01*
X13331128Y-28794642D01*
X13425377Y-28685872D01*
X13485165Y-28554956D01*
X13494943Y-28486945D01*
X13505647Y-28412501D01*
X13505647Y-28412496D01*
X13485165Y-28270042D01*
X13425377Y-28139127D01*
X13425377Y-28139126D01*
X13331128Y-28030356D01*
X13331127Y-28030355D01*
X13331126Y-28030354D01*
X13210057Y-27952548D01*
X13210054Y-27952546D01*
X13210053Y-27952546D01*
X13201389Y-27950002D01*
X37294353Y-27950002D01*
X37314834Y-28092456D01*
X37374622Y-28223371D01*
X37374623Y-28223373D01*
X37415062Y-28270042D01*
X37468873Y-28332144D01*
X37589942Y-28409950D01*
X37589947Y-28409953D01*
X37696403Y-28441211D01*
X37728035Y-28450499D01*
X37728036Y-28450499D01*
X37728039Y-28450500D01*
X37728041Y-28450500D01*
X37871959Y-28450500D01*
X37871961Y-28450500D01*
X38010053Y-28409953D01*
X38131128Y-28332143D01*
X38225377Y-28223373D01*
X38285165Y-28092457D01*
X38305647Y-27950000D01*
X38300183Y-27911999D01*
X38285165Y-27807543D01*
X38225377Y-27676628D01*
X38225377Y-27676627D01*
X38131128Y-27567857D01*
X38131127Y-27567856D01*
X38131126Y-27567855D01*
X38010057Y-27490049D01*
X38010054Y-27490047D01*
X38010053Y-27490047D01*
X38010050Y-27490046D01*
X37871964Y-27449500D01*
X37871961Y-27449500D01*
X37728039Y-27449500D01*
X37728035Y-27449500D01*
X37589949Y-27490046D01*
X37589942Y-27490049D01*
X37468873Y-27567855D01*
X37374622Y-27676628D01*
X37314834Y-27807543D01*
X37294353Y-27949997D01*
X37294353Y-27950002D01*
X13201389Y-27950002D01*
X13071964Y-27911999D01*
X13071961Y-27911999D01*
X12928039Y-27911999D01*
X12928035Y-27911999D01*
X12789949Y-27952545D01*
X12789942Y-27952548D01*
X12668873Y-28030354D01*
X12574622Y-28139127D01*
X12514834Y-28270042D01*
X12494353Y-28412496D01*
X12494353Y-28412501D01*
X1000000Y-28412501D01*
X1000000Y-26050002D01*
X39394353Y-26050002D01*
X39414834Y-26192456D01*
X39474622Y-26323371D01*
X39474623Y-26323373D01*
X39568872Y-26432143D01*
X39568873Y-26432144D01*
X39689942Y-26509950D01*
X39689947Y-26509953D01*
X39796403Y-26541211D01*
X39828035Y-26550499D01*
X39828036Y-26550499D01*
X39828039Y-26550500D01*
X39828041Y-26550500D01*
X39971959Y-26550500D01*
X39971961Y-26550500D01*
X40110053Y-26509953D01*
X40231128Y-26432143D01*
X40325377Y-26323373D01*
X40385165Y-26192457D01*
X40405647Y-26050000D01*
X40385165Y-25907543D01*
X40325377Y-25776627D01*
X40231128Y-25667857D01*
X40231127Y-25667856D01*
X40231126Y-25667855D01*
X40110057Y-25590049D01*
X40110054Y-25590047D01*
X40110053Y-25590047D01*
X40110050Y-25590046D01*
X39971964Y-25549500D01*
X39971961Y-25549500D01*
X39828039Y-25549500D01*
X39828035Y-25549500D01*
X39689949Y-25590046D01*
X39689942Y-25590049D01*
X39568873Y-25667855D01*
X39474622Y-25776628D01*
X39414834Y-25907543D01*
X39394353Y-26049997D01*
X39394353Y-26050002D01*
X1000000Y-26050002D01*
X1000000Y-24900002D01*
X37719353Y-24900002D01*
X37739834Y-25042456D01*
X37799622Y-25173371D01*
X37799623Y-25173373D01*
X37893872Y-25282143D01*
X37893873Y-25282144D01*
X38014942Y-25359950D01*
X38014947Y-25359953D01*
X38121403Y-25391211D01*
X38153035Y-25400499D01*
X38153036Y-25400499D01*
X38153039Y-25400500D01*
X38153041Y-25400500D01*
X38296959Y-25400500D01*
X38296961Y-25400500D01*
X38435053Y-25359953D01*
X38556128Y-25282143D01*
X38650377Y-25173373D01*
X38710165Y-25042457D01*
X38719792Y-24975499D01*
X38730647Y-24900002D01*
X38730647Y-24899997D01*
X38710165Y-24757543D01*
X38654357Y-24635342D01*
X38650377Y-24626627D01*
X38556128Y-24517857D01*
X38556127Y-24517856D01*
X38556126Y-24517855D01*
X38435057Y-24440049D01*
X38435054Y-24440047D01*
X38435053Y-24440047D01*
X38435050Y-24440046D01*
X38296964Y-24399500D01*
X38296961Y-24399500D01*
X38153039Y-24399500D01*
X38153035Y-24399500D01*
X38014949Y-24440046D01*
X38014942Y-24440049D01*
X37893873Y-24517855D01*
X37799622Y-24626628D01*
X37739834Y-24757543D01*
X37719353Y-24899997D01*
X37719353Y-24900002D01*
X1000000Y-24900002D01*
X1000000Y-24090002D01*
X49559610Y-24090002D01*
X49579067Y-24225337D01*
X49579069Y-24225345D01*
X49635868Y-24349715D01*
X49635869Y-24349716D01*
X49635870Y-24349718D01*
X49725411Y-24453055D01*
X49840439Y-24526978D01*
X49971633Y-24565500D01*
X49971634Y-24565500D01*
X50108366Y-24565500D01*
X50108367Y-24565500D01*
X50239561Y-24526978D01*
X50281537Y-24500002D01*
X52099610Y-24500002D01*
X52119067Y-24635337D01*
X52119069Y-24635345D01*
X52175868Y-24759715D01*
X52175869Y-24759716D01*
X52175870Y-24759718D01*
X52265411Y-24863055D01*
X52380439Y-24936978D01*
X52511633Y-24975500D01*
X52511634Y-24975500D01*
X52648366Y-24975500D01*
X52648367Y-24975500D01*
X52779561Y-24936978D01*
X52894589Y-24863055D01*
X52984130Y-24759718D01*
X53040931Y-24635342D01*
X53060390Y-24500002D01*
X54619610Y-24500002D01*
X54639067Y-24635337D01*
X54639069Y-24635345D01*
X54695868Y-24759715D01*
X54695869Y-24759716D01*
X54695870Y-24759718D01*
X54785411Y-24863055D01*
X54900439Y-24936978D01*
X55031633Y-24975500D01*
X55031634Y-24975500D01*
X55168366Y-24975500D01*
X55168367Y-24975500D01*
X55299561Y-24936978D01*
X55414589Y-24863055D01*
X55504130Y-24759718D01*
X55560931Y-24635342D01*
X55580390Y-24500000D01*
X55573640Y-24453055D01*
X55560932Y-24364662D01*
X55560930Y-24364654D01*
X55504131Y-24240284D01*
X55504130Y-24240283D01*
X55504130Y-24240282D01*
X55414589Y-24136945D01*
X55299561Y-24063022D01*
X55299558Y-24063021D01*
X55168368Y-24024500D01*
X55168367Y-24024500D01*
X55031633Y-24024500D01*
X55031631Y-24024500D01*
X54900441Y-24063021D01*
X54900439Y-24063021D01*
X54900439Y-24063022D01*
X54785411Y-24136945D01*
X54785410Y-24136945D01*
X54785410Y-24136946D01*
X54695868Y-24240284D01*
X54639069Y-24364654D01*
X54639067Y-24364662D01*
X54619610Y-24499997D01*
X54619610Y-24500002D01*
X53060390Y-24500002D01*
X53060390Y-24500000D01*
X53053640Y-24453055D01*
X53040932Y-24364662D01*
X53040930Y-24364654D01*
X52984131Y-24240284D01*
X52984130Y-24240283D01*
X52984130Y-24240282D01*
X52894589Y-24136945D01*
X52779561Y-24063022D01*
X52779558Y-24063021D01*
X52648368Y-24024500D01*
X52648367Y-24024500D01*
X52511633Y-24024500D01*
X52511631Y-24024500D01*
X52380441Y-24063021D01*
X52380439Y-24063021D01*
X52380439Y-24063022D01*
X52265411Y-24136945D01*
X52265410Y-24136945D01*
X52265410Y-24136946D01*
X52175868Y-24240284D01*
X52119069Y-24364654D01*
X52119067Y-24364662D01*
X52099610Y-24499997D01*
X52099610Y-24500002D01*
X50281537Y-24500002D01*
X50354589Y-24453055D01*
X50444130Y-24349718D01*
X50500931Y-24225342D01*
X50500932Y-24225337D01*
X50520390Y-24090002D01*
X50520390Y-24089997D01*
X50500932Y-23954662D01*
X50500930Y-23954654D01*
X50444131Y-23830284D01*
X50444130Y-23830283D01*
X50444130Y-23830282D01*
X50354589Y-23726945D01*
X50239561Y-23653022D01*
X50239558Y-23653021D01*
X50108368Y-23614500D01*
X50108367Y-23614500D01*
X49971633Y-23614500D01*
X49971631Y-23614500D01*
X49840441Y-23653021D01*
X49840439Y-23653021D01*
X49840439Y-23653022D01*
X49725411Y-23726945D01*
X49725410Y-23726945D01*
X49725410Y-23726946D01*
X49635868Y-23830284D01*
X49579069Y-23954654D01*
X49579067Y-23954662D01*
X49559610Y-24089997D01*
X49559610Y-24090002D01*
X1000000Y-24090002D01*
X1000000Y-22100002D01*
X47019610Y-22100002D01*
X47039067Y-22235337D01*
X47039069Y-22235345D01*
X47095868Y-22359715D01*
X47095869Y-22359716D01*
X47095870Y-22359718D01*
X47185411Y-22463055D01*
X47300439Y-22536978D01*
X47431633Y-22575500D01*
X47431634Y-22575500D01*
X47568366Y-22575500D01*
X47568367Y-22575500D01*
X47699561Y-22536978D01*
X47814589Y-22463055D01*
X47904130Y-22359718D01*
X47960931Y-22235342D01*
X47980390Y-22100000D01*
X47960931Y-21964658D01*
X47960930Y-21964654D01*
X47904131Y-21840284D01*
X47904130Y-21840283D01*
X47904130Y-21840282D01*
X47814589Y-21736945D01*
X47699561Y-21663022D01*
X47699558Y-21663021D01*
X47568368Y-21624500D01*
X47568367Y-21624500D01*
X47431633Y-21624500D01*
X47431631Y-21624500D01*
X47300441Y-21663021D01*
X47300439Y-21663021D01*
X47300439Y-21663022D01*
X47185411Y-21736945D01*
X47185410Y-21736945D01*
X47185410Y-21736946D01*
X47095868Y-21840284D01*
X47039069Y-21964654D01*
X47039067Y-21964662D01*
X47019610Y-22099997D01*
X47019610Y-22100002D01*
X1000000Y-22100002D01*
X1000000Y-21060002D01*
X44479610Y-21060002D01*
X44499067Y-21195337D01*
X44499069Y-21195345D01*
X44555868Y-21319715D01*
X44555869Y-21319716D01*
X44555870Y-21319718D01*
X44645411Y-21423055D01*
X44760439Y-21496978D01*
X44891633Y-21535500D01*
X44891634Y-21535500D01*
X45028366Y-21535500D01*
X45028367Y-21535500D01*
X45159561Y-21496978D01*
X45274589Y-21423055D01*
X45364130Y-21319718D01*
X45420931Y-21195342D01*
X45440390Y-21060000D01*
X45420931Y-20924658D01*
X45420930Y-20924654D01*
X45364131Y-20800284D01*
X45364130Y-20800283D01*
X45364130Y-20800282D01*
X45274589Y-20696945D01*
X45159561Y-20623022D01*
X45159558Y-20623021D01*
X45028368Y-20584500D01*
X45028367Y-20584500D01*
X44891633Y-20584500D01*
X44891631Y-20584500D01*
X44760441Y-20623021D01*
X44760439Y-20623021D01*
X44760439Y-20623022D01*
X44645411Y-20696945D01*
X44645410Y-20696945D01*
X44645410Y-20696946D01*
X44555868Y-20800284D01*
X44499069Y-20924654D01*
X44499067Y-20924662D01*
X44479610Y-21059997D01*
X44479610Y-21060002D01*
X1000000Y-21060002D01*
X1000000Y-19350002D01*
X41919610Y-19350002D01*
X41939067Y-19485337D01*
X41939069Y-19485345D01*
X41995868Y-19609715D01*
X41995869Y-19609716D01*
X41995870Y-19609718D01*
X42085411Y-19713055D01*
X42200439Y-19786978D01*
X42331633Y-19825500D01*
X42331634Y-19825500D01*
X42468366Y-19825500D01*
X42468367Y-19825500D01*
X42599561Y-19786978D01*
X42714589Y-19713055D01*
X42804130Y-19609718D01*
X42860931Y-19485342D01*
X42880390Y-19350000D01*
X42860931Y-19214658D01*
X42860930Y-19214654D01*
X42804131Y-19090284D01*
X42804130Y-19090283D01*
X42804130Y-19090282D01*
X42714589Y-18986945D01*
X42599561Y-18913022D01*
X42599558Y-18913021D01*
X42468368Y-18874500D01*
X42468367Y-18874500D01*
X42331633Y-18874500D01*
X42331631Y-18874500D01*
X42200441Y-18913021D01*
X42200439Y-18913021D01*
X42200439Y-18913022D01*
X42085411Y-18986945D01*
X42085410Y-18986945D01*
X42085410Y-18986946D01*
X41995868Y-19090284D01*
X41939069Y-19214654D01*
X41939067Y-19214662D01*
X41919610Y-19349997D01*
X41919610Y-19350002D01*
X1000000Y-19350002D01*
X1000000Y-18600002D01*
X39419610Y-18600002D01*
X39439067Y-18735337D01*
X39439069Y-18735345D01*
X39495868Y-18859715D01*
X39495869Y-18859716D01*
X39495870Y-18859718D01*
X39585411Y-18963055D01*
X39700439Y-19036978D01*
X39831633Y-19075500D01*
X39831634Y-19075500D01*
X39968366Y-19075500D01*
X39968367Y-19075500D01*
X40099561Y-19036978D01*
X40214589Y-18963055D01*
X40304130Y-18859718D01*
X40360931Y-18735342D01*
X40380390Y-18600000D01*
X40360931Y-18464658D01*
X40360930Y-18464654D01*
X40304131Y-18340284D01*
X40304130Y-18340283D01*
X40304130Y-18340282D01*
X40214589Y-18236945D01*
X40099561Y-18163022D01*
X40099558Y-18163021D01*
X39968368Y-18124500D01*
X39968367Y-18124500D01*
X39831633Y-18124500D01*
X39831631Y-18124500D01*
X39700441Y-18163021D01*
X39700439Y-18163021D01*
X39700439Y-18163022D01*
X39585411Y-18236945D01*
X39585410Y-18236945D01*
X39585410Y-18236946D01*
X39495868Y-18340284D01*
X39439069Y-18464654D01*
X39439067Y-18464662D01*
X39419610Y-18599997D01*
X39419610Y-18600002D01*
X1000000Y-18600002D01*
X1000000Y-16525002D01*
X45704353Y-16525002D01*
X45724834Y-16667456D01*
X45784622Y-16798371D01*
X45784623Y-16798373D01*
X45878872Y-16907143D01*
X45878873Y-16907144D01*
X45999942Y-16984950D01*
X45999947Y-16984953D01*
X46106403Y-17016211D01*
X46138035Y-17025499D01*
X46138036Y-17025499D01*
X46138039Y-17025500D01*
X46138041Y-17025500D01*
X46281959Y-17025500D01*
X46281961Y-17025500D01*
X46420053Y-16984953D01*
X46541128Y-16907143D01*
X46635377Y-16798373D01*
X46695165Y-16667457D01*
X46715647Y-16525002D01*
X50784353Y-16525002D01*
X50804834Y-16667456D01*
X50864622Y-16798371D01*
X50864623Y-16798373D01*
X50958872Y-16907143D01*
X50958873Y-16907144D01*
X51079942Y-16984950D01*
X51079947Y-16984953D01*
X51186403Y-17016211D01*
X51218035Y-17025499D01*
X51218036Y-17025499D01*
X51218039Y-17025500D01*
X51218041Y-17025500D01*
X51361959Y-17025500D01*
X51361961Y-17025500D01*
X51500053Y-16984953D01*
X51621128Y-16907143D01*
X51715377Y-16798373D01*
X51775165Y-16667457D01*
X51795647Y-16525002D01*
X55844353Y-16525002D01*
X55864834Y-16667456D01*
X55924622Y-16798371D01*
X55924623Y-16798373D01*
X56018872Y-16907143D01*
X56018873Y-16907144D01*
X56139942Y-16984950D01*
X56139947Y-16984953D01*
X56246403Y-17016211D01*
X56278035Y-17025499D01*
X56278036Y-17025499D01*
X56278039Y-17025500D01*
X56278041Y-17025500D01*
X56421959Y-17025500D01*
X56421961Y-17025500D01*
X56560053Y-16984953D01*
X56681128Y-16907143D01*
X56775377Y-16798373D01*
X56835165Y-16667457D01*
X56855647Y-16525000D01*
X56835165Y-16382543D01*
X56775377Y-16251627D01*
X56681128Y-16142857D01*
X56681127Y-16142856D01*
X56681126Y-16142855D01*
X56560057Y-16065049D01*
X56560054Y-16065047D01*
X56560053Y-16065047D01*
X56560050Y-16065046D01*
X56421964Y-16024500D01*
X56421961Y-16024500D01*
X56278039Y-16024500D01*
X56278035Y-16024500D01*
X56139949Y-16065046D01*
X56139942Y-16065049D01*
X56018873Y-16142855D01*
X55924622Y-16251628D01*
X55864834Y-16382543D01*
X55844353Y-16524997D01*
X55844353Y-16525002D01*
X51795647Y-16525002D01*
X51795647Y-16525000D01*
X51775165Y-16382543D01*
X51715377Y-16251627D01*
X51621128Y-16142857D01*
X51621127Y-16142856D01*
X51621126Y-16142855D01*
X51500057Y-16065049D01*
X51500054Y-16065047D01*
X51500053Y-16065047D01*
X51500050Y-16065046D01*
X51361964Y-16024500D01*
X51361961Y-16024500D01*
X51218039Y-16024500D01*
X51218035Y-16024500D01*
X51079949Y-16065046D01*
X51079942Y-16065049D01*
X50958873Y-16142855D01*
X50864622Y-16251628D01*
X50804834Y-16382543D01*
X50784353Y-16524997D01*
X50784353Y-16525002D01*
X46715647Y-16525002D01*
X46715647Y-16525000D01*
X46695165Y-16382543D01*
X46635377Y-16251627D01*
X46541128Y-16142857D01*
X46541127Y-16142856D01*
X46541126Y-16142855D01*
X46420057Y-16065049D01*
X46420054Y-16065047D01*
X46420053Y-16065047D01*
X46420050Y-16065046D01*
X46281964Y-16024500D01*
X46281961Y-16024500D01*
X46138039Y-16024500D01*
X46138035Y-16024500D01*
X45999949Y-16065046D01*
X45999942Y-16065049D01*
X45878873Y-16142855D01*
X45784622Y-16251628D01*
X45724834Y-16382543D01*
X45704353Y-16524997D01*
X45704353Y-16525002D01*
X1000000Y-16525002D01*
X1000000Y-14825002D01*
X39394353Y-14825002D01*
X39414834Y-14967456D01*
X39474622Y-15098371D01*
X39474623Y-15098373D01*
X39568872Y-15207143D01*
X39568873Y-15207144D01*
X39689942Y-15284950D01*
X39689947Y-15284953D01*
X39796403Y-15316211D01*
X39828035Y-15325499D01*
X39828036Y-15325499D01*
X39828039Y-15325500D01*
X39828041Y-15325500D01*
X39971959Y-15325500D01*
X39971961Y-15325500D01*
X40110053Y-15284953D01*
X40231128Y-15207143D01*
X40325377Y-15098373D01*
X40385165Y-14967457D01*
X40405647Y-14825000D01*
X40401818Y-14798371D01*
X40385165Y-14682543D01*
X40325377Y-14551628D01*
X40325377Y-14551627D01*
X40302306Y-14525002D01*
X41914353Y-14525002D01*
X41934834Y-14667456D01*
X41994622Y-14798371D01*
X41994623Y-14798373D01*
X42088872Y-14907143D01*
X42088873Y-14907144D01*
X42209942Y-14984950D01*
X42209947Y-14984953D01*
X42316403Y-15016211D01*
X42348035Y-15025499D01*
X42348036Y-15025499D01*
X42348039Y-15025500D01*
X42348041Y-15025500D01*
X42491959Y-15025500D01*
X42491961Y-15025500D01*
X42630053Y-14984953D01*
X42751128Y-14907143D01*
X42845377Y-14798373D01*
X42905165Y-14667457D01*
X42925647Y-14525000D01*
X42913836Y-14442855D01*
X42905165Y-14382543D01*
X42845377Y-14251628D01*
X42845377Y-14251627D01*
X42751128Y-14142857D01*
X42751127Y-14142856D01*
X42751126Y-14142855D01*
X42630057Y-14065049D01*
X42630054Y-14065047D01*
X42630053Y-14065047D01*
X42630050Y-14065046D01*
X42491964Y-14024500D01*
X42491961Y-14024500D01*
X42348039Y-14024500D01*
X42348035Y-14024500D01*
X42209949Y-14065046D01*
X42209942Y-14065049D01*
X42088873Y-14142855D01*
X41994622Y-14251628D01*
X41934834Y-14382543D01*
X41914353Y-14524997D01*
X41914353Y-14525002D01*
X40302306Y-14525002D01*
X40231128Y-14442857D01*
X40231127Y-14442856D01*
X40231126Y-14442855D01*
X40110057Y-14365049D01*
X40110054Y-14365047D01*
X40110053Y-14365047D01*
X40110050Y-14365046D01*
X39971964Y-14324500D01*
X39971961Y-14324500D01*
X39828039Y-14324500D01*
X39828035Y-14324500D01*
X39689949Y-14365046D01*
X39689942Y-14365049D01*
X39568873Y-14442855D01*
X39474622Y-14551628D01*
X39414834Y-14682543D01*
X39394353Y-14824997D01*
X39394353Y-14825002D01*
X1000000Y-14825002D01*
X1000000Y-1099000D01*
X1018907Y-1040809D01*
X1068407Y-1004845D01*
X1099000Y-1000000D01*
X93901000Y-1000000D01*
X93959191Y-1018907D01*
G37*
%TD.AperFunction*%
%TD*%
M02*
