%TF.GenerationSoftware,KiCad,Pcbnew,7.0.11+dfsg-1build4*%
%TF.CreationDate,2026-09-30T16:25:39+00:00*%
%TF.ProjectId,amiga_scandoubler_v030wip,616d6967-615f-4736-9361-6e646f75626c,rev?*%
%TF.SameCoordinates,Original*%
%TF.FileFunction,Soldermask,Bot*%
%TF.FilePolarity,Negative*%
%FSLAX46Y46*%
G04 Gerber Fmt 4.6, Leading zero omitted, Abs format (unit mm)*
G04 Created by KiCad (PCBNEW 7.0.11+dfsg-1build4) date 2026-09-30 16:25:39*
%MOMM*%
%LPD*%
G01*
G04 APERTURE LIST*
%ADD10R,1.700000X1.700000*%
%ADD11C,1.700000*%
%ADD12C,4.000000*%
%ADD13C,0.650000*%
%ADD14O,1.200000X2.100000*%
%ADD15O,1.200000X1.600000*%
G04 APERTURE END LIST*
D10*
%TO.C,J2*%
X87960000Y-37685000D03*
D11*
X87960000Y-39975000D03*
X87960000Y-42265000D03*
X87960000Y-44555000D03*
X87960000Y-46845000D03*
X89940000Y-36540000D03*
X89940000Y-38830000D03*
X89940000Y-41120000D03*
X89940000Y-43410000D03*
X89940000Y-45700000D03*
X91920000Y-37685000D03*
X91920000Y-39975000D03*
X91920000Y-42265000D03*
X91920000Y-44555000D03*
X91920000Y-46845000D03*
D12*
X89940000Y-54500000D03*
X89940000Y-29500000D03*
%TD*%
D13*
%TO.C,J3*%
X44610000Y-88750000D03*
X50390000Y-88750000D03*
D14*
X43180000Y-88220000D03*
D15*
X43180000Y-92400000D03*
D14*
X51820000Y-88220000D03*
D15*
X51820000Y-92400000D03*
%TD*%
D10*
%TO.C,J1*%
X7040000Y-46315000D03*
D11*
X7040000Y-44025000D03*
X7040000Y-41735000D03*
X7040000Y-39445000D03*
X7040000Y-37155000D03*
X5060000Y-47460000D03*
X5060000Y-45170000D03*
X5060000Y-42880000D03*
X5060000Y-40590000D03*
X5060000Y-38300000D03*
X3080000Y-46315000D03*
X3080000Y-44025000D03*
X3080000Y-41735000D03*
X3080000Y-39445000D03*
X3080000Y-37155000D03*
D12*
X5060000Y-29500000D03*
X5060000Y-54500000D03*
%TD*%
M02*
