%TF.GenerationSoftware,KiCad,Pcbnew,7.0.11+dfsg-1build4*%
%TF.CreationDate,2026-10-01T13:32:13+00:00*%
%TF.ProjectId,amiga_scandoubler_v030wip,616d6967-615f-4736-9361-6e646f75626c,rev?*%
%TF.SameCoordinates,Original*%
%TF.FileFunction,Copper,L4,Bot*%
%TF.FilePolarity,Positive*%
%FSLAX46Y46*%
G04 Gerber Fmt 4.6, Leading zero omitted, Abs format (unit mm)*
G04 Created by KiCad (PCBNEW 7.0.11+dfsg-1build4) date 2026-10-01 13:32:13*
%MOMM*%
%LPD*%
G01*
G04 APERTURE LIST*
%TA.AperFunction,ComponentPad*%
%ADD10R,1.700000X1.700000*%
%TD*%
%TA.AperFunction,ComponentPad*%
%ADD11C,1.700000*%
%TD*%
%TA.AperFunction,ComponentPad*%
%ADD12C,4.000000*%
%TD*%
%TA.AperFunction,ComponentPad*%
%ADD13O,1.200000X2.100000*%
%TD*%
%TA.AperFunction,ComponentPad*%
%ADD14O,1.200000X1.600000*%
%TD*%
%TA.AperFunction,ViaPad*%
%ADD15C,0.600000*%
%TD*%
%TA.AperFunction,ViaPad*%
%ADD16C,0.550000*%
%TD*%
%TA.AperFunction,ViaPad*%
%ADD17C,0.500000*%
%TD*%
%TA.AperFunction,Conductor*%
%ADD18C,0.150000*%
%TD*%
%TA.AperFunction,Conductor*%
%ADD19C,0.300000*%
%TD*%
%TA.AperFunction,Conductor*%
%ADD20C,0.127000*%
%TD*%
%TA.AperFunction,Conductor*%
%ADD21C,0.200000*%
%TD*%
%TA.AperFunction,Conductor*%
%ADD22C,0.800000*%
%TD*%
G04 APERTURE END LIST*
D10*
%TO.P,J2,1*%
%TO.N,R_OUT*%
X87960000Y-37685000D03*
D11*
%TO.P,J2,2*%
%TO.N,G_OUT*%
X87960000Y-39975000D03*
%TO.P,J2,3*%
%TO.N,B_OUT*%
X87960000Y-42265000D03*
%TO.P,J2,4*%
%TO.N,N/C*%
X87960000Y-44555000D03*
%TO.P,J2,5*%
%TO.N,GND*%
X87960000Y-46845000D03*
%TO.P,J2,6*%
X89940000Y-36540000D03*
%TO.P,J2,7*%
X89940000Y-38830000D03*
%TO.P,J2,8*%
X89940000Y-41120000D03*
%TO.P,J2,9*%
%TO.N,N/C*%
X89940000Y-43410000D03*
%TO.P,J2,10*%
%TO.N,GND*%
X89940000Y-45700000D03*
%TO.P,J2,11*%
%TO.N,N/C*%
X91920000Y-37685000D03*
%TO.P,J2,12*%
X91920000Y-39975000D03*
%TO.P,J2,13*%
%TO.N,H_OUT*%
X91920000Y-42265000D03*
%TO.P,J2,14*%
%TO.N,V_OUT*%
X91920000Y-44555000D03*
%TO.P,J2,15*%
%TO.N,N/C*%
X91920000Y-46845000D03*
D12*
%TO.P,J2,16*%
%TO.N,GND*%
X89940000Y-54500000D03*
X89940000Y-29500000D03*
%TD*%
D13*
%TO.P,J3,S1*%
%TO.N,GND*%
X43180000Y-88220000D03*
D14*
X43180000Y-92400000D03*
D13*
X51820000Y-88220000D03*
D14*
X51820000Y-92400000D03*
%TD*%
D10*
%TO.P,J1,1*%
%TO.N,R_IN*%
X7040000Y-46315000D03*
D11*
%TO.P,J1,2*%
%TO.N,G_IN*%
X7040000Y-44025000D03*
%TO.P,J1,3*%
%TO.N,B_IN*%
X7040000Y-41735000D03*
%TO.P,J1,4*%
%TO.N,N/C*%
X7040000Y-39445000D03*
%TO.P,J1,5*%
%TO.N,GND*%
X7040000Y-37155000D03*
%TO.P,J1,6*%
X5060000Y-47460000D03*
%TO.P,J1,7*%
X5060000Y-45170000D03*
%TO.P,J1,8*%
X5060000Y-42880000D03*
%TO.P,J1,9*%
%TO.N,N/C*%
X5060000Y-40590000D03*
%TO.P,J1,10*%
%TO.N,GND*%
X5060000Y-38300000D03*
%TO.P,J1,11*%
%TO.N,N/C*%
X3080000Y-46315000D03*
%TO.P,J1,12*%
X3080000Y-44025000D03*
%TO.P,J1,13*%
%TO.N,H_IN*%
X3080000Y-41735000D03*
%TO.P,J1,14*%
%TO.N,V_IN*%
X3080000Y-39445000D03*
%TO.P,J1,15*%
%TO.N,N/C*%
X3080000Y-37155000D03*
D12*
%TO.P,J1,16*%
%TO.N,GND*%
X5060000Y-29500000D03*
X5060000Y-54500000D03*
%TD*%
D15*
%TO.N,GIN_1*%
X12775000Y-50500000D03*
X19750000Y-36500000D03*
D16*
%TO.N,RIN_3*%
X16950000Y-39750000D03*
X13950000Y-37100000D03*
%TO.N,RIN_2*%
X12900000Y-41150000D03*
X16950000Y-40600000D03*
%TO.N,RIN_1*%
X16950000Y-41450000D03*
X12950000Y-33700000D03*
%TO.N,BIN_3*%
X17175000Y-43500000D03*
X11200000Y-46500000D03*
%TO.N,BIN_1*%
X17050000Y-44500000D03*
X14900000Y-50500000D03*
%TO.N,GIN_4*%
X22000000Y-35650000D03*
X19800000Y-29600000D03*
%TO.N,GIN_3*%
X20200000Y-28850000D03*
X21000000Y-33000000D03*
%TO.N,SOGIN_2*%
X20100000Y-33100000D03*
X15902600Y-31321400D03*
%TO.N,ADC_VS*%
X20900000Y-55050000D03*
X53200000Y-45960000D03*
X16750000Y-48500000D03*
X18700000Y-52850000D03*
%TO.N,ADC_HS*%
X18800000Y-53750000D03*
X17500000Y-48900000D03*
X20900000Y-55850000D03*
X53200000Y-48050000D03*
%TO.N,ADC_CLK*%
X43950000Y-45000000D03*
X20900000Y-50850000D03*
%TO.N,ADC_PWDN*%
X37164000Y-38964000D03*
X41800000Y-43600000D03*
X32450000Y-38550000D03*
%TO.N,ADC_RESET_N*%
X42550000Y-43500000D03*
X32450000Y-37800000D03*
X38158000Y-39108000D03*
D17*
%TO.N,GND*%
X24000000Y-43000000D03*
X17150000Y-46450000D03*
D15*
X32000000Y-32950000D03*
X23400000Y-74100000D03*
X46675000Y-77000000D03*
X15000000Y-36725000D03*
X36550000Y-33270000D03*
X24000000Y-30725000D03*
X80500000Y-40725000D03*
X48750000Y-16525000D03*
D16*
X75300000Y-40800000D03*
D17*
X52000000Y-44000000D03*
D15*
X81950000Y-49000000D03*
X51400000Y-86300000D03*
D17*
X52000000Y-40000000D03*
D15*
X11825000Y-50500000D03*
X19000000Y-29725000D03*
D16*
X19500000Y-57225000D03*
D15*
X38350000Y-36200000D03*
X68600000Y-71200000D03*
X44960000Y-9475000D03*
X80950000Y-50350000D03*
X75550000Y-36637499D03*
X19575000Y-72750000D03*
X28575000Y-31000000D03*
X15000000Y-43925000D03*
X11300000Y-35375000D03*
D16*
X14662500Y-59000000D03*
D17*
X24000000Y-41500000D03*
D15*
X79962499Y-44350000D03*
X56100000Y-49225000D03*
X42420000Y-9475000D03*
D16*
X79662500Y-54800000D03*
D15*
X40175000Y-85800000D03*
D17*
X27000000Y-43000000D03*
D15*
X42075000Y-72750000D03*
D16*
X72000000Y-44850000D03*
D15*
X47500000Y-9475000D03*
X43625000Y-34100000D03*
D16*
X55300000Y-54000000D03*
D15*
X68400000Y-74500000D03*
X14950000Y-25850000D03*
D17*
X25500000Y-40000000D03*
D15*
X42400000Y-15825000D03*
X15200000Y-28725000D03*
X82625000Y-37300000D03*
D16*
X82725000Y-58800000D03*
D15*
X42000000Y-46275000D03*
X15950000Y-48500000D03*
X45900000Y-74100000D03*
X23600000Y-71200000D03*
D17*
X24000000Y-40000000D03*
D15*
X35925000Y-72750000D03*
X80900000Y-72750000D03*
D16*
X12950000Y-62700000D03*
D15*
X71400000Y-39200000D03*
X39700000Y-83925000D03*
D16*
X62075000Y-54800000D03*
D15*
X43000000Y-47775000D03*
D17*
X52000000Y-42000000D03*
D15*
X21775000Y-27000000D03*
X55550000Y-36450000D03*
X46100000Y-71200000D03*
X14950000Y-46200000D03*
D17*
X25500000Y-41500000D03*
D15*
X75700000Y-32075000D03*
X35000000Y-39725000D03*
X66962000Y-54950000D03*
D16*
X15975000Y-62900000D03*
D15*
X43600000Y-86300000D03*
X39775000Y-24900000D03*
X11000000Y-39725000D03*
X59225000Y-47200000D03*
X58000000Y-42050000D03*
X71275000Y-58500000D03*
X50040000Y-9475000D03*
D16*
X76900000Y-44000000D03*
X76900000Y-42250000D03*
D15*
X81362500Y-41150000D03*
X17600000Y-54725000D03*
D16*
X26100000Y-53900000D03*
D17*
X27000000Y-40000000D03*
D15*
X61575000Y-36000000D03*
X55325000Y-85800000D03*
X42200000Y-27950000D03*
D16*
X57975000Y-55900000D03*
D15*
X15000000Y-33225000D03*
D17*
X50000000Y-40000000D03*
D16*
X42100000Y-38125000D03*
D15*
X58425000Y-72750000D03*
D16*
X27600000Y-53900000D03*
D17*
X25500000Y-43000000D03*
D16*
X36700000Y-48825000D03*
X61200000Y-53300000D03*
D15*
X64099999Y-72750000D03*
X78125000Y-52500000D03*
D17*
X27000000Y-41500000D03*
D15*
X24175000Y-77000000D03*
X35000000Y-36225000D03*
X32450000Y-27350000D03*
X24000000Y-32950000D03*
X16950000Y-36800000D03*
X28800000Y-33150000D03*
X45400000Y-50875000D03*
X68637500Y-44950000D03*
X29275000Y-26900000D03*
X41000000Y-32770000D03*
X15000000Y-40425000D03*
D16*
X36200000Y-46900000D03*
D17*
X48000000Y-40000000D03*
D15*
X79362500Y-44750000D03*
X79675000Y-35300000D03*
D16*
X17900000Y-52550000D03*
D15*
X54925000Y-82000000D03*
D17*
X48000000Y-42000000D03*
X50000000Y-42000000D03*
D15*
X69175000Y-77000000D03*
D17*
X48000000Y-44000000D03*
X50000000Y-44000000D03*
D16*
X35300000Y-43550000D03*
%TO.N,I2C_SCL*%
X39021000Y-38871000D03*
X43300000Y-43150000D03*
X32299999Y-36950000D03*
%TO.N,I2C_SDA*%
X39877000Y-38427000D03*
X44050000Y-42600000D03*
X31600000Y-36250000D03*
%TO.N,V_IN_3V3*%
X17500000Y-56450000D03*
X27650000Y-46300000D03*
%TO.N,REF_27M*%
X30400000Y-35600000D03*
X37750000Y-35600000D03*
X40200000Y-34000000D03*
X53960000Y-41900000D03*
%TO.N,H_IN_3V3*%
X18750000Y-57350000D03*
X29450000Y-45700000D03*
D15*
%TO.N,ADC_1V9A*%
X13924999Y-47500000D03*
X15000000Y-41775000D03*
D16*
X14425000Y-65300000D03*
D15*
X17187500Y-53500000D03*
X15000000Y-38275000D03*
%TO.N,ADC_3V3A*%
X15000000Y-45275000D03*
X13000000Y-28312500D03*
X20225000Y-32000000D03*
D16*
%TO.N,3V3*%
X35100000Y-47400000D03*
X46050000Y-43000000D03*
D15*
X40050000Y-35750000D03*
D16*
X13300000Y-57375000D03*
D15*
X41775000Y-34480000D03*
X78300000Y-57825000D03*
X41000000Y-43725000D03*
D16*
X19400000Y-52550000D03*
D15*
X35000000Y-41275000D03*
X13000000Y-31687500D03*
X42420000Y-14525000D03*
X67038000Y-53050000D03*
X38225000Y-24900000D03*
X46210000Y-16525000D03*
X37200000Y-36200000D03*
X38825000Y-76600000D03*
X35775000Y-34980000D03*
X39900000Y-14825000D03*
D16*
X46040000Y-45200000D03*
D15*
X75225000Y-54950000D03*
D16*
X19500000Y-58775000D03*
D15*
X19700000Y-56275000D03*
D16*
X16125000Y-56000000D03*
X36700000Y-50375000D03*
D15*
X69725000Y-58500000D03*
D16*
X59625000Y-55900000D03*
D15*
X51290000Y-16525000D03*
D16*
X86075000Y-58800000D03*
D15*
X39900000Y-26050000D03*
X56350000Y-16525000D03*
D16*
X45600000Y-47600000D03*
X50200000Y-45950000D03*
D15*
X74819500Y-50263200D03*
X55950000Y-42000000D03*
D16*
X56425000Y-55900000D03*
X28600000Y-54100000D03*
D15*
X33049999Y-75200000D03*
X54200000Y-36100000D03*
X61825000Y-63300000D03*
X37800000Y-27950000D03*
X45175000Y-34100000D03*
%TO.N,1V9*%
X32799999Y-33187500D03*
X35000000Y-37775000D03*
X54550000Y-72750000D03*
D16*
X26100000Y-46000000D03*
D15*
X14717900Y-52610500D03*
%TO.N,ADC_1V9PLL*%
X31000000Y-30200000D03*
D16*
X30900000Y-32000000D03*
D15*
X33000000Y-29812500D03*
X27800000Y-36000000D03*
D16*
%TO.N,DAC_PSAVE_N*%
X75700000Y-39100000D03*
X46040000Y-42100000D03*
X63950000Y-37900000D03*
%TO.N,H_OUT_RAW*%
X61850000Y-44900000D03*
X79936000Y-52536000D03*
X80662500Y-53250000D03*
%TO.N,V_OUT_RAW*%
X80662500Y-56750000D03*
X61150000Y-45600000D03*
X78293000Y-54393000D03*
D15*
%TO.N,POWER_GOOD*%
X60175000Y-65700000D03*
D16*
X46040000Y-44450000D03*
D15*
X49000000Y-71000000D03*
X71500000Y-71000000D03*
D16*
%TO.N,DAC_R0*%
X46040000Y-38950000D03*
X46040000Y-29000000D03*
%TO.N,JTAGSEL_N*%
X56550000Y-45450000D03*
X42400000Y-19350000D03*
%TO.N,JTAG_TMS*%
X44960000Y-21060000D03*
X57100000Y-44900000D03*
%TO.N,JTAG_TCK*%
X47500000Y-22100000D03*
X58600000Y-44350000D03*
%TO.N,JTAG_TDI*%
X50040000Y-24090000D03*
X59150000Y-43800000D03*
%TO.N,JTAG_TDO*%
X59700000Y-43250000D03*
X52580000Y-24500000D03*
%TO.N,FPGA_RECONFIG_N*%
X60250000Y-42700000D03*
X55100000Y-24500000D03*
%TO.N,FPGA_DONE*%
X53960000Y-42900000D03*
X39900000Y-18600000D03*
%TO.N,1V2*%
X59900000Y-50750000D03*
D15*
X58000000Y-37225000D03*
X44000000Y-37225000D03*
X77050000Y-72750000D03*
X42000000Y-45425001D03*
X55900000Y-37550000D03*
X55950000Y-46750000D03*
%TO.N,DAC_3V3*%
X74800000Y-52500000D03*
X79381000Y-38978000D03*
D16*
X71200000Y-44500000D03*
D15*
X78075000Y-48300000D03*
X79500000Y-43275000D03*
D16*
%TO.N,B_OUT*%
X80300000Y-47625000D03*
X76762499Y-43250000D03*
%TO.N,G_OUT*%
X76362500Y-41650000D03*
X82300000Y-44125000D03*
D15*
%TO.N,R_OUT*%
X79375000Y-37300000D03*
X76162500Y-40450000D03*
%TO.N,DAC_COMP*%
X76762499Y-39750000D03*
D16*
X77550000Y-46750000D03*
%TO.N,G_IN*%
X8600000Y-45550000D03*
%TO.N,B_IN*%
X9200000Y-46950000D03*
%TO.N,H_OUT*%
X91900000Y-48200000D03*
D15*
%TO.N,USB_VBUS*%
X44300000Y-82000000D03*
X49950000Y-86125000D03*
X45050000Y-86125000D03*
%TO.N,PG_3V3*%
X37175000Y-76600000D03*
X37175000Y-83000000D03*
X68300000Y-73400000D03*
X26500000Y-71000000D03*
%TD*%
D18*
%TO.N,GIN_1*%
X15150000Y-42700000D02*
X12800000Y-45050000D01*
X12800000Y-45050000D02*
X12800000Y-50500000D01*
X16500000Y-42700000D02*
X15150000Y-42700000D01*
X19750000Y-39450000D02*
X16500000Y-42700000D01*
X19750000Y-36500000D02*
X19750000Y-39450000D01*
%TO.N,RIN_3*%
X14950000Y-37350000D02*
X14200000Y-37350000D01*
X14200000Y-37350000D02*
X13950000Y-37100000D01*
X16950000Y-39350000D02*
X14950000Y-37350000D01*
X16950000Y-39750000D02*
X16950000Y-39350000D01*
%TO.N,RIN_2*%
X16399999Y-41150000D02*
X12900000Y-41150000D01*
X16950000Y-40600000D02*
X16399999Y-41150000D01*
%TO.N,RIN_1*%
X16950000Y-41450000D02*
X17550000Y-40850000D01*
X17550000Y-38300000D02*
X12950000Y-33700000D01*
X17550000Y-40850000D02*
X17550000Y-38300000D01*
%TO.N,BIN_3*%
X11200000Y-50750000D02*
X11200000Y-46500000D01*
X15600000Y-46650000D02*
X14400000Y-47850000D01*
X14400000Y-49750000D02*
X13050000Y-51100000D01*
X13050000Y-51100000D02*
X11550000Y-51100000D01*
X15600000Y-45150000D02*
X15600000Y-46650000D01*
X11550000Y-51100000D02*
X11200000Y-50750000D01*
X17175000Y-43500000D02*
X15600000Y-45150000D01*
X14400000Y-47850000D02*
X14400000Y-49750000D01*
%TO.N,BIN_1*%
X17050000Y-45750000D02*
X14900000Y-47900000D01*
X14900000Y-47900000D02*
X14900000Y-50500000D01*
X17050000Y-44500000D02*
X17050000Y-45750000D01*
%TO.N,GIN_4*%
X22000000Y-35650000D02*
X22000000Y-29850000D01*
X20000000Y-28250000D02*
X19600000Y-28650000D01*
X20400000Y-28250000D02*
X20000000Y-28250000D01*
X22000000Y-29850000D02*
X20400000Y-28250000D01*
X19600000Y-29400000D02*
X19800000Y-29600000D01*
X19600000Y-28650000D02*
X19600000Y-29400000D01*
%TO.N,GIN_3*%
X21000000Y-33000000D02*
X21000000Y-29650000D01*
X21000000Y-29650000D02*
X20200000Y-28850000D01*
%TO.N,SOGIN_2*%
X17650000Y-33100000D02*
X20100000Y-33100000D01*
X15902600Y-31321400D02*
X17650000Y-33100000D01*
%TO.N,ADC_VS*%
X16750000Y-50600000D02*
X18700000Y-52550000D01*
X16750000Y-48500000D02*
X16750000Y-50600000D01*
X53200000Y-45950000D02*
X53200000Y-45960000D01*
X18700000Y-52550000D02*
X18700000Y-52850000D01*
X20900000Y-55050000D02*
X44100000Y-55050000D01*
X44100000Y-55050000D02*
X53200000Y-45950000D01*
%TO.N,ADC_HS*%
X19000000Y-53750000D02*
X18800000Y-53750000D01*
X17500000Y-49850000D02*
X20000000Y-52350000D01*
X45400000Y-55850000D02*
X53200000Y-48050000D01*
X17500000Y-48900000D02*
X17500000Y-49850000D01*
X20900000Y-55850000D02*
X45400000Y-55850000D01*
X20000000Y-52350000D02*
X20000000Y-52750000D01*
X20000000Y-52750000D02*
X19000000Y-53750000D01*
%TO.N,ADC_CLK*%
X41450000Y-44400000D02*
X43350000Y-44400000D01*
X28750000Y-44400000D02*
X41450000Y-44400000D01*
X43350000Y-44400000D02*
X43950000Y-45000000D01*
X20900000Y-50850000D02*
X22300000Y-50850000D01*
X22300000Y-50850000D02*
X28750000Y-44400000D01*
%TO.N,ADC_PWDN*%
X32650000Y-38750000D02*
X36950000Y-38750000D01*
X32450000Y-38550000D02*
X32650000Y-38750000D01*
X36950000Y-38750000D02*
X41800000Y-43600000D01*
%TO.N,ADC_RESET_N*%
X33350000Y-38400000D02*
X37450000Y-38400000D01*
X32450000Y-37800000D02*
X32750000Y-37800000D01*
X32750000Y-37800000D02*
X33350000Y-38400000D01*
X37450000Y-38400000D02*
X42550000Y-43500000D01*
D19*
%TO.N,GND*%
X45900000Y-77000000D02*
X45900000Y-74100000D01*
X24175000Y-77000000D02*
X23400000Y-77000000D01*
X68400000Y-77000000D02*
X68400000Y-74500000D01*
X69175000Y-77000000D02*
X68400000Y-77000000D01*
X23400000Y-77000000D02*
X23400000Y-74100000D01*
X46675000Y-77000000D02*
X45900000Y-77000000D01*
D18*
%TO.N,I2C_SCL*%
X32299999Y-36950000D02*
X32509999Y-37160000D01*
X32509999Y-37160000D02*
X37310000Y-37160000D01*
X37310000Y-37160000D02*
X43300000Y-43150000D01*
D20*
%TO.N,I2C_SDA*%
X34650000Y-36800000D02*
X35700000Y-36800000D01*
D18*
X35700000Y-36800000D02*
X38250000Y-36800000D01*
X38250000Y-36800000D02*
X44050000Y-42600000D01*
X34100000Y-36250000D02*
X34400000Y-36550000D01*
X31600000Y-36250000D02*
X34100000Y-36250000D01*
D20*
X34400000Y-36550000D02*
X34650000Y-36800000D01*
D18*
%TO.N,V_IN_3V3*%
X27650000Y-46300000D02*
X17500000Y-56450000D01*
%TO.N,REF_27M*%
X53060000Y-41000000D02*
X53960000Y-41900000D01*
X45600000Y-41000000D02*
X53060000Y-41000000D01*
X44900000Y-40300000D02*
X45600000Y-41000000D01*
X44900000Y-39300000D02*
X44900000Y-40300000D01*
X40200000Y-34600000D02*
X44900000Y-39300000D01*
X30400000Y-35600000D02*
X37750000Y-35600000D01*
X40200000Y-34000000D02*
X40200000Y-34600000D01*
%TO.N,H_IN_3V3*%
X29450000Y-45700000D02*
X18750000Y-56400000D01*
X18750000Y-56400000D02*
X18750000Y-57350000D01*
%TO.N,DAC_PSAVE_N*%
X59450000Y-46000000D02*
X63750000Y-41700000D01*
X75000000Y-39800000D02*
X75700000Y-39100000D01*
X55700000Y-46000000D02*
X59450000Y-46000000D01*
X63750000Y-39800000D02*
X63750000Y-38100000D01*
X46040000Y-42100000D02*
X46690000Y-42750000D01*
X63750000Y-39800000D02*
X75000000Y-39800000D01*
X63750000Y-38100000D02*
X63950000Y-37900000D01*
X46690000Y-42750000D02*
X52450000Y-42750000D01*
X52450000Y-42750000D02*
X55700000Y-46000000D01*
X63750000Y-41700000D02*
X63750000Y-39800000D01*
%TO.N,H_OUT_RAW*%
X78650000Y-51250000D02*
X80650000Y-53250000D01*
X80650000Y-53250000D02*
X80662500Y-53250000D01*
X61850000Y-44900000D02*
X68200000Y-51250000D01*
X68200000Y-51250000D02*
X72650000Y-51250000D01*
X72650000Y-51250000D02*
X78650000Y-51250000D01*
%TO.N,V_OUT_RAW*%
X80650000Y-56750000D02*
X80662500Y-56750000D01*
X70450000Y-54250000D02*
X78150000Y-54250000D01*
X78150000Y-54250000D02*
X80650000Y-56750000D01*
X61150000Y-45600000D02*
X69800000Y-54250000D01*
X69800000Y-54250000D02*
X70450000Y-54250000D01*
%TO.N,POWER_GOOD*%
X60175000Y-52125000D02*
X60175000Y-65700000D01*
D21*
X49000000Y-67500000D02*
X71500000Y-67500000D01*
D18*
X46040000Y-44450000D02*
X46240000Y-44650000D01*
X46240000Y-44650000D02*
X52700000Y-44650000D01*
X52700000Y-44650000D02*
X60175000Y-52125000D01*
D21*
X49000000Y-71000000D02*
X49000000Y-67500000D01*
X60175000Y-65700000D02*
X60175000Y-67500000D01*
X71500000Y-67500000D02*
X71500000Y-71000000D01*
D18*
%TO.N,DAC_R0*%
X46040000Y-38950000D02*
X46040000Y-29000000D01*
%TO.N,JTAGSEL_N*%
X56550000Y-45450000D02*
X56550000Y-33500000D01*
X56550000Y-33500000D02*
X42400000Y-19350000D01*
%TO.N,JTAG_TMS*%
X44960000Y-21360000D02*
X44960000Y-21060000D01*
X57100000Y-44900000D02*
X57100000Y-33500000D01*
X57100000Y-33500000D02*
X44960000Y-21360000D01*
%TO.N,JTAG_TCK*%
X58600000Y-44350000D02*
X58600000Y-33500000D01*
X58600000Y-33500000D02*
X47500000Y-22400000D01*
X47500000Y-22400000D02*
X47500000Y-22100000D01*
%TO.N,JTAG_TDI*%
X59150000Y-33500000D02*
X50040000Y-24390000D01*
X50040000Y-24390000D02*
X50040000Y-24090000D01*
X59150000Y-43800000D02*
X59150000Y-33500000D01*
%TO.N,JTAG_TDO*%
X59700000Y-43250000D02*
X59700000Y-33500000D01*
X59700000Y-33500000D02*
X52580000Y-26380000D01*
X52580000Y-26380000D02*
X52580000Y-24500000D01*
%TO.N,FPGA_RECONFIG_N*%
X55100000Y-28350000D02*
X55100000Y-24500000D01*
X60250000Y-42700000D02*
X60250000Y-33500000D01*
X60250000Y-33500000D02*
X55100000Y-28350000D01*
%TO.N,FPGA_DONE*%
X54800000Y-33500000D02*
X39900000Y-18600000D01*
X54800000Y-42060000D02*
X54800000Y-33500000D01*
X53960000Y-42900000D02*
X54800000Y-42060000D01*
%TO.N,B_OUT*%
X78250000Y-45550000D02*
X80250000Y-47550000D01*
X80300000Y-47600000D02*
X80300000Y-47625000D01*
X76900000Y-43400000D02*
X77150000Y-43400000D01*
X77150000Y-43400000D02*
X78250000Y-44500000D01*
X78250000Y-44500000D02*
X78250000Y-45550000D01*
X76762499Y-43250000D02*
X76900000Y-43400000D01*
X80250000Y-47550000D02*
X80300000Y-47600000D01*
%TO.N,G_OUT*%
X76362500Y-41650000D02*
X79850000Y-41650000D01*
X82150000Y-43950000D02*
X82300000Y-44100000D01*
X82300000Y-44100000D02*
X82300000Y-44125000D01*
X79850000Y-41650000D02*
X82150000Y-43950000D01*
%TO.N,R_OUT*%
X76150000Y-40450000D02*
X76162500Y-40450000D01*
X78300000Y-37300000D02*
X76150000Y-39450000D01*
X79375000Y-37300000D02*
X78300000Y-37300000D01*
X76150000Y-39450000D02*
X76150000Y-40450000D01*
%TO.N,DAC_COMP*%
X76100000Y-41050000D02*
X75650000Y-41500000D01*
X77550000Y-46300000D02*
X77550000Y-46750000D01*
X76450000Y-41050000D02*
X76100000Y-41050000D01*
X75650000Y-41500000D02*
X75650000Y-44400000D01*
X75650000Y-44400000D02*
X77550000Y-46300000D01*
X76750000Y-39750000D02*
X76762499Y-39750000D01*
X76750000Y-40750000D02*
X76450000Y-41050000D01*
X76750000Y-39750000D02*
X76750000Y-40750000D01*
%TO.N,G_IN*%
X7040000Y-44025000D02*
X7050000Y-44000000D01*
X7050000Y-44000000D02*
X8600000Y-45550000D01*
%TO.N,B_IN*%
X7050000Y-41750000D02*
X9200000Y-43900000D01*
X9200000Y-43900000D02*
X9200000Y-46950000D01*
X7040000Y-41735000D02*
X7050000Y-41750000D01*
%TO.N,H_OUT*%
X91900000Y-42250000D02*
X93100000Y-43450000D01*
X92700000Y-48200000D02*
X91900000Y-48200000D01*
X91920000Y-42265000D02*
X91900000Y-42250000D01*
X93100000Y-47800000D02*
X92700000Y-48200000D01*
X93100000Y-43450000D02*
X93100000Y-47800000D01*
D22*
%TO.N,USB_VBUS*%
X45050000Y-86125000D02*
X44300000Y-83000000D01*
X45050000Y-86125000D02*
X49950000Y-86125000D01*
X44300000Y-83000000D02*
X44300000Y-82000000D01*
D21*
%TO.N,PG_3V3*%
X26500000Y-71000000D02*
X37175000Y-71000000D01*
X37175000Y-71000000D02*
X37175000Y-78500000D01*
X37175000Y-78500000D02*
X70000000Y-78500000D01*
X70000000Y-78500000D02*
X70000000Y-73400000D01*
X70000000Y-73400000D02*
X68300000Y-73400000D01*
X37175000Y-78500000D02*
X37175000Y-83000000D01*
%TD*%
M02*
