M48
; DRILL file {KiCad 7.0.11+dfsg-1build4} date Thu Oct  1 11:55:27 2026
; FORMAT={-:-/ absolute / metric / decimal}
; #@! TF.CreationDate,2026-10-01T11:55:27+00:00
; #@! TF.GenerationSoftware,Kicad,Pcbnew,7.0.11+dfsg-1build4
; #@! TF.FileFunction,Plated,1,4,PTH
FMAT,2
METRIC
; #@! TA.AperFunction,Plated,PTH,ViaDrill
T1C0.300
; #@! TA.AperFunction,Plated,PTH,ComponentDrill
T2C0.800
; #@! TA.AperFunction,Plated,PTH,ComponentDrill
T3C1.100
; #@! TA.AperFunction,Plated,PTH,ComponentDrill
T4C3.200
%
G90
G05
T1
X8.6Y-45.55
X9.2Y-46.95
X11.0Y-39.725
X11.2Y-46.5
X11.3Y-35.375
X11.825Y-50.5
X12.775Y-50.5
X12.9Y-41.15
X12.95Y-33.7
X12.95Y-62.7
X13.0Y-28.312
X13.0Y-31.688
X13.3Y-57.375
X13.925Y-47.5
X13.95Y-37.1
X14.425Y-65.3
X14.662Y-59.0
X14.718Y-52.61
X14.9Y-50.5
X14.95Y-25.85
X14.95Y-46.2
X15.0Y-33.225
X15.0Y-36.725
X15.0Y-38.275
X15.0Y-40.425
X15.0Y-41.775
X15.0Y-43.925
X15.0Y-45.275
X15.2Y-28.725
X15.903Y-31.321
X15.95Y-48.5
X15.975Y-62.9
X16.125Y-56.0
X16.75Y-48.5
X16.95Y-36.8
X16.95Y-39.75
X16.95Y-40.6
X16.95Y-41.45
X17.05Y-44.5
X17.15Y-46.45
X17.175Y-43.5
X17.188Y-53.5
X17.5Y-48.9
X17.5Y-56.45
X17.6Y-54.725
X17.9Y-52.55
X18.7Y-52.85
X18.75Y-57.35
X18.8Y-53.75
X19.0Y-29.725
X19.4Y-52.55
X19.5Y-57.225
X19.5Y-58.775
X19.575Y-72.75
X19.7Y-56.275
X19.75Y-36.5
X19.8Y-29.6
X20.1Y-33.1
X20.2Y-28.85
X20.225Y-32.0
X20.9Y-50.85
X20.9Y-55.05
X20.9Y-55.85
X21.0Y-33.0
X21.775Y-27.0
X22.0Y-35.65
X23.4Y-74.1
X23.6Y-71.2
X24.0Y-30.725
X24.0Y-32.95
X24.0Y-40.0
X24.0Y-41.5
X24.0Y-43.0
X24.175Y-77.0
X25.5Y-40.0
X25.5Y-41.5
X25.5Y-43.0
X26.1Y-46.0
X26.1Y-53.9
X26.5Y-71.0
X27.0Y-40.0
X27.0Y-41.5
X27.0Y-43.0
X27.6Y-53.9
X27.65Y-46.3
X27.8Y-36.0
X28.575Y-31.0
X28.6Y-54.1
X28.8Y-33.15
X29.275Y-26.9
X29.45Y-45.7
X30.4Y-35.6
X30.9Y-32.0
X31.0Y-30.2
X31.6Y-36.25
X32.0Y-32.95
X32.3Y-36.95
X32.45Y-27.35
X32.45Y-37.8
X32.45Y-38.55
X32.8Y-33.188
X33.0Y-29.812
X33.05Y-75.2
X35.0Y-36.225
X35.0Y-37.775
X35.0Y-39.725
X35.0Y-41.275
X35.1Y-47.4
X35.3Y-43.55
X35.775Y-34.98
X35.925Y-72.75
X36.2Y-46.9
X36.55Y-33.27
X36.7Y-48.825
X36.7Y-50.375
X37.164Y-38.964
X37.175Y-76.6
X37.175Y-83.0
X37.2Y-36.2
X37.75Y-35.6
X37.8Y-27.95
X38.158Y-39.108
X38.225Y-24.9
X38.35Y-36.2
X38.825Y-76.6
X39.021Y-38.871
X39.7Y-83.925
X39.775Y-24.9
X39.877Y-38.427
X39.9Y-14.825
X39.9Y-18.6
X39.9Y-26.05
X40.05Y-35.75
X40.175Y-85.8
X40.2Y-34.0
X41.0Y-32.77
X41.0Y-43.725
X41.775Y-34.48
X41.8Y-43.6
X42.0Y-45.425
X42.0Y-46.275
X42.075Y-72.75
X42.1Y-38.125
X42.2Y-27.95
X42.4Y-15.825
X42.4Y-19.35
X42.42Y-9.475
X42.42Y-14.525
X42.55Y-43.5
X43.0Y-47.775
X43.3Y-43.15
X43.6Y-86.3
X43.625Y-34.1
X43.95Y-45.0
X44.0Y-37.225
X44.05Y-42.6
X44.3Y-82.0
X44.96Y-9.475
X44.96Y-21.06
X45.05Y-86.125
X45.175Y-34.1
X45.4Y-50.875
X45.6Y-47.6
X45.9Y-74.1
X46.04Y-29.0
X46.04Y-38.95
X46.04Y-42.1
X46.04Y-44.45
X46.04Y-45.2
X46.05Y-43.0
X46.1Y-71.2
X46.21Y-16.525
X46.675Y-77.0
X47.5Y-9.475
X47.5Y-22.1
X48.0Y-40.0
X48.0Y-42.0
X48.0Y-44.0
X48.75Y-16.525
X49.0Y-71.0
X49.95Y-86.125
X50.0Y-40.0
X50.0Y-42.0
X50.0Y-44.0
X50.04Y-9.475
X50.04Y-24.09
X50.2Y-45.95
X51.29Y-16.525
X51.4Y-86.3
X52.0Y-40.0
X52.0Y-42.0
X52.0Y-44.0
X52.58Y-24.5
X53.2Y-45.96
X53.2Y-48.05
X53.96Y-41.9
X53.96Y-42.9
X54.2Y-36.1
X54.55Y-72.75
X54.925Y-82.0
X55.1Y-24.5
X55.3Y-54.0
X55.325Y-85.8
X55.55Y-36.45
X55.9Y-37.55
X55.95Y-42.0
X55.95Y-46.75
X56.1Y-49.225
X56.35Y-16.525
X56.425Y-55.9
X56.55Y-45.45
X57.1Y-44.9
X57.975Y-55.9
X58.0Y-37.225
X58.0Y-42.05
X58.425Y-72.75
X58.6Y-44.35
X59.15Y-43.8
X59.225Y-47.2
X59.625Y-55.9
X59.7Y-43.25
X59.9Y-50.75
X60.175Y-65.7
X60.25Y-42.7
X61.15Y-45.6
X61.2Y-53.3
X61.575Y-36.0
X61.825Y-63.3
X61.85Y-44.9
X62.075Y-54.8
X63.95Y-37.9
X64.1Y-72.75
X66.962Y-54.95
X67.038Y-53.05
X68.3Y-73.4
X68.4Y-74.5
X68.6Y-71.2
X68.638Y-44.95
X69.175Y-77.0
X69.725Y-58.5
X71.2Y-44.5
X71.275Y-58.5
X71.4Y-39.2
X71.5Y-71.0
X72.0Y-44.85
X74.8Y-52.5
X74.819Y-50.263
X75.225Y-54.95
X75.3Y-40.8
X75.55Y-36.637
X75.7Y-32.075
X75.7Y-39.1
X76.162Y-40.45
X76.362Y-41.65
X76.762Y-39.75
X76.762Y-43.25
X76.9Y-42.25
X76.9Y-44.0
X77.05Y-72.75
X77.55Y-46.75
X78.075Y-48.3
X78.125Y-52.5
X78.293Y-54.393
X78.3Y-57.825
X79.362Y-44.75
X79.375Y-37.3
X79.381Y-38.978
X79.5Y-43.275
X79.662Y-54.8
X79.675Y-35.3
X79.936Y-52.536
X79.962Y-44.35
X80.3Y-47.625
X80.5Y-40.725
X80.662Y-53.25
X80.662Y-56.75
X80.9Y-72.75
X80.95Y-50.35
X81.362Y-41.15
X81.95Y-49.0
X82.3Y-44.125
X82.625Y-37.3
X82.725Y-58.8
X86.075Y-58.8
X91.9Y-48.2
T3
X3.08Y-37.155
X3.08Y-39.445
X3.08Y-41.735
X3.08Y-44.025
X3.08Y-46.315
X5.06Y-38.3
X5.06Y-40.59
X5.06Y-42.88
X5.06Y-45.17
X5.06Y-47.46
X7.04Y-37.155
X7.04Y-39.445
X7.04Y-41.735
X7.04Y-44.025
X7.04Y-46.315
X87.96Y-37.685
X87.96Y-39.975
X87.96Y-42.265
X87.96Y-44.555
X87.96Y-46.845
X89.94Y-36.54
X89.94Y-38.83
X89.94Y-41.12
X89.94Y-43.41
X89.94Y-45.7
X91.92Y-37.685
X91.92Y-39.975
X91.92Y-42.265
X91.92Y-44.555
X91.92Y-46.845
T4
X5.06Y-29.5
X5.06Y-54.5
X89.94Y-29.5
X89.94Y-54.5
T2
X43.18Y-87.77G85X43.18Y-88.67
G05
X43.18Y-92.2G85X43.18Y-92.6
G05
X51.82Y-87.77G85X51.82Y-88.67
G05
X51.82Y-92.2G85X51.82Y-92.6
G05
M30
